<svg id="Layer_1" data-name="Layer 1" xmlns="http://www.w3.org/2000/svg" viewBox="0 0 137 130"><defs><style>.cls-1{fill:#2e3192;}.cls-2{fill:#29abe2;}.cls-3{fill:#0061ef;}.cls-4{fill:#fff;}.cls-5{opacity:0.2;}.cls-6{fill:#59ffff;}.cls-7{opacity:0.5;}.cls-8{fill:#cff;}.cls-9{opacity:0.8;}</style></defs><title>kolorowanka_Artboard 13</title><path class="cls-1" d="M117.75,117.57a5.81,5.81,0,0,1-2-1.24l-40.25-37a6,6,0,0,1,8.08-8.78l40.25,37.05a6,6,0,0,1-6,10Z"/><path class="cls-2" d="M114.8,117.31l-28.25-26,9.88-10.74,28.25,26a7.28,7.28,0,0,1,.43,10.3h0A7.29,7.29,0,0,1,114.8,117.31Z"/><path class="cls-1" d="M66.55,15.12A38.29,38.29,0,1,0,89.86,64,38.3,38.3,0,0,0,66.55,15.12ZM44.38,77.73a28.12,28.12,0,1,1,35.9-17.12A28.12,28.12,0,0,1,44.38,77.73Z"/><path class="cls-3" d="M64.5,20.92A32.14,32.14,0,1,0,84.07,62,32.14,32.14,0,0,0,64.5,20.92ZM44.38,77.73a28.12,28.12,0,1,1,35.9-17.12A28.12,28.12,0,0,1,44.38,77.73Z"/><path class="cls-4" d="M121.47,110.33a1.65,1.65,0,0,1-1.11-.43L96.67,88.36a1.66,1.66,0,1,1,2.23-2.45l23.69,21.54a1.66,1.66,0,0,1-1.12,2.88Z"/><g class="cls-5"><circle class="cls-6" cx="53.77" cy="51.22" r="28.13"/></g><g class="cls-7"><path class="cls-8" d="M76,58.36a23.31,23.31,0,0,1-45-11.5A23.32,23.32,0,0,0,75.69,49.3a24,24,0,0,0,1-4.08A23.14,23.14,0,0,1,76,58.36Z"/></g><g class="cls-9"><path class="cls-4" d="M63.31,35.37a2,2,0,0,1-.94-.24,19,19,0,0,0-4.16-1.63,2,2,0,0,1-1.44-2.42,2,2,0,0,1,2.43-1.43,22.9,22.9,0,0,1,5,2,2,2,0,0,1,.81,2.7A2,2,0,0,1,63.31,35.37Z"/></g><g class="cls-9"><path class="cls-4" d="M35.38,43.82a2,2,0,0,1-1.75-2.93A22.6,22.6,0,0,1,51.49,29a2,2,0,1,1,.37,4,18.62,18.62,0,0,0-14.72,9.77A2,2,0,0,1,35.38,43.82Z"/></g><path class="cls-1" d="M53.77,70.51a2.5,2.5,0,0,1-2.5-2.5V34.43a2.5,2.5,0,0,1,5,0V68A2.5,2.5,0,0,1,53.77,70.51Z"/><path class="cls-1" d="M70.56,53.72H37a2.5,2.5,0,1,1,0-5H70.56a2.5,2.5,0,0,1,0,5Z"/></svg>