<svg id="Layer_1" data-name="Layer 1" xmlns="http://www.w3.org/2000/svg" viewBox="0 0 149 100"><defs><style>.cls-1{opacity:0.3;}.cls-2{fill:#0071bc;}.cls-3{fill:#006dff;}.cls-4{fill:#fff;}</style></defs><title>kolorowanka_Artboard 15</title><g class="cls-1"><path d="M107.46,53.85a18.4,18.4,0,0,1-5.22-.74,7.08,7.08,0,0,1-.77-.28,23.76,23.76,0,0,1-3-1.6c-.13-.09-.26-.18-.38-.28a7.75,7.75,0,0,1-2-9.72,10.93,10.93,0,0,1-2.13-6.59,9.76,9.76,0,0,1,.77-3.93c0-.09.09-.24.13-.32a12.56,12.56,0,0,1,3.78-4.75l.23-.17.45-.34A21.24,21.24,0,0,1,103.42,23a12.8,12.8,0,0,1,2-.54l.11,0,.48-.09a14.57,14.57,0,0,1,5.28.33,12.52,12.52,0,0,1,4.87,2.61,6.65,6.65,0,0,1,.65.65,10.54,10.54,0,0,1,2.58,5.08l0,.18a9.58,9.58,0,0,1,0,3.62c0,.26-.11.52-.18.76s-.22.67-.36,1a14.67,14.67,0,0,1,.9,1.69c.07.16.13.32.19.49a11.6,11.6,0,0,1,.07,6.63,13.12,13.12,0,0,1-1.95,3.82,7.87,7.87,0,0,1-.6.68,13.8,13.8,0,0,1-5.23,3.2A16.11,16.11,0,0,1,107.46,53.85ZM100.92,50a6.62,6.62,0,0,0,.9.48l-.33-.16A5.45,5.45,0,0,1,100.92,50Zm0,0h0Zm17.93-10.79Zm0,0ZM96.3,30.86Zm0,0h0Zm0,0Zm0,0Zm0,0Zm12.8,0Zm-8.25-6.33Z"/><path d="M79.7,76.92a8.06,8.06,0,0,1-4.38-1.3c-4-2.46-4-6.3-4-9.68,0-1,0-2.11.06-3,0-.53,0-1,0-1.3a7.69,7.69,0,0,1,0-.83c0-.39.13-2.19.13-4.17,0-4.57,0-6.47,2.24-8.71a7.28,7.28,0,0,1,1.18-1,7.68,7.68,0,0,1,2.66-1.21,9.13,9.13,0,0,1,5.33.14,12.19,12.19,0,0,1,5.79.52,8.15,8.15,0,0,1,5.07,5.82,7.73,7.73,0,0,1-1.1,6,7.55,7.55,0,0,1,.61,2.59,8.19,8.19,0,0,1-.06,1.57,8,8,0,0,1,2.28,5.51A7.8,7.8,0,0,1,91,75a7.14,7.14,0,0,1-2.37.84l-.14,0-1.24.32-.26.06a34.17,34.17,0,0,1-5.42.45A8.09,8.09,0,0,1,79.7,76.92Zm7.79-1h0Zm.91-2.63-.22.09Zm-3-5.59,1.1.19-.12-.13-1-.15Zm-.2,0,.2,0s0-.06,0-.09l-.2,0Zm-1.94-.33,1.85.32,0-.08-1.83-.28Zm1.5-.32ZM81.21,53.41Zm-5.52-6.86Zm0,0Z"/><path d="M139.71,65.92a7.18,7.18,0,0,0-1.15-6.49A8.43,8.43,0,0,0,137,57.75a11.22,11.22,0,0,0-.44-1.35c-.07-.28-.15-.52-.21-.7l0-.14a11.52,11.52,0,0,0-.48-1.34c-.16-.51-.38-1.14-.68-2l-.3-.89a7.61,7.61,0,0,0-.39-.93A9.57,9.57,0,0,0,132.8,48a9.33,9.33,0,0,0,1.89-7.52,7.88,7.88,0,0,0-2.88-4.63,7.35,7.35,0,0,0,.95-3,7.94,7.94,0,0,0-2.15-6.17l-.12-.13.15-.26c.71-1.17,2.59-4.27.94-7.92A7.79,7.79,0,0,0,125.52,14h0a9.23,9.23,0,0,0-7.44,2.22c-.22.19-.43.39-.64.6a8,8,0,0,0-5-2.82h0A9.24,9.24,0,0,0,105,16.19a9.83,9.83,0,0,0-3.59,7.49c0,.47,0,1.11.06,1.85a14.94,14.94,0,0,0-2.18-1.66l-.56-.32c-1.91-.95-5.94-2-9.25-.05a7.84,7.84,0,0,0-1.26.92,4,4,0,0,0-.4-.22,8.29,8.29,0,0,0-5.7-.92,9.4,9.4,0,0,0-2.67-1,7.3,7.3,0,0,0-1.4-.14h-.88a7,7,0,0,0-1.7.21,9.34,9.34,0,0,0-3.12,1.43A8.4,8.4,0,0,0,67,22.24a9.6,9.6,0,0,0-3.9.73,14.55,14.55,0,0,0-4.47-.12,9.22,9.22,0,0,0-4.89-.23,10.29,10.29,0,0,0-4.76.05,9.9,9.9,0,0,0-6.78.89,10.72,10.72,0,0,0-1.7,1.15,8.87,8.87,0,0,0-6.59-1.52c-3.44.5-7.44,2.67-7,10.12,0,.15,0,.31,0,.47.08.56.18,2.47.25,3.86,0,.82.09,1.64.13,2.38l.07,1.28c.1,1.74.18,3.13.31,4.29a8.57,8.57,0,0,0-1.83.68l-.36.18a7,7,0,0,0-3.88,6.08v.11c0,.6-.09,2.41-.09,4.5,0,2.55-.09,4.89-.15,5.52,0,.12,0,.25,0,.37-.26,6.34.39,8,.67,8.66a2.44,2.44,0,0,0,.1.24,8.15,8.15,0,0,0,10.79,4.2,5.42,5.42,0,0,0,.69-.32,7,7,0,0,0,1.55.64,7.47,7.47,0,0,0,2.64.49,7.55,7.55,0,0,0,1.49-.16,10.46,10.46,0,0,0,2.24.21A9.81,9.81,0,0,0,47,75.41a9,9,0,0,0,2.13,1,7.93,7.93,0,0,0,4.75.26,7.85,7.85,0,0,0,1.68.17,8.59,8.59,0,0,0,4.41-1.22A9.06,9.06,0,0,0,62,76.3a5.12,5.12,0,0,0,.54.1,10.63,10.63,0,0,0,2.93,0,8,8,0,0,0,2.67.47,8.69,8.69,0,0,0,2.9-.51l.42,0,.54,0c.59,0,1.33,0,1.92.08l1,0a9.89,9.89,0,0,0,2.18,0,8.94,8.94,0,0,0,5.41,4.65,11.3,11.3,0,0,0,3.39.5C89,81.63,92.23,80.49,94,78a7.86,7.86,0,0,0,.64-1.12,23.55,23.55,0,0,0,2.78-.23l.21,0a15.31,15.31,0,0,0,2.72-.87,8,8,0,0,0,4.1,1.13,8.69,8.69,0,0,0,2.9-.51l.42,0,.53,0c.6,0,1.34,0,1.93.08l1,0a9.9,9.9,0,0,0,2.44-.07,7.61,7.61,0,0,0,4.7.13,9.39,9.39,0,0,0,3,.41,9.76,9.76,0,0,0,5.47-1.58,9.88,9.88,0,0,0,2.14,1,8.07,8.07,0,0,0,5.44.06,8.5,8.5,0,0,0,3.7-2.25,6.79,6.79,0,0,0,.87-1.07A7.55,7.55,0,0,0,139.71,65.92ZM80.86,61.86h0l.15-.31c.4-.79,1.21-2.42,1.47-2.85a9.69,9.69,0,0,0,.46-.91l.06-.16c.09-.22.21-.49.33-.81,0,.83,0,1.84.1,3.12,0,.6.06,1.27.08,1.94a10.28,10.28,0,0,0-1.69.71A8.39,8.39,0,0,0,80.86,61.86Zm25.69-28.17-.06-.2-.06-.17a7.37,7.37,0,0,0,1.44.41l0,.06a22.14,22.14,0,0,0,0,9.17c0,.13.07.26.11.39a17.76,17.76,0,0,0,.86,2.21,3.06,3.06,0,0,0-.41.1,8.85,8.85,0,0,1-1.87.18,3.7,3.7,0,0,0-.47,0l-.59,0a15.45,15.45,0,0,0,1.1-2.85A18.48,18.48,0,0,0,106.55,33.69Zm18-13.44a6.25,6.25,0,0,1,3.91,4c0,.14-.06.27-.09.4A12.1,12.1,0,0,0,124,22.84l.34-2-.34,2a13.53,13.53,0,0,0-5-.06,7.63,7.63,0,0,0,.09-2.1A6.56,6.56,0,0,1,124.54,20.25Zm-13.13,0a6.33,6.33,0,0,1,3.13,2.42c0,.34-.05.67-.05,1v.86a14.82,14.82,0,0,0-3.66,3.29,4.64,4.64,0,0,1-.83-.06l1.19-6.9L110,27.77a6.34,6.34,0,0,1-4.25-3.49,6.46,6.46,0,0,1-.63-3.05A6.48,6.48,0,0,1,111.41,20.25ZM82.89,73.31a7.94,7.94,0,0,0,.71-1.07,8.61,8.61,0,0,0,1.61,1.91l-.1.6A6.82,6.82,0,0,1,82.89,73.31Zm2.22,1.44.1-.6a14.18,14.18,0,0,0,1.32,1A6.83,6.83,0,0,1,85.11,74.75Z"/></g><path class="cls-2" d="M137.7,65.08a.78.78,0,0,1,0-.14,6.24,6.24,0,0,0-.88-5.91,7.51,7.51,0,0,0-1.63-1.7l0-.07a9.75,9.75,0,0,0-.48-1.52c-.08-.32-.16-.58-.21-.73l-.05-.16a10.51,10.51,0,0,0-.46-1.3c-.15-.48-.37-1.11-.68-2l-.31-.9a5.73,5.73,0,0,0-.33-.81,8.63,8.63,0,0,0-2.15-2.73c2.5-3,2.63-5.69,2.26-7.43a6.9,6.9,0,0,0-3.28-4.57,6.43,6.43,0,0,0,1.34-3.33,6.85,6.85,0,0,0-1.93-5.42c-.18-.22-.39-.42-.59-.62.17-.34.36-.65.54-.94.69-1.14,2.31-3.82.88-7A6.75,6.75,0,0,0,124.35,14h0a8.2,8.2,0,0,0-6.63,2,9.45,9.45,0,0,0-1.39,1.44A6.77,6.77,0,0,0,111.22,14h0a8.18,8.18,0,0,0-6.62,2,8.82,8.82,0,0,0-3.24,6.72c0,.26,0,.55,0,.88a23.33,23.33,0,0,0-2.23,1.2,13,13,0,0,0-1.43-1,4.53,4.53,0,0,0-.48-.27c-1.72-.86-5.35-1.82-8.28-.09a6.78,6.78,0,0,0-1.37,1l-.41.2a7.17,7.17,0,0,0-.86-.5,7.27,7.27,0,0,0-5.42-.75,8.25,8.25,0,0,0-2.69-1,6.11,6.11,0,0,0-1.2-.12h-.88a5.88,5.88,0,0,0-1.45.18,8.15,8.15,0,0,0-3.39,1.76A7.31,7.31,0,0,0,66,22.24a8.21,8.21,0,0,0-3.82.79,13.5,13.5,0,0,0-4.69-.16,8.25,8.25,0,0,0-4.77-.22,9.13,9.13,0,0,0-4.7,0,8.93,8.93,0,0,0-6.36.75,8.81,8.81,0,0,0-2.12,1.61A7.77,7.77,0,0,0,33,23.18c-4.4.64-6.46,3.7-6.14,9.07,0,.13,0,.27,0,.4.07.6.17,2.45.25,3.94,0,.81.09,1.63.13,2.38l.07,1.28c.12,2.24.21,3.86.42,5.14a8.09,8.09,0,0,0-2.49.77l-.37.18a6,6,0,0,0-3.32,5.22v.12c0,.59-.09,2.39-.09,4.46,0,2.36-.08,4.86-.15,5.61,0,.11,0,.21,0,.32-.25,6.12.36,7.67.6,8.25a1.8,1.8,0,0,0,.08.21,7.18,7.18,0,0,0,9.49,3.68,6.56,6.56,0,0,0,1.09-.56,6.26,6.26,0,0,0,1.88.86,6.62,6.62,0,0,0,2.3.42,6.32,6.32,0,0,0,1.49-.18A9.51,9.51,0,0,0,46,73.18a8,8,0,0,0,2.45,1.3,7,7,0,0,0,4.38.16,7.26,7.26,0,0,0,1.73.22,7.58,7.58,0,0,0,4.32-1.36l.13,0,.4.18a8.93,8.93,0,0,0,1.83.6l.46.08a9.68,9.68,0,0,0,2.9,0,7.29,7.29,0,0,0,2.58.48,7.79,7.79,0,0,0,2.73-.51l.65,0,.47,0c.62,0,1.38,0,2,.08l1,.06a9.32,9.32,0,0,0,2.25-.07c.2.07.41.15.62.21a7.93,7.93,0,0,0,5,4.51,10.44,10.44,0,0,0,3.11.46c2.76,0,5.68-1,7.27-3.24A6.23,6.23,0,0,0,93,74.89h0a26.63,26.63,0,0,0,3.23-.25l.18,0a14,14,0,0,0,3-1,7,7,0,0,0,4,1.26,7.79,7.79,0,0,0,2.73-.51l.65,0,.46,0c.63,0,1.39,0,2,.08l1,.06a9.34,9.34,0,0,0,2.49-.1,6.84,6.84,0,0,0,4.6.1,8.34,8.34,0,0,0,2.94.46,8.81,8.81,0,0,0,5.48-1.81,8,8,0,0,0,2.45,1.3,7,7,0,0,0,4.82,0,7.32,7.32,0,0,0,3.29-2,6.47,6.47,0,0,0,.75-.91A6.73,6.73,0,0,0,137.7,65.08Z"/><path class="cls-3" d="M43,36c.15-5.87.28-6.62,1.6-7.35a2.73,2.73,0,0,1,2.8.3,1,1,0,0,1-.3,1c-.3.15-.6.27-.6.57s-.13,2.65-.13,5.58c-.3,8.65-.3,9.1-1.17,9.4a1.34,1.34,0,0,1-1.63-.15,13.06,13.06,0,0,1-1.47-2c-.57-.88-1.3-2.08-1.6-2.65-.72-.73-.72-.73-1-.43-.58.88-1.05,1.45-1.93,2.78a10.71,10.71,0,0,1-2.05,2.8,1.27,1.27,0,0,1-1.45-.6c-.45-.45-.45-1.18-.75-6.6-.15-2.5-.27-5.58-.42-6.75-.15-2.5,0-2.63,1-2.78s1.6.15,1.9.88c.3.45.45,1,.45,3.95.15,1.9.28,4.12.28,5,0,1.32,0,1.47.15,1.17,1.62-2.2,2.2-2.65,3.37-2.5.58,0,.75.15,1.48.88a6.63,6.63,0,0,1,1.32,1.62C43,40.41,43,39.24,43,36Z"/><path class="cls-3" d="M49,28.84a1,1,0,0,1,.58-.35,3,3,0,0,1,1.77,0,2.13,2.13,0,0,1,.83,1.42c0,.7-.13,5.18-.35,8.7-.35,6.13-.5,6.8-1.55,7.15a1.14,1.14,0,0,1-1.4-.35c-.35-.35-.35-.35-.23-7.27.13-3.88.1-7.53.1-8.13C48.6,29.19,48.75,29.06,49,28.84Z"/><path class="cls-3" d="M53.37,28.81c.2-.1.35-.3.55-.3a2.31,2.31,0,0,1,2.08.3c.2.2.2.18,1.52.08a8.34,8.34,0,0,1,3.3,0c.75.27,1,1.05.58,1.52s-.95.55-2.93.75c-1,.1-1.9.2-1.9.2a41.8,41.8,0,0,0-.2,5,4.54,4.54,0,0,0,.85-.1,5.87,5.87,0,0,1,2.85-.1c1,.48,1.23,1.33.28,1.9a8,8,0,0,1-2.93.48c-1.32.1-1.15-.2-1.42,2.45,0,.65-.08,1.6-.08,1.87-.1.58-.12.58.45.58a16.78,16.78,0,0,0,3.88-.58,4.5,4.5,0,0,1,2-.07,1.28,1.28,0,0,1,.92,1,.79.79,0,0,1-.65.85,2.25,2.25,0,0,0-.48.28,18.27,18.27,0,0,0-2,.47,28.53,28.53,0,0,1-4.25.3,1.57,1.57,0,0,0-1,.08,1,1,0,0,1-1.12-.08c-.65-.37-.75-.47-.75-3.77,0-1.6.1-3.5.1-4.35s.17-3.1.17-5C53.17,29,53.17,29,53.37,28.81Z"/><path class="cls-3" d="M64.35,36.81c.2-7.17.2-8.17.4-8.37s.8-.2,1.2-.2c.8,0,1,0,1.4.4s.4.6.4,3.2c0,3-.2,8.37-.4,9.77-.2,1-.23,1,2.57.8,2.6,0,2.8.18,3.4.58a.94.94,0,0,1,0,1.6c-1.2,1-7.37,1.4-8.57.6C64.15,44.79,64.15,44.79,64.35,36.81Z"/><path class="cls-3" d="M75.15,28.69a2.09,2.09,0,0,1,1-.5H77c1.22.25,1.35.75,1.35,3.45,0,2.22,0,2.1,1.1.62a1.89,1.89,0,0,1,.5-.75c0-.12.25-.35.62-.72.75-1.1.85-1.25,1.35-1.5a1.48,1.48,0,0,1,1.6.12c.38.13.5.25.38.63a22.65,22.65,0,0,1-2.35,3.82c-.13.13-.13.25-.25.38a7.68,7.68,0,0,0-.85,1.22c-.75,1-.75,1-.13,2a40.34,40.34,0,0,0,2.45,4.17c.13.13.38.38.38.5.25.25.25.25.62.13a1.81,1.81,0,0,1,2.1,1c0,1.1-2,1.85-3.57,1.35a3.72,3.72,0,0,1-1.85-1.23c-.13-.12-.38-.5-.63-.75l-.25-.5c-.12,0-.25-.22-.37-.6a3.62,3.62,0,0,1-.73-1.12c-.37-.75-.37-.73-.5.87a16.91,16.91,0,0,1-.72,3.93,1.2,1.2,0,0,1-1.5.5c-1-.25-1.1-.85-1-6.65.13-2.23.25-5.55.25-7.15S75.15,28.81,75.15,28.69Z"/><path class="cls-3" d="M91.67,29.11c-.15-.27,0-.42.3-.57a3.47,3.47,0,0,1,2.57.27,11,11,0,0,1,4.3,5.88,11.67,11.67,0,0,1,0,5.45,7.08,7.08,0,0,1-6.44,5.57A6.06,6.06,0,0,1,85.67,41c-.57-1.85,0-5.58,1.15-7.88a6.15,6.15,0,0,1,4.28-3.57C91.67,29.39,91.67,29.39,91.67,29.11Zm2.87,3.58c-.27-.43-.72-1-.87-1.28s-.4-.45-.55-.45a2.37,2.37,0,0,0-.72.15,2.62,2.62,0,0,0-2.3,1.58,8,8,0,0,0-1.28,4,10.39,10.39,0,0,0,0,4.15,6.93,6.93,0,0,0,1.28,2c1.42,1.3,2.45,1.28,4-.3C96.27,40.26,96.54,36,94.54,32.69Z"/><path class="cls-3" d="M104.77,28.64a6,6,0,0,1,3.67-.18,5.47,5.47,0,0,1,2.15,1.15,3.6,3.6,0,0,1,1,1.9,2.8,2.8,0,0,1,0,1.08,2.74,2.74,0,0,1-.73,1.3,1.46,1.46,0,0,1-1.25.5,1.23,1.23,0,0,1-1.15-.5c-.17-.18-.15-.23-.07-.48a3.87,3.87,0,0,0,0-2,2.32,2.32,0,0,0-1-1.08c-.33-.17-.4-.17-.9,0a7.2,7.2,0,0,0-2.73,2,2.33,2.33,0,0,0-.07,2.3c.57,1.15,1.3,1.58,3.59,2.15.58.18,1.25.4,1.58.48.57.17,1.8.75,2,.82,0,.08.15.25.4.33a5,5,0,0,1,1.15,1.65,4.63,4.63,0,0,1,0,2.22,6,6,0,0,1-.82,1.65,6.84,6.84,0,0,1-2.38,1.48,11,11,0,0,1-5.92-.08,19.92,19.92,0,0,1-1.8-.92.82.82,0,0,1,.18-1.4,2.69,2.69,0,0,1,2-.08,8.1,8.1,0,0,0,2.63.65,2.33,2.33,0,0,0,2-.72,2.11,2.11,0,0,0,.65-1.65,1.63,1.63,0,0,0-.75-1.55c-.5-.33-.75-.43-2.87-1a7.45,7.45,0,0,1-4-2,4,4,0,0,1-1.38-3.12,3.18,3.18,0,0,1,.33-1.48,5.32,5.32,0,0,1,1.62-2c.25-.08.43-.25.43-.33A14.18,14.18,0,0,1,104.77,28.64Z"/><path class="cls-3" d="M113.65,34.46a7.9,7.9,0,0,1,5.2-5.72c2.15-.5,4.42.13,5.44,1.52.63.63.63,1,.25,1.28a1.22,1.22,0,0,1-1.64-.25,5.62,5.62,0,0,0-2.28-1.15c-1.4,0-2.8,1.65-3.55,3.92A9.54,9.54,0,0,0,117,37a11.36,11.36,0,0,0,.25,2.67,7.09,7.09,0,0,0,2.27,3.55,1.34,1.34,0,0,0,1.65,0c.75-.37,1.13-.77,2.27-2.3a2.45,2.45,0,0,1,2.8-.75c1.15.5.78,1.9-.75,3.55a6,6,0,0,1-3.29,1.9A8.25,8.25,0,0,1,117,45a8.25,8.25,0,0,1-3.3-4.7A15,15,0,0,1,113.65,34.46Z"/><path class="cls-3" d="M27.59,51.71l.4-.2a2.45,2.45,0,0,1,2.05,0c.29.11.5.3.79.8.1.3.3.58.3.68s.18.4.38.7.2.67.3.67a17.05,17.05,0,0,0,.7,1.78.74.74,0,0,1,.07.4,2.36,2.36,0,0,1,.3.57c.1.3.4.78.5,1.08s.3.6.2.6L35,61.71c.4.78.37.78.47.1.1-1,.2-8.32.2-9.1-.1-.6-.1-.7.2-.9a2.84,2.84,0,0,1,.78-.37,1.6,1.6,0,0,1,1,0c.78.2.9.27,1.2.77s.18.5.18,2.85c0,1.28-.1,3.23-.1,4.3-.2,3-.48,6.48-.48,6.58s-.1.47-.2,1c-.2,1.28-.37,1.68-1,1.88a.75.75,0,0,1-.9,0c-.6-.1-.68-.3-2-2.65-1.08-2-2.45-4.93-3.32-6.88-.21-.5-.21-.5-.3.1,0,.3-.11,1-.11,1.58-.09,1.77-.39,5.2-.39,5.3s-.11.37-.2.87c-.21,1-.38,1.38-.88,1.58a1.21,1.21,0,0,1-1.67-.6,29,29,0,0,1-.18-5.78c.1-1.07.18-3.82.18-6.17S27.59,51.81,27.59,51.71Z"/><path class="cls-3" d="M44.76,51.91c.1-.2.4-.37.5-.47.5-.2.57-.2,1,0a1.88,1.88,0,0,1,1.1,1.07c.2.6,1,2.88,1,3a1.69,1.69,0,0,0,.2.5,9.44,9.44,0,0,1,.3.9,3.86,3.86,0,0,1,.18.77,3.18,3.18,0,0,1,.4,1.1c.9,3,.8,2.88,1.4,3a1.68,1.68,0,0,1,1.17.8c.2.2.2.3,0,.6a1.07,1.07,0,0,1-.47.47l-.4.2c-.1,0,.6,2.1.7,2.6.1.1.17.48.37.78.3.8.3.8.1,1.1a1.48,1.48,0,0,1-.77.5,1.27,1.27,0,0,1-1.2,0c-.9-.3-1.18-.7-1.88-2.78a10.71,10.71,0,0,1-.5-1.6,5.82,5.82,0,0,0-1.9-.1c-2.07,0-1.77-.17-2.37,1.9a3.69,3.69,0,0,1-1,1.88,2.77,2.77,0,0,1-2.19.9c-.7,0-.88,0-1.18-.3-.8-.4-.7-1.1.1-1.4s.88-.6,1.67-3.28c.11-.6.41-1.47.5-1.87.6-2,1-3.58,1.58-5.65a3.14,3.14,0,0,1,.4-1.2,2.07,2.07,0,0,1,.2-.6A10.41,10.41,0,0,1,44.76,51.91Zm2,8.73c-.1-.6-.4-1.28-.5-1.68a8.14,8.14,0,0,1-.2-.9c-.1-.3-.07-.3-.17,0-.2.7-.7,2.68-.8,3.38a1.72,1.72,0,0,0-.2.8,7.41,7.41,0,0,0,2-.1C47.23,62,47.23,62.11,46.73,60.64Z"/><path class="cls-3" d="M53.71,51.66c.08-.17.35-.25.53-.32a3,3,0,0,1,.94-.1,1.55,1.55,0,0,1,1.2.42c.08.18.2.18.45,0a5.57,5.57,0,0,1,2.93-.25A4.26,4.26,0,0,1,63.83,56a3.82,3.82,0,0,1-1.2,3.2,5.3,5.3,0,0,1-2.6,1.3c-.35.08-.52.28-.35.35a4.37,4.37,0,0,1,.43.85c.25.35.52.88.7,1.13s.25.52.25.6.1.17.1.17a.21.21,0,0,1,.17.18c.08.17.28.35.35.52s.25.28.25.35a.28.28,0,0,0,.08.18s.27.35.45.6c.42.6.5.67.85.6a1.61,1.61,0,0,1,1.92.62c.18.25.25.35.08.6a2.61,2.61,0,0,1-2.85,1.2c-.35-.07-.7-.17-.7-.25a2.43,2.43,0,0,1-.43-.17,5.3,5.3,0,0,1-2.17-2.25,5,5,0,0,1-.53-.78,23.83,23.83,0,0,1-1.9-3.82c-.07-.43-.07-.43-.07.17,0,.35-.1,1-.1,1.48a12.53,12.53,0,0,0-.18,1.9,11.24,11.24,0,0,1-.77,3.65,1.5,1.5,0,0,1-1.65.35c-.42-.18-.42-.25-.6-1.13s-.17-.7,0-7.55c.08-1.47.08-3.9.08-5.45C53.44,51.84,53.46,51.84,53.71,51.66Zm6.67,3.83c0-1.55-.45-2.43-1.22-2.78a2.42,2.42,0,0,0-1.55,0c-.18,0-.35.08-.53.08s-.17.1-.25,1.3v3c-.07,1.9-.1,1.87.78,1.8,1.3,0,1.82-.33,2.25-1.2A4.28,4.28,0,0,0,60.38,55.49Z"/><path class="cls-3" d="M69.19,51.84a17.06,17.06,0,0,0,3.89-.45,3,3,0,0,1,1.35-.15c.75,0,1,0,1.35.3.6.45.45.75-.3,2.55-.45.75-1.35,2.57-2,3.77s-1.65,3.6-2.4,5.25S69.79,66,69.79,66a20.5,20.5,0,0,1,2.25.15c3.44,0,4.79.63,4.49,1.68-.3.6-1,.9-2.1.75-.6,0-2.1-.15-3.44-.15-1.95-.15-2.58,0-2.88.15-.75.45-1.5.45-2-.3v-1A38.83,38.83,0,0,1,68.71,61c.3-.9.93-1.95,1.08-2.4s.75-1.67,1.34-2.72c.75-2,.75-2-.59-1.8a8.64,8.64,0,0,1-3.93-.45c-.3-.15-.45-.3-.3-.75C66.31,52.14,66.94,52,69.19,51.84Z"/><path class="cls-3" d="M77.81,51.81c.2-.1.35-.3.55-.3a2.31,2.31,0,0,1,2.08.3c.19.2.19.18,1.52.08a8.35,8.35,0,0,1,3.3,0c.75.27,1,1,.57,1.52s-1,.55-2.92.75c-1,.1-1.9.2-1.9.2a41.8,41.8,0,0,0-.2,5,4.63,4.63,0,0,0,.85-.1,5.88,5.88,0,0,1,2.85-.1c1,.48,1.22,1.33.27,1.9a7.94,7.94,0,0,1-2.92.48c-1.32.1-1.15-.2-1.42,2.45,0,.65-.08,1.6-.08,1.87-.1.58-.12.58.45.58a16.69,16.69,0,0,0,3.87-.58,4.51,4.51,0,0,1,2-.07,1.28,1.28,0,0,1,.93,1,.8.8,0,0,1-.65.85,2,2,0,0,0-.48.28,17.63,17.63,0,0,0-2,.47,28.63,28.63,0,0,1-4.25.3,1.57,1.57,0,0,0-1.05.08,1,1,0,0,1-1.12-.08c-.65-.37-.75-.47-.75-3.77,0-1.6.1-3.5.1-4.35s.17-3.1.17-5C77.61,52,77.61,52,77.81,51.81Z"/><path class="cls-3" d="M89.54,52.11c.17-.17.35-.45.52-.52a1.19,1.19,0,0,1,1.63.25c.07.17.17.35.17.35a.35.35,0,0,0,.45.1c.43-.42,2.85-.42,4-.18a2.65,2.65,0,0,0,.88.25,9.2,9.2,0,0,1,1.12.6.35.35,0,0,0,.25.1,10.86,10.86,0,0,1,1.65,1.73,10.28,10.28,0,0,1,1.2,8.15A5.93,5.93,0,0,1,100,65.86a10.64,10.64,0,0,1-1.3,1.3,10.41,10.41,0,0,1-3.48,1.58c-.42.07-3,.17-4.15.25a3.61,3.61,0,0,1-.84-.18c-1.38-.77-1.65-.87-1.58-1.3,0-.25.28-.5.7-.5.25,0,.25,0,.25-2.7,0-1.47-.1-4.05-.17-5.7s-.15-3.65-.08-4.52C89.36,52.71,89.36,52.54,89.54,52.11Zm7.22,2.45a3.43,3.43,0,0,0-1.8-.82,2.62,2.62,0,0,0-1.8.17c-.87.35-1,.28-.87,1.15A92.5,92.5,0,0,1,93,65.61c0,1.65,0,1.63.34,1.55a5.28,5.28,0,0,0,2.08-.5A3.66,3.66,0,0,0,97.06,65c.35-.65.62-1.55.7-1.63s.1-.27.35-1.47a18.67,18.67,0,0,0-.1-4.33,5.09,5.09,0,0,0-.43-1.72A2.57,2.57,0,0,0,96.76,54.56Z"/><path class="cls-3" d="M105.54,51.84a17.06,17.06,0,0,0,3.89-.45,3,3,0,0,1,1.35-.15c.75,0,1,0,1.35.3.6.45.45.75-.3,2.55-.45.75-1.35,2.57-2,3.77s-1.65,3.6-2.4,5.25S106.13,66,106.13,66a20.37,20.37,0,0,1,2.25.15c3.45,0,4.8.63,4.5,1.68-.3.6-1,.9-2.1.75-.6,0-2.1-.15-3.45-.15-2-.15-2.57,0-2.87.15-.75.45-1.5.45-1.95-.3v-1A38.83,38.83,0,0,1,105.06,61c.3-.9.93-1.95,1.07-2.4.3-.45.75-1.67,1.35-2.72.75-2,.75-2-.6-1.8a8.61,8.61,0,0,1-3.92-.45c-.3-.15-.45-.3-.3-.75C102.66,52.14,103.29,52,105.54,51.84Z"/><path class="cls-3" d="M114.49,51.84a.92.92,0,0,1,.57-.35,3,3,0,0,1,1.77,0,2.13,2.13,0,0,1,.83,1.42c0,.7-.13,5.18-.35,8.7-.35,6.13-.5,6.8-1.55,7.15a1.14,1.14,0,0,1-1.4-.35c-.35-.35-.35-.35-.22-7.27.12-3.88.1-7.53.1-8.13C114.11,52.19,114.26,52.06,114.49,51.84Z"/><path class="cls-3" d="M124.66,51.91c.1-.2.4-.37.5-.47.5-.2.57-.2,1,0a1.88,1.88,0,0,1,1.1,1.07c.2.6,1,2.88,1,3a1.69,1.69,0,0,0,.2.5,9.44,9.44,0,0,1,.3.9,3.86,3.86,0,0,1,.18.77,3.18,3.18,0,0,1,.4,1.1c.9,3,.8,2.88,1.4,3a1.68,1.68,0,0,1,1.17.8c.2.2.2.3,0,.6a1.07,1.07,0,0,1-.47.47l-.4.2c-.1,0,.6,2.1.7,2.6.1.1.17.48.37.78.3.8.3.8.1,1.1a1.48,1.48,0,0,1-.77.5,1.28,1.28,0,0,1-1.2,0c-.9-.3-1.18-.7-1.88-2.78a10.71,10.71,0,0,1-.5-1.6,5.82,5.82,0,0,0-1.9-.1c-2.07,0-1.77-.17-2.37,1.9a3.69,3.69,0,0,1-1,1.88,2.79,2.79,0,0,1-2.2.9c-.7,0-.87,0-1.17-.3-.8-.4-.7-1.1.1-1.4s.87-.6,1.67-3.28c.1-.6.4-1.47.5-1.87.6-2,1-3.58,1.58-5.65a3.14,3.14,0,0,1,.4-1.2,2.07,2.07,0,0,1,.2-.6A10.41,10.41,0,0,1,124.66,51.91Zm2,8.73c-.1-.6-.4-1.28-.5-1.68a8.14,8.14,0,0,1-.2-.9c-.1-.3-.07-.3-.17,0-.2.7-.7,2.68-.8,3.38a1.72,1.72,0,0,0-.2.8,7.41,7.41,0,0,0,2-.1C127.13,62,127.13,62.11,126.63,60.64Z"/><path class="cls-4" d="M43,36c.15-5.87.28-6.62,1.6-7.35a2.73,2.73,0,0,1,2.8.3,1,1,0,0,1-.3,1c-.3.15-.6.27-.6.57s-.13,2.65-.13,5.58c-.3,8.65-.3,9.1-1.17,9.4a1.34,1.34,0,0,1-1.63-.15,13.06,13.06,0,0,1-1.47-2c-.57-.88-1.3-2.08-1.6-2.65-.72-.73-.72-.73-1-.43-.58.88-1.05,1.45-1.93,2.78a10.71,10.71,0,0,1-2.05,2.8,1.27,1.27,0,0,1-1.45-.6c-.45-.45-.45-1.18-.75-6.6-.15-2.5-.27-5.58-.42-6.75-.15-2.5,0-2.63,1-2.78s1.6.15,1.9.88c.3.45.45,1,.45,3.95.15,1.9.28,4.12.28,5,0,1.32,0,1.47.15,1.17,1.62-2.2,2.2-2.65,3.37-2.5.58,0,.75.15,1.48.88a6.63,6.63,0,0,1,1.32,1.62C43,40.41,43,39.24,43,36Z"/><path class="cls-4" d="M49,28.84a1,1,0,0,1,.58-.35,3,3,0,0,1,1.77,0,2.13,2.13,0,0,1,.83,1.42c0,.7-.13,5.18-.35,8.7-.35,6.13-.5,6.8-1.55,7.15a1.14,1.14,0,0,1-1.4-.35c-.35-.35-.35-.35-.23-7.27.13-3.88.1-7.53.1-8.13C48.6,29.19,48.75,29.06,49,28.84Z"/><path class="cls-4" d="M53.37,28.81c.2-.1.35-.3.55-.3a2.31,2.31,0,0,1,2.08.3c.2.2.2.18,1.52.08a8.34,8.34,0,0,1,3.3,0c.75.27,1,1.05.58,1.52s-.95.55-2.93.75c-1,.1-1.9.2-1.9.2a41.8,41.8,0,0,0-.2,5,4.54,4.54,0,0,0,.85-.1,5.87,5.87,0,0,1,2.85-.1c1,.48,1.23,1.33.28,1.9a8,8,0,0,1-2.93.48c-1.32.1-1.15-.2-1.42,2.45,0,.65-.08,1.6-.08,1.87-.1.58-.12.58.45.58a16.78,16.78,0,0,0,3.88-.58,4.5,4.5,0,0,1,2-.07,1.28,1.28,0,0,1,.92,1,.79.79,0,0,1-.65.85,2.25,2.25,0,0,0-.48.28,18.27,18.27,0,0,0-2,.47,28.53,28.53,0,0,1-4.25.3,1.57,1.57,0,0,0-1,.08,1,1,0,0,1-1.12-.08c-.65-.37-.75-.47-.75-3.77,0-1.6.1-3.5.1-4.35s.17-3.1.17-5C53.17,29,53.17,29,53.37,28.81Z"/><path class="cls-4" d="M64.35,36.81c.2-7.17.2-8.17.4-8.37s.8-.2,1.2-.2c.8,0,1,0,1.4.4s.4.6.4,3.2c0,3-.2,8.37-.4,9.77-.2,1-.23,1,2.57.8,2.6,0,2.8.18,3.4.58a.94.94,0,0,1,0,1.6c-1.2,1-7.37,1.4-8.57.6C64.15,44.79,64.15,44.79,64.35,36.81Z"/><path class="cls-4" d="M75.15,28.69a2.09,2.09,0,0,1,1-.5H77c1.22.25,1.35.75,1.35,3.45,0,2.22,0,2.1,1.1.62a1.89,1.89,0,0,1,.5-.75c0-.12.25-.35.62-.72.75-1.1.85-1.25,1.35-1.5a1.48,1.48,0,0,1,1.6.12c.38.13.5.25.38.63a22.65,22.65,0,0,1-2.35,3.82c-.13.13-.13.25-.25.38a7.68,7.68,0,0,0-.85,1.22c-.75,1-.75,1-.13,2a40.34,40.34,0,0,0,2.45,4.17c.13.13.38.38.38.5.25.25.25.25.62.13a1.81,1.81,0,0,1,2.1,1c0,1.1-2,1.85-3.57,1.35a3.72,3.72,0,0,1-1.85-1.23c-.13-.12-.38-.5-.63-.75l-.25-.5c-.12,0-.25-.22-.37-.6a3.62,3.62,0,0,1-.73-1.12c-.37-.75-.37-.73-.5.87a16.91,16.91,0,0,1-.72,3.93,1.2,1.2,0,0,1-1.5.5c-1-.25-1.1-.85-1-6.65.13-2.23.25-5.55.25-7.15S75.15,28.81,75.15,28.69Z"/><path class="cls-4" d="M91.67,29.11c-.15-.27,0-.42.3-.57a3.47,3.47,0,0,1,2.57.27,11,11,0,0,1,4.3,5.88,11.67,11.67,0,0,1,0,5.45,7.08,7.08,0,0,1-6.44,5.57A6.06,6.06,0,0,1,85.67,41c-.57-1.85,0-5.58,1.15-7.88a6.15,6.15,0,0,1,4.28-3.57C91.67,29.39,91.67,29.39,91.67,29.11Zm2.87,3.58c-.27-.43-.72-1-.87-1.28s-.4-.45-.55-.45a2.37,2.37,0,0,0-.72.15,2.62,2.62,0,0,0-2.3,1.58,8,8,0,0,0-1.28,4,10.39,10.39,0,0,0,0,4.15,6.93,6.93,0,0,0,1.28,2c1.42,1.3,2.45,1.28,4-.3C96.27,40.26,96.54,36,94.54,32.69Z"/><path class="cls-4" d="M104.77,28.64a6,6,0,0,1,3.67-.18,5.47,5.47,0,0,1,2.15,1.15,3.6,3.6,0,0,1,1,1.9,2.8,2.8,0,0,1,0,1.08,2.74,2.74,0,0,1-.73,1.3,1.46,1.46,0,0,1-1.25.5,1.23,1.23,0,0,1-1.15-.5c-.17-.18-.15-.23-.07-.48a3.87,3.87,0,0,0,0-2,2.32,2.32,0,0,0-1-1.08c-.33-.17-.4-.17-.9,0a7.2,7.2,0,0,0-2.73,2,2.33,2.33,0,0,0-.07,2.3c.57,1.15,1.3,1.58,3.59,2.15.58.18,1.25.4,1.58.48.57.17,1.8.75,2,.82,0,.08.15.25.4.33a5,5,0,0,1,1.15,1.65,4.63,4.63,0,0,1,0,2.22,6,6,0,0,1-.82,1.65,6.84,6.84,0,0,1-2.38,1.48,11,11,0,0,1-5.92-.08,19.92,19.92,0,0,1-1.8-.92.82.82,0,0,1,.18-1.4,2.69,2.69,0,0,1,2-.08,8.1,8.1,0,0,0,2.63.65,2.33,2.33,0,0,0,2-.72,2.11,2.11,0,0,0,.65-1.65,1.63,1.63,0,0,0-.75-1.55c-.5-.33-.75-.43-2.87-1a7.45,7.45,0,0,1-4-2,4,4,0,0,1-1.38-3.12,3.18,3.18,0,0,1,.33-1.48,5.32,5.32,0,0,1,1.62-2c.25-.08.43-.25.43-.33A14.18,14.18,0,0,1,104.77,28.64Z"/><path class="cls-4" d="M113.65,34.46a7.9,7.9,0,0,1,5.2-5.72c2.15-.5,4.42.13,5.44,1.52.63.63.63,1,.25,1.28a1.22,1.22,0,0,1-1.64-.25,5.62,5.62,0,0,0-2.28-1.15c-1.4,0-2.8,1.65-3.55,3.92A9.54,9.54,0,0,0,117,37a11.36,11.36,0,0,0,.25,2.67,7.09,7.09,0,0,0,2.27,3.55,1.34,1.34,0,0,0,1.65,0c.75-.37,1.13-.77,2.27-2.3a2.45,2.45,0,0,1,2.8-.75c1.15.5.78,1.9-.75,3.55a6,6,0,0,1-3.29,1.9A8.25,8.25,0,0,1,117,45a8.25,8.25,0,0,1-3.3-4.7A15,15,0,0,1,113.65,34.46Z"/><path class="cls-4" d="M27.59,51.71l.4-.2a2.45,2.45,0,0,1,2.05,0c.29.11.5.3.79.8.1.3.3.58.3.68s.18.4.38.7.2.67.3.67a17.05,17.05,0,0,0,.7,1.78.74.74,0,0,1,.07.4,2.36,2.36,0,0,1,.3.57c.1.3.4.78.5,1.08s.3.6.2.6L35,61.71c.4.78.37.78.47.1.1-1,.2-8.32.2-9.1-.1-.6-.1-.7.2-.9a2.84,2.84,0,0,1,.78-.37,1.6,1.6,0,0,1,1,0c.78.2.9.27,1.2.77s.18.5.18,2.85c0,1.28-.1,3.23-.1,4.3-.2,3-.48,6.48-.48,6.58s-.1.47-.2,1c-.2,1.28-.37,1.68-1,1.88a.75.75,0,0,1-.9,0c-.6-.1-.68-.3-2-2.65-1.08-2-2.45-4.93-3.32-6.88-.21-.5-.21-.5-.3.1,0,.3-.11,1-.11,1.58-.09,1.77-.39,5.2-.39,5.3s-.11.37-.2.87c-.21,1-.38,1.38-.88,1.58a1.21,1.21,0,0,1-1.67-.6,29,29,0,0,1-.18-5.78c.1-1.07.18-3.82.18-6.17S27.59,51.81,27.59,51.71Z"/><path class="cls-4" d="M44.76,51.91c.1-.2.4-.37.5-.47.5-.2.57-.2,1,0a1.88,1.88,0,0,1,1.1,1.07c.2.6,1,2.88,1,3a1.69,1.69,0,0,0,.2.5,9.44,9.44,0,0,1,.3.9,3.86,3.86,0,0,1,.18.77,3.18,3.18,0,0,1,.4,1.1c.9,3,.8,2.88,1.4,3a1.68,1.68,0,0,1,1.17.8c.2.2.2.3,0,.6a1.07,1.07,0,0,1-.47.47l-.4.2c-.1,0,.6,2.1.7,2.6.1.1.17.48.37.78.3.8.3.8.1,1.1a1.48,1.48,0,0,1-.77.5,1.27,1.27,0,0,1-1.2,0c-.9-.3-1.18-.7-1.88-2.78a10.71,10.71,0,0,1-.5-1.6,5.82,5.82,0,0,0-1.9-.1c-2.07,0-1.77-.17-2.37,1.9a3.69,3.69,0,0,1-1,1.88,2.77,2.77,0,0,1-2.19.9c-.7,0-.88,0-1.18-.3-.8-.4-.7-1.1.1-1.4s.88-.6,1.67-3.28c.11-.6.41-1.47.5-1.87.6-2,1-3.58,1.58-5.65a3.14,3.14,0,0,1,.4-1.2,2.07,2.07,0,0,1,.2-.6A10.41,10.41,0,0,1,44.76,51.91Zm2,8.73c-.1-.6-.4-1.28-.5-1.68a8.14,8.14,0,0,1-.2-.9c-.1-.3-.07-.3-.17,0-.2.7-.7,2.68-.8,3.38a1.72,1.72,0,0,0-.2.8,7.41,7.41,0,0,0,2-.1C47.23,62,47.23,62.11,46.73,60.64Z"/><path class="cls-4" d="M53.71,51.66c.08-.17.35-.25.53-.32a3,3,0,0,1,.94-.1,1.55,1.55,0,0,1,1.2.42c.08.18.2.18.45,0a5.57,5.57,0,0,1,2.93-.25A4.26,4.26,0,0,1,63.83,56a3.82,3.82,0,0,1-1.2,3.2,5.3,5.3,0,0,1-2.6,1.3c-.35.08-.52.28-.35.35a4.37,4.37,0,0,1,.43.85c.25.35.52.88.7,1.13s.25.52.25.6.1.17.1.17a.21.21,0,0,1,.17.18c.08.17.28.35.35.52s.25.28.25.35a.28.28,0,0,0,.08.18s.27.35.45.6c.42.6.5.67.85.6a1.61,1.61,0,0,1,1.92.62c.18.25.25.35.08.6a2.61,2.61,0,0,1-2.85,1.2c-.35-.07-.7-.17-.7-.25a2.43,2.43,0,0,1-.43-.17,5.3,5.3,0,0,1-2.17-2.25,5,5,0,0,1-.53-.78,23.83,23.83,0,0,1-1.9-3.82c-.07-.43-.07-.43-.07.17,0,.35-.1,1-.1,1.48a12.53,12.53,0,0,0-.18,1.9,11.24,11.24,0,0,1-.77,3.65,1.5,1.5,0,0,1-1.65.35c-.42-.18-.42-.25-.6-1.13s-.17-.7,0-7.55c.08-1.47.08-3.9.08-5.45C53.44,51.84,53.46,51.84,53.71,51.66Zm6.67,3.83c0-1.55-.45-2.43-1.22-2.78a2.42,2.42,0,0,0-1.55,0c-.18,0-.35.08-.53.08s-.17.1-.25,1.3v3c-.07,1.9-.1,1.87.78,1.8,1.3,0,1.82-.33,2.25-1.2A4.28,4.28,0,0,0,60.38,55.49Z"/><path class="cls-4" d="M69.19,51.84a17.06,17.06,0,0,0,3.89-.45,3,3,0,0,1,1.35-.15c.75,0,1,0,1.35.3.6.45.45.75-.3,2.55-.45.75-1.35,2.57-2,3.77s-1.65,3.6-2.4,5.25S69.79,66,69.79,66a20.5,20.5,0,0,1,2.25.15c3.44,0,4.79.63,4.49,1.68-.3.6-1,.9-2.1.75-.6,0-2.1-.15-3.44-.15-1.95-.15-2.58,0-2.88.15-.75.45-1.5.45-2-.3v-1A38.83,38.83,0,0,1,68.71,61c.3-.9.93-1.95,1.08-2.4s.75-1.67,1.34-2.72c.75-2,.75-2-.59-1.8a8.64,8.64,0,0,1-3.93-.45c-.3-.15-.45-.3-.3-.75C66.31,52.14,66.94,52,69.19,51.84Z"/><path class="cls-4" d="M77.81,51.81c.2-.1.35-.3.55-.3a2.31,2.31,0,0,1,2.08.3c.19.2.19.18,1.52.08a8.35,8.35,0,0,1,3.3,0c.75.27,1,1,.57,1.52s-1,.55-2.92.75c-1,.1-1.9.2-1.9.2a41.8,41.8,0,0,0-.2,5,4.63,4.63,0,0,0,.85-.1,5.88,5.88,0,0,1,2.85-.1c1,.48,1.22,1.33.27,1.9a7.94,7.94,0,0,1-2.92.48c-1.32.1-1.15-.2-1.42,2.45,0,.65-.08,1.6-.08,1.87-.1.58-.12.58.45.58a16.69,16.69,0,0,0,3.87-.58,4.51,4.51,0,0,1,2-.07,1.28,1.28,0,0,1,.93,1,.8.8,0,0,1-.65.85,2,2,0,0,0-.48.28,17.63,17.63,0,0,0-2,.47,28.63,28.63,0,0,1-4.25.3,1.57,1.57,0,0,0-1.05.08,1,1,0,0,1-1.12-.08c-.65-.37-.75-.47-.75-3.77,0-1.6.1-3.5.1-4.35s.17-3.1.17-5C77.61,52,77.61,52,77.81,51.81Z"/><path class="cls-4" d="M89.54,52.11c.17-.17.35-.45.52-.52a1.19,1.19,0,0,1,1.63.25c.07.17.17.35.17.35a.35.35,0,0,0,.45.1c.43-.42,2.85-.42,4-.18a2.65,2.65,0,0,0,.88.25,9.2,9.2,0,0,1,1.12.6.35.35,0,0,0,.25.1,10.86,10.86,0,0,1,1.65,1.73,10.28,10.28,0,0,1,1.2,8.15A5.93,5.93,0,0,1,100,65.86a10.64,10.64,0,0,1-1.3,1.3,10.41,10.41,0,0,1-3.48,1.58c-.42.07-3,.17-4.15.25a3.61,3.61,0,0,1-.84-.18c-1.38-.77-1.65-.87-1.58-1.3,0-.25.28-.5.7-.5.25,0,.25,0,.25-2.7,0-1.47-.1-4.05-.17-5.7s-.15-3.65-.08-4.52C89.36,52.71,89.36,52.54,89.54,52.11Zm7.22,2.45a3.43,3.43,0,0,0-1.8-.82,2.62,2.62,0,0,0-1.8.17c-.87.35-1,.28-.87,1.15A92.5,92.5,0,0,1,93,65.61c0,1.65,0,1.63.34,1.55a5.28,5.28,0,0,0,2.08-.5A3.66,3.66,0,0,0,97.06,65c.35-.65.62-1.55.7-1.63s.1-.27.35-1.47a18.67,18.67,0,0,0-.1-4.33,5.09,5.09,0,0,0-.43-1.72A2.57,2.57,0,0,0,96.76,54.56Z"/><path class="cls-4" d="M105.54,51.84a17.06,17.06,0,0,0,3.89-.45,3,3,0,0,1,1.35-.15c.75,0,1,0,1.35.3.6.45.45.75-.3,2.55-.45.75-1.35,2.57-2,3.77s-1.65,3.6-2.4,5.25S106.13,66,106.13,66a20.37,20.37,0,0,1,2.25.15c3.45,0,4.8.63,4.5,1.68-.3.6-1,.9-2.1.75-.6,0-2.1-.15-3.45-.15-2-.15-2.57,0-2.87.15-.75.45-1.5.45-1.95-.3v-1A38.83,38.83,0,0,1,105.06,61c.3-.9.93-1.95,1.07-2.4.3-.45.75-1.67,1.35-2.72.75-2,.75-2-.6-1.8a8.61,8.61,0,0,1-3.92-.45c-.3-.15-.45-.3-.3-.75C102.66,52.14,103.29,52,105.54,51.84Z"/><path class="cls-4" d="M114.49,51.84a.92.92,0,0,1,.57-.35,3,3,0,0,1,1.77,0,2.13,2.13,0,0,1,.83,1.42c0,.7-.13,5.18-.35,8.7-.35,6.13-.5,6.8-1.55,7.15a1.14,1.14,0,0,1-1.4-.35c-.35-.35-.35-.35-.22-7.27.12-3.88.1-7.53.1-8.13C114.11,52.19,114.26,52.06,114.49,51.84Z"/><path class="cls-4" d="M124.66,51.91c.1-.2.4-.37.5-.47.5-.2.57-.2,1,0a1.88,1.88,0,0,1,1.1,1.07c.2.6,1,2.88,1,3a1.69,1.69,0,0,0,.2.5,9.44,9.44,0,0,1,.3.9,3.86,3.86,0,0,1,.18.77,3.18,3.18,0,0,1,.4,1.1c.9,3,.8,2.88,1.4,3a1.68,1.68,0,0,1,1.17.8c.2.2.2.3,0,.6a1.07,1.07,0,0,1-.47.47l-.4.2c-.1,0,.6,2.1.7,2.6.1.1.17.48.37.78.3.8.3.8.1,1.1a1.48,1.48,0,0,1-.77.5,1.28,1.28,0,0,1-1.2,0c-.9-.3-1.18-.7-1.88-2.78a10.71,10.71,0,0,1-.5-1.6,5.82,5.82,0,0,0-1.9-.1c-2.07,0-1.77-.17-2.37,1.9a3.69,3.69,0,0,1-1,1.88,2.79,2.79,0,0,1-2.2.9c-.7,0-.87,0-1.17-.3-.8-.4-.7-1.1.1-1.4s.87-.6,1.67-3.28c.1-.6.4-1.47.5-1.87.6-2,1-3.58,1.58-5.65a3.14,3.14,0,0,1,.4-1.2,2.07,2.07,0,0,1,.2-.6A10.41,10.41,0,0,1,124.66,51.91Zm2,8.73c-.1-.6-.4-1.28-.5-1.68a8.14,8.14,0,0,1-.2-.9c-.1-.3-.07-.3-.17,0-.2.7-.7,2.68-.8,3.38a1.72,1.72,0,0,0-.2.8,7.41,7.41,0,0,0,2-.1C127.13,62,127.13,62.11,126.63,60.64Z"/><path class="cls-4" d="M85.19,67.5c-1-.16-3,1.13-3,4s4.52,2.2,5.11,1.37-3.68-.3-2.67-2.08C87.7,65.46,86.94,67.8,85.19,67.5Z"/><path class="cls-4" d="M110.19,19.87a3,3,0,0,0-2.83,2.81c0,2.91.48,3.6,1.24,2.92.45-.4.14-.57,1.06-2.4C110.85,20.83,111.94,20.17,110.19,19.87Z"/><path class="cls-4" d="M123.32,19.87a3,3,0,0,0-2.83,2.81c0,2.91.48,3.6,1.24,2.92.45-.4.14-.57,1.06-2.4C124,20.83,125.07,20.17,123.32,19.87Z"/></svg>