<svg id="Layer_1" data-name="Layer 1" xmlns="http://www.w3.org/2000/svg" viewBox="0 0 130 116"><defs><style>.cls-1{opacity:0.3;}.cls-2{fill:#e6e6e6;}.cls-3{fill:#ccc;}.cls-4{fill:#1085c6;}.cls-5{fill:#fff;}.cls-6,.cls-7{fill:#f2f2f2;}.cls-7,.cls-8{opacity:0.2;}.cls-8,.cls-9{fill:#4d4d4d;}.cls-9{opacity:0.5;}</style></defs><title>kolorowanka_Artboard 33</title><polygon class="cls-1" points="30.15 59.68 25.03 71.93 86.84 100.8 95.02 85.17 31.21 59.26 30.15 59.68"/><path class="cls-2" d="M39.73,33.64s.86-8.77,1.92-9.07,7-3.08,7-3.08l.74,3.2L45.19,33.2Z"/><path class="cls-2" d="M84.05,93.21l21.38-38.08a1.37,1.37,0,0,0-.66-1.82L43.83,24.6a2.63,2.63,0,0,0-3.51,1.26L21.81,65.14a1.6,1.6,0,0,0,.76,2.12l61.9,29.15C84.16,95,83.72,93.9,84.05,93.21Z"/><path class="cls-2" d="M49.16,22H93a1.37,1.37,0,0,1,1.37,1.37V92.05A1.37,1.37,0,0,1,93,93.43H48.07a1.37,1.37,0,0,1-1.37-1.37V24.51A2.46,2.46,0,0,1,49.16,22Z" transform="translate(-11.77 96.93) rotate(-64.78)"/><path class="cls-3" d="M62.21,81.37c-3.69-1.74-26.79-12.54-29.6-13.52s-9.55-1-6.89.2S59.17,83.81,59.17,83.81Z"/><polygon class="cls-4" points="55.84 82.92 61.34 79.75 81.65 36.65 112.96 51.4 93.24 93.26 84.47 96.41 59.98 84.88 55.84 82.92"/><path class="cls-5" d="M25.67,58.13c-.63,1.45-2.52,5.31-1.86,5.15s11.07-16.6,13.43-21.22S43,25.64,42.09,25.71s-16.27,32.1-16.27,32.1Z"/><polygon class="cls-6" points="64.05 81.03 58.54 84.2 62.03 85.84 67.54 82.67 87.84 39.56 84.35 37.92 64.05 81.03"/><polygon class="cls-6" points="70.25 83.95 64.74 87.12 68.23 88.76 73.73 85.59 94.04 42.48 90.55 40.84 70.25 83.95"/><polygon class="cls-7" points="93.24 93.26 112.96 51.4 81.65 36.65 61.34 79.75 91.41 93.91 93.24 93.26"/><polygon class="cls-8" points="55.84 82.92 61.34 79.75 91.41 93.91 84.47 96.41 55.84 82.92"/><path class="cls-5" d="M79.45,41.31S58.4,29,52.45,30.9,43,37.84,40.88,43.1,35,55.62,36.09,61s26,16.59,26,16.59Z"/><polygon class="cls-9" points="81.65 36.65 59.15 78.72 55.12 82.59 55.84 82.92 61.34 79.75 81.65 36.65"/></svg>