<svg id="Layer_1" data-name="Layer 1" xmlns="http://www.w3.org/2000/svg" viewBox="0 0 136 138"><defs><style>.cls-1{opacity:0.3;}.cls-2{fill:#f48f00;}.cls-3{fill:#d17e00;}.cls-4{fill:#f4c264;}.cls-5{fill:#00920c;}.cls-6{fill:#c07200;}.cls-7{opacity:0.11;}.cls-8{fill:#ffe0b8;opacity:0.5;}</style></defs><title>kolorowanka_Artboard 28</title><path class="cls-1" d="M124.28,121.71a2.85,2.85,0,0,0,.12-4L79.54,69.87,34.09,21.45h0L34,21.3h0l-.09-.06-.18-.13-.06-.05s-.09,0-.14-.07l-.12-.06-.3-.1-.06,0a2.45,2.45,0,0,0-.38,0h-.1a1.37,1.37,0,0,0-.28,0l-.13,0-.24.06-.13.05a1.34,1.34,0,0,0-.24.12l-.11.06a3,3,0,0,0-.3.23h0l-4.93-2.76-10.9-6.11a3.41,3.41,0,0,0-4.74,4.46l7.85,16.35h0a2.17,2.17,0,0,0-.24.29,1,1,0,0,0-.08.11,1.55,1.55,0,0,0-.12.22l-.06.13a2.25,2.25,0,0,0-.08.24l0,.13a2.51,2.51,0,0,0,0,.27v.11a1.53,1.53,0,0,0,0,.37.24.24,0,0,0,0,.08c0,.09,0,.19.07.29l.06.13a.84.84,0,0,0,.06.14l0,.06a2.12,2.12,0,0,0,.12.2.56.56,0,0,1,.05.08h0l.13.14h0l90.81,96.76a2.13,2.13,0,0,0,3,.09l5.54-5.2h0ZM18.13,36.16h0a1.71,1.71,0,0,0,.11.14A.76.76,0,0,1,18.13,36.16Z"/><path class="cls-2" d="M11.56,13.32l8.91,18.56a3.41,3.41,0,0,0,5.41,1l4.52-4.25,4.53-4.24a3.42,3.42,0,0,0-.67-5.47L16.31,8.87A3.41,3.41,0,0,0,11.56,13.32Z"/><rect class="cls-2" x="61.78" y="5.16" width="21.72" height="136.96" rx="2.13" transform="translate(-30.72 69.65) rotate(-43.18)"/><path class="cls-3" d="M25.9,25.48,35,17.69l90.91,96.85a2.21,2.21,0,0,1-.09,3.11l-7.14,6.69Z"/><path class="cls-4" d="M41.52,24.62l78,83.1a2.12,2.12,0,0,1-.1,3l-12.73,12a2.13,2.13,0,0,1-3-.1l-78-83.1a63.67,63.67,0,0,0,8.49-6.83A65.56,65.56,0,0,0,41.52,24.62Z"/><path class="cls-3" d="M47.39,30.88l2.18,2.32a63.31,63.31,0,0,1-7.35,8,64.3,64.3,0,0,1-8.48,6.82l-2.18-2.32A56.13,56.13,0,0,0,37,41.67c1-.86,2-1.78,3.08-2.75s2-2,2.94-2.91A54.28,54.28,0,0,0,47.39,30.88Z"/><path class="cls-3" d="M52.35,36.16l4.36,4.64a64.85,64.85,0,0,1-7.35,8,65.32,65.32,0,0,1-8.49,6.83L36.51,51A56.15,56.15,0,0,0,41.92,47c1-.86,2-1.78,3.08-2.75s2-2,2.94-2.91A55.79,55.79,0,0,0,52.35,36.16Z"/><path class="cls-5" d="M19.19,32.55h0l.12.15-.13-.15Z"/><path class="cls-3" d="M32.64,18,22,12a4.18,4.18,0,0,0-1.9,1c-2.45,2.3,5,12.61,5.72,13.38s3.82-4.37,7-7.37Z"/><path class="cls-5" d="M35,17.69l.13.14L35,17.7h0Z"/><path class="cls-6" d="M35,17.7h0a54.28,54.28,0,0,1-4.41,5.13c-.91,1-1.9,1.92-2.94,2.9s-2.07,1.89-3.08,2.75a54.89,54.89,0,0,1-5.39,4.07h0A1.86,1.86,0,0,1,19,32.2a2.13,2.13,0,0,1,.44-2.52h0c1.14-.83,2.36-1.78,3.61-2.84,1-.86,2-1.78,3.09-2.75s2-1.95,2.94-2.9c1.13-1.19,2.16-2.34,3.06-3.43h0a2.11,2.11,0,0,1,2.54-.28A1.55,1.55,0,0,1,35,17.7Z"/><ellipse class="cls-3" cx="76.92" cy="78.2" rx="5.55" ry="33" transform="translate(-32.69 73.82) rotate(-43.18)"/><path class="cls-7" d="M34.17,32.65l-.82.76,78.88,84.06,7.18-6.74a2.12,2.12,0,0,0,.1-3l-78-83.1A65.56,65.56,0,0,1,34.17,32.65Z"/><ellipse class="cls-8" cx="48.91" cy="57.22" rx="2.04" ry="32.32" transform="translate(-25.91 48.97) rotate(-43.18)"/><path class="cls-8" d="M17.24,21.57c.29-.27-2.89-6.15-3.66-9.92-.26-1.29.33-1.67-.06-1.7s-2,.11-1.42,2.05C12.85,14.41,16.66,22.11,17.24,21.57Z"/></svg>