<svg id="Layer_1" data-name="Layer 1" xmlns="http://www.w3.org/2000/svg" viewBox="0 0 143 152"><defs><style>.cls-1{opacity:0.3;}.cls-2{fill:#00fffc;}.cls-3{fill:#00e2ea;}.cls-4{fill:#a1fffc;}.cls-5{fill:#00920c;}.cls-6{fill:#00c9e3;}.cls-7{opacity:0.11;}.cls-8{fill:#e5ffff;}.cls-8,.cls-9{opacity:0.5;}.cls-9{fill:#efffff;}</style></defs><title>kolorowanka_Artboard 26</title><path class="cls-1" d="M129.82,129.77a2.1,2.1,0,0,0,.1-3L84.54,78.44,39.09,30h0L39,29.88h0l-.09-.06-.18-.13-.06-.05-.14-.06-.12-.06a1.18,1.18,0,0,0-.3-.1l-.06,0a1.65,1.65,0,0,0-.38,0h-.1l-.28,0-.13,0-.24.07-.13,0-.24.12-.11.06a3,3,0,0,0-.3.23h0l-4.93-2.77-10.9-6.1a3.41,3.41,0,0,0-4.74,4.45l7.85,16.36h0l0,0a1.61,1.61,0,0,0-.24.28l-.08.11a1.67,1.67,0,0,0-.12.23l-.06.13a1.55,1.55,0,0,0-.08.23l0,.13a2.51,2.51,0,0,0,0,.27v.11a1.51,1.51,0,0,0,0,.37.24.24,0,0,0,0,.08c0,.1,0,.19.07.29l.06.14a.75.75,0,0,0,.06.13l0,.06a1.32,1.32,0,0,0,.12.2.56.56,0,0,0,.05.08h0l.13.14h0l90.81,96.76a2.14,2.14,0,0,0,3,.1l5.54-5.21h0Zm-106.69-85h0a1.71,1.71,0,0,0,.11.14Z"/><path class="cls-2" d="M16.56,21.89l8.91,18.56a3.41,3.41,0,0,0,5.41,1l4.52-4.24L39.93,33a3.41,3.41,0,0,0-.67-5.46L21.31,17.44A3.41,3.41,0,0,0,16.56,21.89Z"/><rect class="cls-2" x="66.78" y="13.74" width="21.72" height="136.96" rx="2.13" transform="translate(-35.24 75.4) rotate(-43.18)"/><path class="cls-3" d="M30.9,34.06,40,26.26l90.84,96.79a2.3,2.3,0,0,1-.1,3.25l-7.06,6.63Z"/><path class="cls-4" d="M46.52,33.19l78,83.1a2.12,2.12,0,0,1-.1,3l-12.73,12a2.12,2.12,0,0,1-3-.1l-78-83.1a64.32,64.32,0,0,0,8.49-6.82A65.57,65.57,0,0,0,46.52,33.19Z"/><path class="cls-3" d="M52.39,39.45l2.18,2.32a63.31,63.31,0,0,1-7.35,8,65.3,65.3,0,0,1-8.48,6.83l-2.18-2.33A54.52,54.52,0,0,0,42,50.24c1-.85,2-1.78,3.08-2.75s2-2,2.94-2.9A54.29,54.29,0,0,0,52.39,39.45Z"/><path class="cls-3" d="M57.35,44.73l4.36,4.64a64.85,64.85,0,0,1-7.35,8,64.48,64.48,0,0,1-8.49,6.83l-4.36-4.65a54.54,54.54,0,0,0,5.41-4.07c1-.86,2-1.78,3.08-2.75s2-2,2.94-2.9A55.8,55.8,0,0,0,57.35,44.73Z"/><path class="cls-5" d="M24.19,41.12h0l.12.15-.13-.14Z"/><path class="cls-3" d="M37.64,26.6,27,20.6a4.3,4.3,0,0,0-1.9,1c-2.45,2.29,5,12.6,5.72,13.37s3.82-4.36,7-7.37Z"/><path class="cls-5" d="M40,26.26l.13.14L40,26.27h0Z"/><path class="cls-6" d="M40,26.27h0A54.28,54.28,0,0,1,35.6,31.4c-.91,1-1.9,1.93-2.94,2.9s-2.07,1.9-3.08,2.75a53.35,53.35,0,0,1-5.39,4.07h0a1.79,1.79,0,0,1-.22-.34,2.13,2.13,0,0,1,.44-2.52v0c1.14-.82,2.36-1.78,3.61-2.84,1-.85,2-1.77,3.09-2.75s2-1.95,2.94-2.9c1.13-1.18,2.16-2.34,3.06-3.43h0A2.12,2.12,0,0,1,39.68,26,2,2,0,0,1,40,26.27Z"/><ellipse class="cls-3" cx="81.92" cy="86.78" rx="5.55" ry="33" transform="translate(-37.2 79.56) rotate(-43.18)"/><path class="cls-7" d="M39.17,41.23l-.82.76L117.23,126l7.18-6.74a2.12,2.12,0,0,0,.1-3l-78-83.1A65.57,65.57,0,0,1,39.17,41.23Z"/><ellipse class="cls-8" cx="53.91" cy="65.79" rx="2.04" ry="32.32" transform="translate(-30.42 54.71) rotate(-43.18)"/><path class="cls-9" d="M22.24,30.15c.29-.28-2.89-6.16-3.66-9.93-.26-1.28.33-1.66-.06-1.7s-2,.12-1.42,2.05C17.85,23,21.66,30.69,22.24,30.15Z"/></svg>