<svg id="Layer_1" data-name="Layer 1" xmlns="http://www.w3.org/2000/svg" viewBox="0 0 131 55"><defs><style>.cls-1{opacity:0.3;}.cls-2{fill:#0071bc;}.cls-3{fill:#006dff;}.cls-4{fill:#fff;}</style></defs><title>kolorowanka_Artboard 17</title><g class="cls-1"><path d="M65.88,44.13a8.05,8.05,0,0,1-4.37-1.3c-4-2.46-4-6.29-4-9.68,0-1,0-2.11.07-3,0-.53,0-1,0-1.3a7.37,7.37,0,0,1,.05-.82c0-.4.13-2.19.13-4.18,0-4.57,0-6.47,2.23-8.71a7.36,7.36,0,0,1,1.19-1,7.68,7.68,0,0,1,2.66-1.21,9.3,9.3,0,0,1,5.33.14,12.19,12.19,0,0,1,5.79.52,8.15,8.15,0,0,1,5.07,5.82,7.72,7.72,0,0,1-1.1,6,7.55,7.55,0,0,1,.61,2.59,8.19,8.19,0,0,1-.06,1.57A8,8,0,0,1,81.8,35a7.8,7.8,0,0,1-4.65,7.2,7.14,7.14,0,0,1-2.37.84l-.15,0-1.24.32-.25.06a34.17,34.17,0,0,1-5.42.45A8.18,8.18,0,0,1,65.88,44.13Zm7.8-1h0Zm.91-2.63-.22.09Zm-3-5.59,1.1.19L72.53,35l-1-.14A.22.22,0,0,1,71.55,34.93Zm-.2,0,.2,0a.28.28,0,0,1,0-.09l-.21,0Zm-1.94-.33,1.85.32,0-.08-1.83-.28Zm1.5-.32ZM67.4,20.63Zm-5.52-6.87Zm0,0Z"/><path d="M120.59,29.51a7.45,7.45,0,0,0,.06-1.57,7.78,7.78,0,0,0-.6-2.59,7.76,7.76,0,0,0,1.09-6,8.13,8.13,0,0,0-5.07-5.82,12.14,12.14,0,0,0-5.78-.52,9.26,9.26,0,0,0-4.9-.23,10.49,10.49,0,0,0-4.51,0A10.21,10.21,0,0,0,98,12.45a10.74,10.74,0,0,0-3.37.42,9,9,0,0,1-1.88.18l-.46,0a14.37,14.37,0,0,0-5,1.14,7.2,7.2,0,0,0-1.42-.48,6.32,6.32,0,0,0-.85-.24,16.7,16.7,0,0,0-4.09-.35,8.2,8.2,0,0,0-7.17.61,8,8,0,0,0-2.15,1.84,6.94,6.94,0,0,0-1.31,2.06q-.12.29-.21.54a7.32,7.32,0,0,0-2.56-3.79,8.49,8.49,0,0,0-5.87-2,10.74,10.74,0,0,0-3.37.42,9,9,0,0,1-1.88.18l-.46,0a15.38,15.38,0,0,0-4.13.79A12.27,12.27,0,0,0,48,12.7a12.78,12.78,0,0,0-3.7-.06,9.33,9.33,0,0,0-1.9-.19,10.07,10.07,0,0,0-3,.4c-.22.06-.42.14-.63.22a8,8,0,0,0-1.43.72A7.74,7.74,0,0,0,36,13.12a7.64,7.64,0,0,0-6.1,0,6.32,6.32,0,0,0-1.1.56,10.57,10.57,0,0,0-2.3-.85,8.37,8.37,0,0,0-4-.07,5.75,5.75,0,0,0-.84.22,10.52,10.52,0,0,0-1.19.47l-.46-.21a9.49,9.49,0,0,0-7.92.21l-.36.18a7,7,0,0,0-3.88,6.08v.11c0,.6-.1,2.41-.1,4.5,0,2.55-.08,4.89-.14,5.52l0,.37c-.25,6.34.4,8,.68,8.66a2.44,2.44,0,0,0,.1.24,8.16,8.16,0,0,0,10.79,4.21,7.32,7.32,0,0,0,.69-.33,7.29,7.29,0,0,0,1.55.65,7.32,7.32,0,0,0,4.13.32,9.72,9.72,0,0,0,2.23.21,9.76,9.76,0,0,0,5.47-1.58,9.66,9.66,0,0,0,2.14,1,7.92,7.92,0,0,0,4.75.25,7.82,7.82,0,0,0,1.67.17,8.54,8.54,0,0,0,4.41-1.22,9.76,9.76,0,0,0,2.06.68l.55.09a10.64,10.64,0,0,0,2.93,0,7.17,7.17,0,0,0,1.79.41,6.85,6.85,0,0,0,.91,0,8.67,8.67,0,0,0,2.87-.5l.41,0,.54,0c.59,0,1.34,0,1.93.08l1,0a9.84,9.84,0,0,0,1.8,0,8.93,8.93,0,0,0,5.48,4.8,11.18,11.18,0,0,0,3.38.5c3.07,0,6.33-1.14,8.12-3.65a7.57,7.57,0,0,0,.73-1.3,25.39,25.39,0,0,0,3-.24l.21,0a14.76,14.76,0,0,0,2.74-.88A7.8,7.8,0,0,0,89.79,44a6.85,6.85,0,0,0,.91,0,8.67,8.67,0,0,0,2.87-.5l.41,0,.54,0c.59,0,1.34,0,1.93.08l1,0a9.44,9.44,0,0,0,2.44-.07,7.9,7.9,0,0,0,2.55.44,7.77,7.77,0,0,0,2.18-.32,8,8,0,0,0,2.32.35,8.09,8.09,0,0,0,1.83-.21,34.08,34.08,0,0,0,5.42-.45l.26-.06,1.24-.32.14,0a7.07,7.07,0,0,0,2.37-.84,7.8,7.8,0,0,0,4.65-7.2A8,8,0,0,0,120.59,29.51ZM76.19,14.33a8.87,8.87,0,0,0-1,.65h0A8,8,0,0,1,76.19,14.33ZM67.05,29.06l.16-.31c.39-.79,1.21-2.42,1.47-2.85a7.69,7.69,0,0,0,.45-.91l.07-.16c.09-.22.2-.49.32-.81,0,.83,0,1.84.11,3.12,0,.64.06,1.34.08,2a8.67,8.67,0,0,0-1.67.63,7.5,7.5,0,0,0-1-.74ZM68.84,40.8a8.61,8.61,0,0,0,1-1.35,9.64,9.64,0,0,0,3.36,3.17A6.93,6.93,0,0,1,68.84,40.8Zm42.31-6.12v0l1.16.17v.08Zm1.27.21v-.08l.2,0s0,.06,0,.09Zm.2,0v-.08l1,.14.12.13Z"/></g><path class="cls-2" d="M118.51,28.85a7.12,7.12,0,0,0,.15-1.85,6.81,6.81,0,0,0-.77-2.75,6.75,6.75,0,0,0,1.27-5.63,7.12,7.12,0,0,0-4.45-5.11,11.73,11.73,0,0,0-5.57-.43,8.42,8.42,0,0,0-4.77-.22,9.39,9.39,0,0,0-4.5,0,9.12,9.12,0,0,0-2.9-.39,9.72,9.72,0,0,0-3.13.39,10,10,0,0,1-2.12.21h-.39a12.71,12.71,0,0,0-5.08,1.26l-.32-.16a5.6,5.6,0,0,0-1.38-.46,5,5,0,0,0-.78-.23,15.67,15.67,0,0,0-4-.31,7.16,7.16,0,0,0-6.23.31,11.76,11.76,0,0,0-5.44-.39,8.32,8.32,0,0,0-4.61-.25,9,9,0,0,0-2.84-.38,9.72,9.72,0,0,0-3.13.39,10,10,0,0,1-2.12.21H55a13.82,13.82,0,0,0-4.24.88,11.66,11.66,0,0,0-3.91-1.25,11.46,11.46,0,0,0-3.6,0,8.2,8.2,0,0,0-1.86-.21,9.23,9.23,0,0,0-2.68.35c-.18.06-.36.12-.54.2a7,7,0,0,0-1.79,1,7.2,7.2,0,0,0-1.77-.95,6.71,6.71,0,0,0-5.36,0,5.72,5.72,0,0,0-1.42.82,8.74,8.74,0,0,0-2.59-1.07,7.47,7.47,0,0,0-3.6-.06,4.79,4.79,0,0,0-.72.19,9.39,9.39,0,0,0-1.51.64,8,8,0,0,0-.83-.4,8.45,8.45,0,0,0-7.09.17l-.37.18a6,6,0,0,0-3.32,5.22v.12c0,.59-.1,2.39-.1,4.46,0,2.37-.08,4.86-.15,5.61,0,.11,0,.21,0,.32-.25,6.12.37,7.67.6,8.25l.09.21a7.18,7.18,0,0,0,9.49,3.68,6.56,6.56,0,0,0,1.09-.56,6.26,6.26,0,0,0,1.88.86,6.62,6.62,0,0,0,2.3.42A6.39,6.39,0,0,0,24.44,42a8.84,8.84,0,0,0,2.23.24,8.76,8.76,0,0,0,5.47-1.81,8.17,8.17,0,0,0,2.46,1.3,7,7,0,0,0,4.38.16,7.26,7.26,0,0,0,1.73.22A7.53,7.53,0,0,0,45,40.71l.13,0a4.1,4.1,0,0,0,.4.18,8.45,8.45,0,0,0,1.82.6l.47.08a9.82,9.82,0,0,0,2.92-.06,7,7,0,0,0,1.78.45,7,7,0,0,0,.79,0,7.58,7.58,0,0,0,2.72-.51l.65,0,.46,0c.63,0,1.38,0,2,.08l1,.06a9.36,9.36,0,0,0,2.25-.07l.16.06a7.92,7.92,0,0,0,5.11,4.85,10.37,10.37,0,0,0,3.1.46c2.77,0,5.68-1,7.27-3.24a6.1,6.1,0,0,0,.85-1.69h.31a26.86,26.86,0,0,0,3.23-.25l.18,0a14.39,14.39,0,0,0,3-1,6.89,6.89,0,0,0,4,1.26,7.58,7.58,0,0,0,2.72-.51l.65,0,.46,0c.63,0,1.38,0,2,.08l1,.06a9.34,9.34,0,0,0,2.49-.1,6.87,6.87,0,0,0,4.64.09,6.9,6.9,0,0,0,2.29.4,7,7,0,0,0,1.7-.21,32.28,32.28,0,0,0,5.35-.43l.22-.05,1.23-.31.19-.05a6,6,0,0,0,2.13-.76,6.8,6.8,0,0,0,4.09-6.3A7.06,7.06,0,0,0,118.51,28.85ZM75.31,14.43h0l.51-.3Z"/><path class="cls-3" d="M13.77,18.93l.4-.2a2.45,2.45,0,0,1,2,0c.3.1.5.3.8.8.1.3.3.57.3.67s.18.4.38.7.2.67.3.67a17.05,17.05,0,0,0,.7,1.78.74.74,0,0,1,.07.4,2.36,2.36,0,0,1,.3.57c.1.3.4.78.5,1.08s.3.6.2.6l1.38,2.92c.4.78.37.78.47.1.1-1,.2-8.32.2-9.09-.1-.6-.1-.7.2-.9a2.81,2.81,0,0,1,.78-.38,1.6,1.6,0,0,1,1,0c.78.2.9.28,1.2.78s.18.5.18,2.85c0,1.27-.1,3.22-.1,4.29-.2,2.95-.48,6.48-.48,6.58s-.1.47-.2,1c-.2,1.28-.37,1.68-1,1.88a.75.75,0,0,1-.9,0c-.6-.1-.68-.3-1.95-2.65-1.08-2-2.45-4.93-3.33-6.88-.2-.5-.2-.5-.3.1,0,.3-.1,1-.1,1.58-.1,1.77-.4,5.2-.4,5.3s-.1.37-.2.87c-.2,1-.37,1.38-.87,1.58a1.21,1.21,0,0,1-1.68-.6,29.3,29.3,0,0,1-.17-5.78c.1-1.07.17-3.82.17-6.17S13.77,19,13.77,18.93Z"/><path class="cls-3" d="M31,19.13c.1-.2.4-.38.5-.48.5-.2.57-.2,1,0a1.91,1.91,0,0,1,1.1,1.07c.2.61,1,2.88,1,3a1.69,1.69,0,0,0,.2.5,9.44,9.44,0,0,1,.3.9,3.86,3.86,0,0,1,.18.77,3.18,3.18,0,0,1,.4,1.1c.9,3,.8,2.88,1.4,3a1.68,1.68,0,0,1,1.17.8c.2.2.2.3,0,.6a1.12,1.12,0,0,1-.47.47l-.41.2c-.09,0,.6,2.1.71,2.6.09.1.17.48.37.78.3.8.3.8.1,1.1a1.52,1.52,0,0,1-.77.5,1.27,1.27,0,0,1-1.2,0c-.9-.3-1.18-.7-1.88-2.78a10.71,10.71,0,0,1-.5-1.6,5.82,5.82,0,0,0-1.9-.1c-2.07,0-1.77-.17-2.37,1.9a3.69,3.69,0,0,1-1,1.88,2.79,2.79,0,0,1-2.2.9c-.7,0-.87,0-1.17-.3-.8-.4-.7-1.1.1-1.4s.87-.6,1.67-3.28c.1-.6.4-1.47.5-1.87.6-2,1-3.58,1.58-5.65a3.14,3.14,0,0,1,.4-1.2,2.07,2.07,0,0,1,.2-.6A10.31,10.31,0,0,1,31,19.13Zm2,8.72c-.1-.6-.4-1.28-.5-1.68a8.14,8.14,0,0,1-.2-.9c-.1-.3-.07-.3-.17,0-.2.7-.7,2.68-.8,3.38a1.72,1.72,0,0,0-.2.8,7.41,7.41,0,0,0,2-.1C33.42,29.25,33.42,29.32,32.92,27.85Z"/><path class="cls-3" d="M39.9,18.88c.07-.18.35-.25.52-.33a3.44,3.44,0,0,1,.95-.1,1.57,1.57,0,0,1,1.2.43c.08.17.2.17.45,0A5.47,5.47,0,0,1,46,18.63,4.25,4.25,0,0,1,50,23.22a3.82,3.82,0,0,1-1.2,3.2,5.3,5.3,0,0,1-2.6,1.3c-.35.08-.52.28-.35.35a4.37,4.37,0,0,1,.43.85c.25.35.52.88.7,1.13s.25.52.25.6.1.17.1.17a.21.21,0,0,1,.17.18c.08.17.28.35.35.52s.25.28.25.35a.28.28,0,0,0,.08.18l.45.6c.42.6.5.67.85.6a1.61,1.61,0,0,1,1.92.62c.17.25.25.35.08.6a2.6,2.6,0,0,1-2.85,1.2c-.35-.07-.7-.17-.7-.25a2.43,2.43,0,0,1-.43-.17A5.3,5.3,0,0,1,45.35,33a5,5,0,0,1-.53-.78,23.83,23.83,0,0,1-1.9-3.82c-.07-.43-.07-.43-.07.17,0,.35-.1,1.05-.1,1.48a12.53,12.53,0,0,0-.18,1.9,11.24,11.24,0,0,1-.77,3.65,1.5,1.5,0,0,1-1.65.35c-.43-.18-.43-.25-.6-1.13s-.18-.7,0-7.55c.07-1.47.07-3.89.07-5.45C39.62,19.05,39.65,19.05,39.9,18.88Zm6.67,3.82c0-1.55-.45-2.42-1.22-2.77a2.29,2.29,0,0,0-1.55,0c-.18,0-.35.07-.53.07s-.17.1-.25,1.3v3.05c-.07,1.9-.1,1.87.78,1.8,1.3,0,1.82-.33,2.25-1.2A4.28,4.28,0,0,0,46.57,22.7Z"/><path class="cls-3" d="M55.37,19.05a17.08,17.08,0,0,0,3.9-.45,3,3,0,0,1,1.35-.15c.75,0,1.05,0,1.35.3.6.45.45.75-.3,2.55-.45.75-1.35,2.58-2,3.77-.6,1.35-1.65,3.6-2.4,5.25S56,33.17,56,33.17a20.37,20.37,0,0,1,2.25.15c3.45,0,4.8.63,4.5,1.68-.3.6-1,.9-2.1.75-.6,0-2.1-.15-3.45-.15-2-.15-2.57,0-2.87.15-.75.45-1.5.45-1.95-.3V34.4a38.83,38.83,0,0,1,2.55-6.18c.3-.9.92-1.95,1.07-2.4.3-.45.75-1.67,1.35-2.72.75-2,.75-2-.6-1.8a8.59,8.59,0,0,1-3.92-.45c-.3-.15-.45-.3-.3-.75C52.5,19.35,53.12,19.2,55.37,19.05Z"/><path class="cls-3" d="M64,19c.2-.1.35-.3.55-.3a2.23,2.23,0,0,1,2.07.3c.2.2.2.17,1.53.07a8.35,8.35,0,0,1,3.3,0c.75.28,1,1,.57,1.53s-1,.54-2.92.75c-1,.09-1.9.19-1.9.19a41.8,41.8,0,0,0-.2,5,4.63,4.63,0,0,0,.85-.1,5.88,5.88,0,0,1,2.85-.1c1,.48,1.22,1.33.27,1.9a7.94,7.94,0,0,1-2.92.48c-1.33.1-1.15-.2-1.43,2.45,0,.65-.07,1.6-.07,1.87-.1.58-.13.58.45.58a16.69,16.69,0,0,0,3.87-.58,4.51,4.51,0,0,1,2-.07,1.28,1.28,0,0,1,.93,1,.8.8,0,0,1-.65.85,2,2,0,0,0-.48.28,17.63,17.63,0,0,0-2,.47,28.63,28.63,0,0,1-4.25.3,1.56,1.56,0,0,0-1,.08,1,1,0,0,1-1.13-.08c-.65-.37-.75-.47-.75-3.77,0-1.6.1-3.5.1-4.35s.18-3.1.18-5C63.8,19.2,63.8,19.23,64,19Z"/><path class="cls-3" d="M75.72,19.33c.18-.18.35-.45.53-.53a1.19,1.19,0,0,1,1.62.25c.08.18.18.35.18.35a.32.32,0,0,0,.45.1c.42-.42,2.85-.42,4-.17a2.93,2.93,0,0,0,.88.25,7.92,7.92,0,0,1,1.12.6.4.4,0,0,0,.25.1A10.69,10.69,0,0,1,86.37,22a9.19,9.19,0,0,1,1.48,4.15,9.24,9.24,0,0,1-.28,4,5.93,5.93,0,0,1-1.37,2.92,10.64,10.64,0,0,1-1.3,1.3A10.41,10.41,0,0,1,81.42,36c-.42.07-3,.17-4.15.25a3.23,3.23,0,0,1-.85-.18c-1.37-.77-1.65-.87-1.57-1.3,0-.25.27-.5.7-.5.25,0,.25,0,.25-2.7,0-1.47-.1-4.05-.18-5.7s-.15-3.65-.07-4.52C75.55,19.93,75.55,19.75,75.72,19.33ZM83,21.78a3.44,3.44,0,0,0-1.8-.83,2.69,2.69,0,0,0-1.8.18c-.88.34-.95.27-.88,1.15a89.92,89.92,0,0,1,.7,10.54c0,1.65,0,1.63.35,1.55a5.28,5.28,0,0,0,2.08-.5,3.66,3.66,0,0,0,1.65-1.67c.35-.65.62-1.55.7-1.63s.1-.27.35-1.47a18.67,18.67,0,0,0-.1-4.33,5.09,5.09,0,0,0-.43-1.72A2.58,2.58,0,0,0,83,21.78Z"/><path class="cls-3" d="M91.72,19.05a17.08,17.08,0,0,0,3.9-.45A3,3,0,0,1,97,18.45c.75,0,1,0,1.35.3.6.45.45.75-.3,2.55-.45.75-1.35,2.58-2,3.77-.6,1.35-1.65,3.6-2.4,5.25s-1.35,2.85-1.35,2.85a20.37,20.37,0,0,1,2.25.15c3.45,0,4.8.63,4.5,1.68-.3.6-1,.9-2.1.75-.6,0-2.1-.15-3.45-.15-2-.15-2.57,0-2.87.15-.75.45-1.5.45-2-.3V34.4a38.83,38.83,0,0,1,2.55-6.18c.3-.9.92-1.95,1.07-2.4.3-.45.75-1.67,1.35-2.72.75-2,.75-2-.6-1.8a8.59,8.59,0,0,1-3.92-.45c-.3-.15-.45-.3-.3-.75C88.85,19.35,89.47,19.2,91.72,19.05Z"/><path class="cls-3" d="M100.67,19.05c.13-.12.35-.35.58-.35a3.13,3.13,0,0,1,1.77,0,2.18,2.18,0,0,1,.83,1.43c0,.7-.13,5.17-.35,8.69C103.15,35,103,35.62,102,36a1.13,1.13,0,0,1-1.4-.35c-.35-.35-.35-.35-.23-7.27.13-3.88.1-7.52.1-8.13C100.3,19.4,100.45,19.28,100.67,19.05Z"/><path class="cls-3" d="M105.07,19c.2-.1.35-.3.55-.3a2.25,2.25,0,0,1,2.08.3c.2.2.2.17,1.52.07a8.34,8.34,0,0,1,3.3,0c.75.28,1,1,.58,1.53s-.95.54-2.93.75c-1,.09-1.9.19-1.9.19a41.8,41.8,0,0,0-.2,5,4.54,4.54,0,0,0,.85-.1,5.87,5.87,0,0,1,2.85-.1c1,.48,1.23,1.33.28,1.9a8,8,0,0,1-2.93.48c-1.32.1-1.15-.2-1.42,2.45,0,.65-.08,1.6-.08,1.87-.1.58-.12.58.45.58a16.78,16.78,0,0,0,3.88-.58,4.5,4.5,0,0,1,2-.07,1.28,1.28,0,0,1,.92,1,.79.79,0,0,1-.65.85,1.93,1.93,0,0,0-.47.28,17.4,17.4,0,0,0-2,.47,28.53,28.53,0,0,1-4.25.3,1.57,1.57,0,0,0-1,.08,1,1,0,0,1-1.12-.08c-.65-.37-.75-.47-.75-3.77,0-1.6.1-3.5.1-4.35s.17-3.1.17-5C104.87,19.2,104.87,19.23,105.07,19Z"/><path class="cls-4" d="M13.77,18.93l.4-.2a2.45,2.45,0,0,1,2,0c.3.1.5.3.8.8.1.3.3.57.3.67s.18.4.38.7.2.67.3.67a17.05,17.05,0,0,0,.7,1.78.74.74,0,0,1,.07.4,2.36,2.36,0,0,1,.3.57c.1.3.4.78.5,1.08s.3.6.2.6l1.38,2.92c.4.78.37.78.47.1.1-1,.2-8.32.2-9.09-.1-.6-.1-.7.2-.9a2.81,2.81,0,0,1,.78-.38,1.6,1.6,0,0,1,1,0c.78.2.9.28,1.2.78s.18.5.18,2.85c0,1.27-.1,3.22-.1,4.29-.2,2.95-.48,6.48-.48,6.58s-.1.47-.2,1c-.2,1.28-.37,1.68-1,1.88a.75.75,0,0,1-.9,0c-.6-.1-.68-.3-1.95-2.65-1.08-2-2.45-4.93-3.33-6.88-.2-.5-.2-.5-.3.1,0,.3-.1,1-.1,1.58-.1,1.77-.4,5.2-.4,5.3s-.1.37-.2.87c-.2,1-.37,1.38-.87,1.58a1.21,1.21,0,0,1-1.68-.6,29.3,29.3,0,0,1-.17-5.78c.1-1.07.17-3.82.17-6.17S13.77,19,13.77,18.93Z"/><path class="cls-4" d="M31,19.13c.1-.2.4-.38.5-.48.5-.2.57-.2,1,0a1.91,1.91,0,0,1,1.1,1.07c.2.61,1,2.88,1,3a1.69,1.69,0,0,0,.2.5,9.44,9.44,0,0,1,.3.9,3.86,3.86,0,0,1,.18.77,3.18,3.18,0,0,1,.4,1.1c.9,3,.8,2.88,1.4,3a1.68,1.68,0,0,1,1.17.8c.2.2.2.3,0,.6a1.12,1.12,0,0,1-.47.47l-.41.2c-.09,0,.6,2.1.71,2.6.09.1.17.48.37.78.3.8.3.8.1,1.1a1.52,1.52,0,0,1-.77.5,1.27,1.27,0,0,1-1.2,0c-.9-.3-1.18-.7-1.88-2.78a10.71,10.71,0,0,1-.5-1.6,5.82,5.82,0,0,0-1.9-.1c-2.07,0-1.77-.17-2.37,1.9a3.69,3.69,0,0,1-1,1.88,2.79,2.79,0,0,1-2.2.9c-.7,0-.87,0-1.17-.3-.8-.4-.7-1.1.1-1.4s.87-.6,1.67-3.28c.1-.6.4-1.47.5-1.87.6-2,1-3.58,1.58-5.65a3.14,3.14,0,0,1,.4-1.2,2.07,2.07,0,0,1,.2-.6A10.31,10.31,0,0,1,31,19.13Zm2,8.72c-.1-.6-.4-1.28-.5-1.68a8.14,8.14,0,0,1-.2-.9c-.1-.3-.07-.3-.17,0-.2.7-.7,2.68-.8,3.38a1.72,1.72,0,0,0-.2.8,7.41,7.41,0,0,0,2-.1C33.42,29.25,33.42,29.32,32.92,27.85Z"/><path class="cls-4" d="M39.9,18.88c.07-.18.35-.25.52-.33a3.44,3.44,0,0,1,.95-.1,1.57,1.57,0,0,1,1.2.43c.08.17.2.17.45,0A5.47,5.47,0,0,1,46,18.63,4.25,4.25,0,0,1,50,23.22a3.82,3.82,0,0,1-1.2,3.2,5.3,5.3,0,0,1-2.6,1.3c-.35.08-.52.28-.35.35a4.37,4.37,0,0,1,.43.85c.25.35.52.88.7,1.13s.25.52.25.6.1.17.1.17a.21.21,0,0,1,.17.18c.08.17.28.35.35.52s.25.28.25.35a.28.28,0,0,0,.08.18l.45.6c.42.6.5.67.85.6a1.61,1.61,0,0,1,1.92.62c.17.25.25.35.08.6a2.6,2.6,0,0,1-2.85,1.2c-.35-.07-.7-.17-.7-.25a2.43,2.43,0,0,1-.43-.17A5.3,5.3,0,0,1,45.35,33a5,5,0,0,1-.53-.78,23.83,23.83,0,0,1-1.9-3.82c-.07-.43-.07-.43-.07.17,0,.35-.1,1.05-.1,1.48a12.53,12.53,0,0,0-.18,1.9,11.24,11.24,0,0,1-.77,3.65,1.5,1.5,0,0,1-1.65.35c-.43-.18-.43-.25-.6-1.13s-.18-.7,0-7.55c.07-1.47.07-3.89.07-5.45C39.62,19.05,39.65,19.05,39.9,18.88Zm6.67,3.82c0-1.55-.45-2.42-1.22-2.77a2.29,2.29,0,0,0-1.55,0c-.18,0-.35.07-.53.07s-.17.1-.25,1.3v3.05c-.07,1.9-.1,1.87.78,1.8,1.3,0,1.82-.33,2.25-1.2A4.28,4.28,0,0,0,46.57,22.7Z"/><path class="cls-4" d="M55.37,19.05a17.08,17.08,0,0,0,3.9-.45,3,3,0,0,1,1.35-.15c.75,0,1.05,0,1.35.3.6.45.45.75-.3,2.55-.45.75-1.35,2.58-2,3.77-.6,1.35-1.65,3.6-2.4,5.25S56,33.17,56,33.17a20.37,20.37,0,0,1,2.25.15c3.45,0,4.8.63,4.5,1.68-.3.6-1,.9-2.1.75-.6,0-2.1-.15-3.45-.15-2-.15-2.57,0-2.87.15-.75.45-1.5.45-1.95-.3V34.4a38.83,38.83,0,0,1,2.55-6.18c.3-.9.92-1.95,1.07-2.4.3-.45.75-1.67,1.35-2.72.75-2,.75-2-.6-1.8a8.59,8.59,0,0,1-3.92-.45c-.3-.15-.45-.3-.3-.75C52.5,19.35,53.12,19.2,55.37,19.05Z"/><path class="cls-4" d="M64,19c.2-.1.35-.3.55-.3a2.23,2.23,0,0,1,2.07.3c.2.2.2.17,1.53.07a8.35,8.35,0,0,1,3.3,0c.75.28,1,1,.57,1.53s-1,.54-2.92.75c-1,.09-1.9.19-1.9.19a41.8,41.8,0,0,0-.2,5,4.63,4.63,0,0,0,.85-.1,5.88,5.88,0,0,1,2.85-.1c1,.48,1.22,1.33.27,1.9a7.94,7.94,0,0,1-2.92.48c-1.33.1-1.15-.2-1.43,2.45,0,.65-.07,1.6-.07,1.87-.1.58-.13.58.45.58a16.69,16.69,0,0,0,3.87-.58,4.51,4.51,0,0,1,2-.07,1.28,1.28,0,0,1,.93,1,.8.8,0,0,1-.65.85,2,2,0,0,0-.48.28,17.63,17.63,0,0,0-2,.47,28.63,28.63,0,0,1-4.25.3,1.56,1.56,0,0,0-1,.08,1,1,0,0,1-1.13-.08c-.65-.37-.75-.47-.75-3.77,0-1.6.1-3.5.1-4.35s.18-3.1.18-5C63.8,19.2,63.8,19.23,64,19Z"/><path class="cls-4" d="M75.72,19.33c.18-.18.35-.45.53-.53a1.19,1.19,0,0,1,1.62.25c.08.18.18.35.18.35a.32.32,0,0,0,.45.1c.42-.42,2.85-.42,4-.17a2.93,2.93,0,0,0,.88.25,7.92,7.92,0,0,1,1.12.6.4.4,0,0,0,.25.1A10.69,10.69,0,0,1,86.37,22a9.19,9.19,0,0,1,1.48,4.15,9.24,9.24,0,0,1-.28,4,5.93,5.93,0,0,1-1.37,2.92,10.64,10.64,0,0,1-1.3,1.3A10.41,10.41,0,0,1,81.42,36c-.42.07-3,.17-4.15.25a3.23,3.23,0,0,1-.85-.18c-1.37-.77-1.65-.87-1.57-1.3,0-.25.27-.5.7-.5.25,0,.25,0,.25-2.7,0-1.47-.1-4.05-.18-5.7s-.15-3.65-.07-4.52C75.55,19.93,75.55,19.75,75.72,19.33ZM83,21.78a3.44,3.44,0,0,0-1.8-.83,2.69,2.69,0,0,0-1.8.18c-.88.34-.95.27-.88,1.15a89.92,89.92,0,0,1,.7,10.54c0,1.65,0,1.63.35,1.55a5.28,5.28,0,0,0,2.08-.5,3.66,3.66,0,0,0,1.65-1.67c.35-.65.62-1.55.7-1.63s.1-.27.35-1.47a18.67,18.67,0,0,0-.1-4.33,5.09,5.09,0,0,0-.43-1.72A2.58,2.58,0,0,0,83,21.78Z"/><path class="cls-4" d="M91.72,19.05a17.08,17.08,0,0,0,3.9-.45A3,3,0,0,1,97,18.45c.75,0,1,0,1.35.3.6.45.45.75-.3,2.55-.45.75-1.35,2.58-2,3.77-.6,1.35-1.65,3.6-2.4,5.25s-1.35,2.85-1.35,2.85a20.37,20.37,0,0,1,2.25.15c3.45,0,4.8.63,4.5,1.68-.3.6-1,.9-2.1.75-.6,0-2.1-.15-3.45-.15-2-.15-2.57,0-2.87.15-.75.45-1.5.45-2-.3V34.4a38.83,38.83,0,0,1,2.55-6.18c.3-.9.92-1.95,1.07-2.4.3-.45.75-1.67,1.35-2.72.75-2,.75-2-.6-1.8a8.59,8.59,0,0,1-3.92-.45c-.3-.15-.45-.3-.3-.75C88.85,19.35,89.47,19.2,91.72,19.05Z"/><path class="cls-4" d="M100.67,19.05c.13-.12.35-.35.58-.35a3.13,3.13,0,0,1,1.77,0,2.18,2.18,0,0,1,.83,1.43c0,.7-.13,5.17-.35,8.69C103.15,35,103,35.62,102,36a1.13,1.13,0,0,1-1.4-.35c-.35-.35-.35-.35-.23-7.27.13-3.88.1-7.52.1-8.13C100.3,19.4,100.45,19.28,100.67,19.05Z"/><path class="cls-4" d="M105.07,19c.2-.1.35-.3.55-.3a2.25,2.25,0,0,1,2.08.3c.2.2.2.17,1.52.07a8.34,8.34,0,0,1,3.3,0c.75.28,1,1,.58,1.53s-.95.54-2.93.75c-1,.09-1.9.19-1.9.19a41.8,41.8,0,0,0-.2,5,4.54,4.54,0,0,0,.85-.1,5.87,5.87,0,0,1,2.85-.1c1,.48,1.23,1.33.28,1.9a8,8,0,0,1-2.93.48c-1.32.1-1.15-.2-1.42,2.45,0,.65-.08,1.6-.08,1.87-.1.58-.12.58.45.58a16.78,16.78,0,0,0,3.88-.58,4.5,4.5,0,0,1,2-.07,1.28,1.28,0,0,1,.92,1,.79.79,0,0,1-.65.85,1.93,1.93,0,0,0-.47.28,17.4,17.4,0,0,0-2,.47,28.53,28.53,0,0,1-4.25.3,1.57,1.57,0,0,0-1,.08,1,1,0,0,1-1.12-.08c-.65-.37-.75-.47-.75-3.77,0-1.6.1-3.5.1-4.35s.17-3.1.17-5C104.87,19.2,104.87,19.23,105.07,19Z"/><path class="cls-4" d="M71.07,34.9c-1-.17-3,1.13-3,4s4.51,2.2,5.11,1.37-3.69-.3-2.68-2.08C73.58,32.86,72.81,35.2,71.07,34.9Z"/></svg>