<svg id="Layer_1" data-name="Layer 1" xmlns="http://www.w3.org/2000/svg" viewBox="0 0 147 147"><defs><style>.cls-1{opacity:0.3;}.cls-2{fill:#333;}.cls-3{fill:#1a1a1a;}.cls-4{fill:gray;}.cls-5{fill:#00920c;}.cls-6{opacity:0.11;}.cls-7{fill:#fff;opacity:0.2;}</style></defs><title>kolorowanka_Artboard 23</title><path class="cls-1" d="M129.73,129a2.24,2.24,0,0,0,.1-3.16L84.54,77.55,39.09,29.12h0L39,29h0l-.09-.06-.18-.14-.06,0a.61.61,0,0,0-.14-.07l-.12-.06-.3-.1-.06,0-.38-.05h-.38l-.13,0-.24.06-.13.05-.24.11a1.05,1.05,0,0,1-.11.07,2,2,0,0,0-.3.23h0l-4.93-2.76-10.9-6.11a3.41,3.41,0,0,0-4.74,4.45L23.35,41h0l0,0a2.09,2.09,0,0,0-.24.28l-.08.12a1.55,1.55,0,0,0-.12.22l-.06.13a2.25,2.25,0,0,0-.08.24l0,.13a2.51,2.51,0,0,0,0,.27v.1a1.59,1.59,0,0,0,0,.38.24.24,0,0,0,0,.08,2.86,2.86,0,0,0,.07.28l.06.14a.84.84,0,0,0,.06.14l0,.06a1.22,1.22,0,0,0,.12.19l.05.09h0l.13.14h0l90.81,96.76a2.13,2.13,0,0,0,3,.09l5.54-5.2h0ZM23.13,43.84h0a1.71,1.71,0,0,1,.11.14A1.34,1.34,0,0,1,23.13,43.84Z"/><path class="cls-2" d="M16.56,21l8.91,18.55a3.42,3.42,0,0,0,5.41,1l4.52-4.25,4.53-4.24a3.42,3.42,0,0,0-.67-5.47L21.31,16.55A3.41,3.41,0,0,0,16.56,21Z"/><rect class="cls-2" x="66.78" y="12.84" width="21.72" height="136.96" rx="2.13" transform="translate(-34.62 75.16) rotate(-43.18)"/><path class="cls-3" d="M30.9,33.16,40,25.37,131,122.28a2.12,2.12,0,0,1-.09,3l-7.2,6.75Z"/><path class="cls-4" d="M46.52,32.29l78,83.1a2.13,2.13,0,0,1-.1,3l-12.73,11.94a2.12,2.12,0,0,1-3-.09l-78-83.1a64.48,64.48,0,0,0,8.49-6.83A64.85,64.85,0,0,0,46.52,32.29Z"/><path class="cls-3" d="M52.39,38.55l2.18,2.33a64,64,0,0,1-7.35,8,64.3,64.3,0,0,1-8.48,6.82l-2.18-2.32A54.76,54.76,0,0,0,42,49.34c1-.85,2-1.77,3.08-2.75s2-2,2.94-2.9A53.06,53.06,0,0,0,52.39,38.55Z"/><path class="cls-3" d="M57.35,43.83l4.36,4.65a64.85,64.85,0,0,1-7.35,8,64.32,64.32,0,0,1-8.49,6.82L41.51,58.7a54.78,54.78,0,0,0,5.41-4.08c1-.85,2-1.77,3.08-2.75s2-1.95,2.94-2.9A54.51,54.51,0,0,0,57.35,43.83Z"/><path class="cls-5" d="M24.19,40.22h0l.12.14-.13-.14Z"/><path class="cls-3" d="M37.64,25.7,27,19.71a4.18,4.18,0,0,0-1.9,1C22.6,23,30,33.28,30.77,34.05s3.82-4.37,7-7.37Z"/><path class="cls-5" d="M40,25.37l.13.14L40,25.38h0Z"/><path d="M40,25.37h0A54.27,54.27,0,0,1,35.6,30.5c-.91,1-1.9,1.93-2.94,2.91s-2.07,1.89-3.08,2.75a56.53,56.53,0,0,1-5.39,4.07h0a1.52,1.52,0,0,1-.22-.34,2.13,2.13,0,0,1,.44-2.52h0c1.14-.83,2.36-1.78,3.61-2.84,1-.86,2-1.78,3.09-2.75s2-2,2.94-2.91c1.13-1.18,2.16-2.33,3.06-3.42l0,0a2.13,2.13,0,0,1,2.54-.28A2,2,0,0,1,40,25.37Z"/><ellipse class="cls-3" cx="81.92" cy="85.88" rx="5.55" ry="33" transform="translate(-36.59 79.32) rotate(-43.18)"/><path class="cls-6" d="M39.17,40.33l-.82.76,78.88,84.06,7.18-6.74a2.13,2.13,0,0,0,.1-3l-78-83.1A64.85,64.85,0,0,1,39.17,40.33Z"/><ellipse class="cls-7" cx="53.91" cy="64.89" rx="2.04" ry="32.32" transform="translate(-29.81 54.47) rotate(-43.18)"/><path class="cls-7" d="M22.24,29.25c.29-.27-2.89-6.15-3.66-9.92-.26-1.29.33-1.67-.06-1.71s-2,.12-1.42,2.06C17.85,22.09,21.66,29.79,22.24,29.25Z"/></svg>