<svg id="Layer_1" data-name="Layer 1" xmlns="http://www.w3.org/2000/svg" viewBox="0 0 136 146"><defs><style>.cls-1{opacity:0.3;}.cls-2{fill:#ff2205;}.cls-3{fill:#e22205;}.cls-4{fill:#ffbfa4;}.cls-5{fill:#c92205;}.cls-6{fill:#00920c;}.cls-7{opacity:0.11;}.cls-8{fill:#ffe5ef;opacity:0.5;}</style></defs><title>kolorowanka_Artboard 27</title><path class="cls-1" d="M124.29,124.84a2.83,2.83,0,0,0,.13-4L79.54,73,34.09,24.59h0L34,24.44h0l-.09-.06-.18-.13-.06-.05-.14-.06-.12-.07-.3-.1H33a1.65,1.65,0,0,0-.38,0h-.1l-.28,0-.13,0-.24.07-.13,0-.24.12-.11.06a3,3,0,0,0-.3.23h0l-4.93-2.77-10.9-6.11a3.41,3.41,0,0,0-4.74,4.46l7.85,16.35h0a2.17,2.17,0,0,0-.24.29,1,1,0,0,0-.08.11,2.39,2.39,0,0,0-.12.22l-.06.14a1.55,1.55,0,0,0-.08.23l0,.13a2.51,2.51,0,0,0,0,.27V38a1.53,1.53,0,0,0,0,.37.24.24,0,0,0,0,.08c0,.1,0,.19.07.29l.06.14a.75.75,0,0,0,.06.13L18,39a2.12,2.12,0,0,0,.12.2.56.56,0,0,0,.05.08h0l.13.14h0l90.81,96.76a2.14,2.14,0,0,0,3,.1l5.54-5.21h0ZM18.13,39.3h0a1.71,1.71,0,0,0,.11.14A.76.76,0,0,1,18.13,39.3Z"/><path class="cls-2" d="M11.56,16.46,20.47,35a3.41,3.41,0,0,0,5.41,1l4.52-4.24,4.53-4.25a3.41,3.41,0,0,0-.67-5.46L16.31,12A3.41,3.41,0,0,0,11.56,16.46Z"/><rect class="cls-2" x="61.78" y="8.3" width="21.72" height="136.96" rx="2.13" transform="translate(-32.87 70.51) rotate(-43.18)"/><path class="cls-3" d="M25.9,28.63,35,20.83,126,117.74a2.14,2.14,0,0,1-.1,3l-7.18,6.73Z"/><path class="cls-4" d="M41.52,27.76l78,83.1a2.12,2.12,0,0,1-.1,3l-12.73,11.95a2.13,2.13,0,0,1-3-.1l-78-83.1a64.32,64.32,0,0,0,8.49-6.82A65.57,65.57,0,0,0,41.52,27.76Z"/><path class="cls-5" d="M47.39,34l2.18,2.32a63.31,63.31,0,0,1-7.35,8,65.3,65.3,0,0,1-8.48,6.83l-2.18-2.33A54.52,54.52,0,0,0,37,44.81C38,44,39,43,40,42.06s2-2,2.94-2.9A54.29,54.29,0,0,0,47.39,34Z"/><path class="cls-5" d="M52.35,39.3l4.36,4.64a64.85,64.85,0,0,1-7.35,8,64.48,64.48,0,0,1-8.49,6.83l-4.36-4.65a56.15,56.15,0,0,0,5.41-4.07c1-.86,2-1.78,3.08-2.75s2-2,2.94-2.9A55.8,55.8,0,0,0,52.35,39.3Z"/><path class="cls-6" d="M19.19,35.69h0l.12.15-.13-.14Z"/><path class="cls-3" d="M32.64,21.17,22,15.17a4.2,4.2,0,0,0-1.9,1c-2.45,2.29,5,12.6,5.72,13.37s3.82-4.36,7-7.37Z"/><path class="cls-6" d="M35,20.83l.13.14L35,20.84h0Z"/><path class="cls-5" d="M35,20.84h0A54.28,54.28,0,0,1,30.6,26c-.91,1-1.9,1.92-2.94,2.9s-2.07,1.9-3.08,2.75a53.35,53.35,0,0,1-5.39,4.07h0a1.79,1.79,0,0,1-.22-.34,2.13,2.13,0,0,1,.44-2.52v0C20.56,32,21.78,31,23,30c1-.85,2-1.77,3.09-2.75s2-1.95,2.94-2.9c1.13-1.19,2.16-2.34,3.06-3.43h0a2.12,2.12,0,0,1,2.54-.28A2,2,0,0,1,35,20.84Z"/><ellipse class="cls-5" cx="76.92" cy="81.35" rx="5.55" ry="33" transform="translate(-34.84 74.67) rotate(-43.18)"/><path class="cls-7" d="M34.17,35.8l-.82.76,78.88,84.05,7.18-6.74a2.12,2.12,0,0,0,.1-3l-78-83.1A65.57,65.57,0,0,1,34.17,35.8Z"/><ellipse class="cls-8" cx="48.91" cy="60.36" rx="2.04" ry="32.32" transform="translate(-28.06 49.82) rotate(-43.18)"/><path class="cls-8" d="M17.24,24.72c.29-.28-2.89-6.16-3.66-9.93-.26-1.29.33-1.67-.06-1.7s-2,.12-1.42,2.05C12.85,17.55,16.66,25.26,17.24,24.72Z"/></svg>