<svg id="Layer_1" data-name="Layer 1" xmlns="http://www.w3.org/2000/svg" viewBox="0 0 275 84"><defs><style>.cls-1{opacity:0.3;}.cls-2,.cls-3{fill:none;stroke-linecap:round;stroke-linejoin:round;}.cls-2{stroke:#000;stroke-width:13.49px;}.cls-3{stroke:#0071bc;stroke-width:11.57px;}.cls-4{fill:#0071bc;}.cls-5{fill:#006dff;}.cls-6{fill:#fff;}</style></defs><title>kolorowanka_Artboard 8</title><g class="cls-1"><path class="cls-2" d="M89.58,25.9c.42-.42.84-1.08,1.26-1.26a2.84,2.84,0,0,1,3.89.6c.18.42.42.84.42.84a.81.81,0,0,0,1.08.23c1-1,6.82-1,9.51-.41a6.9,6.9,0,0,0,2.1.59,20.51,20.51,0,0,1,2.69,1.44.86.86,0,0,0,.6.24,26.83,26.83,0,0,1,4,4.13,22.17,22.17,0,0,1,3.54,9.94,22.33,22.33,0,0,1-.66,9.57,14.16,14.16,0,0,1-3.3,7,25.38,25.38,0,0,1-3.11,3.11,24.77,24.77,0,0,1-8.32,3.77c-1,.18-7.24.42-9.94.6a8.25,8.25,0,0,1-2-.42c-3.29-1.85-4-2.09-3.77-3.11,0-.6.66-1.2,1.67-1.2.6,0,.6-.06.6-6.46,0-3.53-.24-9.7-.42-13.65s-.36-8.74-.18-10.84C89.16,27.33,89.16,26.91,89.58,25.9Zm17.3,5.86a8.15,8.15,0,0,0-4.31-2,6.35,6.35,0,0,0-4.31.42C96.17,31,96,30.86,96.17,33a217.69,217.69,0,0,1,1.67,25.26c0,4,0,3.89.84,3.71a12.57,12.57,0,0,0,5-1.2c2.93-1.67,3-2.63,3.95-4,.84-1.55,1.5-3.71,1.68-3.89,0-.42.24-.66.83-3.53.42-1.68.18-8.26-.23-10.36-.42-2.69-.6-3.29-1-4.13A6.28,6.28,0,0,0,106.88,31.76Z"/><path class="cls-2" d="M121.9,24.82c.18-.42.84-.6,1.26-.78a7.77,7.77,0,0,1,2.28-.24,3.76,3.76,0,0,1,2.87,1c.18.42.48.42,1.08,0a13.13,13.13,0,0,1,7-.6c6.4.84,9.76,4.79,9.76,11,0,3.53-.6,5.39-2.88,7.67A12.83,12.83,0,0,1,137.05,46c-.84.18-1.26.66-.84.84a9.76,9.76,0,0,1,1,2c.6.84,1.26,2.1,1.67,2.7.18.59.6,1.25.6,1.43s.24.42.24.42a.51.51,0,0,1,.42.42c.18.42.66.84.84,1.26s.6.66.6.84a.63.63,0,0,0,.18.41s.66.84,1.08,1.44c1,1.44,1.19,1.62,2,1.44,1.68-.6,4,.06,4.61,1.49.42.6.6.84.18,1.44-.84,2.1-3.71,3.29-6.82,2.87-.84-.18-1.68-.41-1.68-.59a5.21,5.21,0,0,1-1-.42c-1.67-.6-3.35-2.52-5.21-5.39a12.61,12.61,0,0,1-1.25-1.86,56.2,56.2,0,0,1-4.55-9.16c-.18-1-.18-1-.18.42,0,.84-.24,2.52-.24,3.54a31.71,31.71,0,0,0-.42,4.55c-.42,4.36-1.26,7.9-1.86,8.73a3.56,3.56,0,0,1-4,.84c-1-.42-1-.6-1.43-2.69-.42-1.86-.42-1.68,0-18.08.18-3.53.18-9.34.18-13C121.25,25.24,121.31,25.24,121.9,24.82Zm16,9.16c0-3.72-1.08-5.81-2.94-6.65a5.61,5.61,0,0,0-3.71,0c-.42,0-.84.18-1.25.18-.42.18-.42.24-.6,3.11v7.31c-.18,4.55-.24,4.49,1.85,4.31,3.12,0,4.37-.78,5.39-2.88A10.2,10.2,0,0,0,137.89,34Z"/><path class="cls-2" d="M151.77,27.75c-.3-2,0-2.81,1.44-3.41a6.16,6.16,0,0,1,4.61.3c1.44.6,1.67,1.37,1.67,5.39,0,2-.29,6-.29,9.15-.84,9.4,0,16.82,1.73,18.8a8.28,8.28,0,0,0,2.87,1.74c.6.3.84,0,2-1.14,2-2,3.11-4.85,3.71-9.4,0-2.27.3-5.45,0-11.13-.3-12.57-.3-11.44.54-12.57a7.09,7.09,0,0,1,4.85-.84c2.87.84,3.17,2,3.17,14.54,0,8.86,0,10-.6,12.57-2,9.7-8.5,14.55-16.22,12.81a12.94,12.94,0,0,1-7.42-4c-2.58-2.57-3.11-5.68-3.41-13.94a61.4,61.4,0,0,1,1.13-15.45A13,13,0,0,0,151.77,27.75Z"/><path class="cls-2" d="M181.34,24.88a5.41,5.41,0,0,1,2.34-1.2h2.09c2.93.6,3.23,1.8,3.23,8.26,0,5.33,0,5,2.64,1.5a4.73,4.73,0,0,1,1.19-1.8c0-.3.6-.84,1.5-1.73,1.8-2.64,2-3,3.23-3.6a3.56,3.56,0,0,1,3.83.3c.9.3,1.2.6.9,1.5,0,.9-4.43,7.66-5.62,9.16-.3.3-.3.6-.6.9a20.32,20.32,0,0,0-2,2.93c-1.79,2.33-1.79,2.39-.3,4.73a95.66,95.66,0,0,0,5.87,10c.3.3.9.89.9,1.19.6.6.6.6,1.49.3,2.1-.6,4.73.9,5,2.4,0,2.63-4.73,4.43-8.56,3.23A9,9,0,0,1,194,60c-.3-.3-.9-1.2-1.49-1.8l-.6-1.2c-.3,0-.6-.54-.9-1.43a8.37,8.37,0,0,1-1.74-2.7c-.9-1.79-.9-1.73-1.19,2.1-.6,4.73-1.14,8.5-1.74,9.4a2.88,2.88,0,0,1-3.59,1.19c-2.34-.6-2.64-2-2.34-15.92.3-5.33.6-13.29.6-17.12S181.34,25.18,181.34,24.88Z"/><path class="cls-2" d="M210.49,27.75c-.3-2,0-2.81,1.44-3.41a6.17,6.17,0,0,1,4.61.3c1.43.6,1.67,1.37,1.67,5.39,0,2-.3,6-.3,9.15-.83,9.4,0,16.82,1.74,18.8a8.19,8.19,0,0,0,2.87,1.74c.6.3.84,0,2-1.14,2-2,3.11-4.85,3.71-9.4,0-2.27.3-5.45,0-11.13-.3-12.57-.3-11.44.54-12.57a7.09,7.09,0,0,1,4.85-.84c2.87.84,3.17,2,3.17,14.54,0,8.86,0,10-.6,12.57-2,9.7-8.5,14.55-16.22,12.81a12.94,12.94,0,0,1-7.42-4c-2.58-2.57-3.12-5.68-3.42-13.94a60.88,60.88,0,0,1,1.14-15.45A13,13,0,0,0,210.49,27.75Z"/><path class="cls-2" d="M244.55,25.9a3.76,3.76,0,0,1,1.79-1.8,5.68,5.68,0,0,1,4.55.24c.48.24,1,.54,1,.54v6c0,3.3.36,11.68.6,17.48.78,13.65.72,14.91-2,16.94a8.42,8.42,0,0,1-7.3,1.26c-3.77-1-5.56-4.79-3.53-6.82,1.5-1.26,2.75-1.56,3.77-.54a3.45,3.45,0,0,1,1,1.79c.24.78.54,1,.78,1,.48,0,.48-2.27.24-7.6-1-14.91-1.38-18.68-1.38-22.75C244.07,27.39,244.07,27.15,244.55,25.9Z"/><rect x="29.31" y="13.73" width="35.24" height="25.64" rx="6.75"/><rect x="31.31" y="49.29" width="31.23" height="24.7" rx="6.75"/><path d="M63.79,66.42H61.44a6.75,6.75,0,0,1-6.75-6.74v-1.9H39.44v1.9a6.74,6.74,0,0,1-6.74,6.74H30.06A11.75,11.75,0,0,1,18.32,54.68V43.6A11.75,11.75,0,0,1,30.06,31.85H63.79A11.76,11.76,0,0,1,75.53,43.6V54.68A11.76,11.76,0,0,1,63.79,66.42Z"/></g><path class="cls-3" d="M88.62,24.93c.42-.42.84-1.08,1.26-1.26a2.86,2.86,0,0,1,3.89.6c.18.42.42.84.42.84a.79.79,0,0,0,1.07.24c1-1,6.83-1,9.52-.42a6.72,6.72,0,0,0,2.1.6A21.25,21.25,0,0,1,109.57,27a.86.86,0,0,0,.6.24,26.83,26.83,0,0,1,4,4.13,22.24,22.24,0,0,1,3.53,9.93,22.06,22.06,0,0,1-.66,9.58,14.23,14.23,0,0,1-3.29,7A25.46,25.46,0,0,1,110.59,61a25.06,25.06,0,0,1-8.32,3.77c-1,.18-7.25.42-9.94.6a8.23,8.23,0,0,1-2-.42c-3.29-1.86-4-2.1-3.77-3.12,0-.59.66-1.19,1.68-1.19.6,0,.6-.06.6-6.47,0-3.53-.24-9.69-.42-13.64S88,31.75,88.2,29.66C88.2,26.37,88.2,26,88.62,24.93Zm17.3,5.87a8.2,8.2,0,0,0-4.31-2,6.34,6.34,0,0,0-4.31.42c-2.1.84-2.28.66-2.1,2.76a215,215,0,0,1,1.68,25.26c0,4,0,3.89.84,3.71a12.61,12.61,0,0,0,5-1.2c2.93-1.68,3-2.63,4-4,.83-1.56,1.49-3.71,1.67-3.89,0-.42.24-.66.84-3.53.42-1.68.18-8.26-.24-10.36-.42-2.69-.6-3.29-1-4.13A6.27,6.27,0,0,0,105.92,30.8Z"/><path class="cls-3" d="M120.94,23.85c.18-.42.84-.6,1.26-.77a7.69,7.69,0,0,1,2.27-.24,3.76,3.76,0,0,1,2.88,1c.18.42.47.42,1.07,0a13.37,13.37,0,0,1,7-.6c6.4.84,9.75,4.79,9.75,11,0,3.53-.6,5.39-2.87,7.66A12.69,12.69,0,0,1,136.08,45c-.83.18-1.25.66-.83.84a9.58,9.58,0,0,1,1,2c.6.84,1.26,2.09,1.68,2.69.18.6.6,1.26.6,1.44s.24.42.24.42a.51.51,0,0,1,.42.42c.18.41.66.83.84,1.25s.59.66.59.84a.65.65,0,0,0,.18.42s.66.84,1.08,1.44c1,1.43,1.2,1.61,2,1.43,1.67-.6,4,.06,4.61,1.5.42.6.59.84.17,1.44-.83,2.09-3.71,3.29-6.82,2.87-.84-.18-1.68-.42-1.68-.6a5.45,5.45,0,0,1-1-.42c-1.68-.6-3.35-2.51-5.21-5.39a11.77,11.77,0,0,1-1.26-1.85,56.61,56.61,0,0,1-4.55-9.16c-.18-1-.18-1-.18.42,0,.84-.24,2.51-.24,3.53a32,32,0,0,0-.41,4.55c-.42,4.37-1.26,7.9-1.86,8.74a3.56,3.56,0,0,1-3.95.84c-1-.42-1-.6-1.44-2.7-.42-1.85-.42-1.67,0-18.07.18-3.53.18-9.34.18-13C120.28,24.27,120.34,24.27,120.94,23.85Zm16,9.16c0-3.71-1.07-5.8-2.93-6.64a5.61,5.61,0,0,0-3.71,0c-.42,0-.84.18-1.26.18-.42.18-.42.24-.6,3.11V37c-.18,4.55-.24,4.49,1.86,4.31,3.11,0,4.37-.77,5.39-2.87A10.34,10.34,0,0,0,136.92,33Z"/><path class="cls-3" d="M150.81,26.79c-.3-2,0-2.82,1.44-3.41a6.21,6.21,0,0,1,4.61.29c1.43.6,1.67,1.38,1.67,5.39,0,2-.3,6.05-.3,9.16-.84,9.4,0,16.82,1.74,18.8a8.3,8.3,0,0,0,2.87,1.73c.6.3.84,0,2-1.13,2-2,3.11-4.85,3.71-9.4,0-2.28.3-5.45,0-11.14-.3-12.57-.3-11.43.54-12.57a7.14,7.14,0,0,1,4.85-.84c2.87.84,3.17,2,3.17,14.55,0,8.86,0,10-.6,12.57-2,9.7-8.5,14.55-16.22,12.81a13,13,0,0,1-7.43-4c-2.57-2.57-3.11-5.69-3.41-14a60.84,60.84,0,0,1,1.14-15.44A13.1,13.1,0,0,0,150.81,26.79Z"/><path class="cls-3" d="M180.38,23.91a5.36,5.36,0,0,1,2.33-1.19h2.1c2.93.6,3.23,1.79,3.23,8.26,0,5.32,0,5,2.63,1.49a4.64,4.64,0,0,1,1.2-1.79c0-.3.6-.84,1.5-1.74,1.79-2.63,2-3,3.23-3.59a3.52,3.52,0,0,1,3.83.3c.9.3,1.2.6.9,1.5,0,.89-4.43,7.66-5.63,9.15-.3.3-.3.6-.6.9a20.9,20.9,0,0,0-2,2.94c-1.8,2.33-1.8,2.39-.3,4.72a93.73,93.73,0,0,0,5.86,10c.3.3.9.9.9,1.2.6.6.6.6,1.5.3,2.09-.6,4.73.9,5,2.39,0,2.64-4.73,4.43-8.56,3.23a8.83,8.83,0,0,1-4.43-2.93c-.3-.3-.9-1.2-1.5-1.79l-.6-1.2c-.3,0-.6-.54-.9-1.44a8.47,8.47,0,0,1-1.73-2.69c-.9-1.8-.9-1.74-1.2,2.09-.6,4.73-1.14,8.5-1.73,9.4a2.89,2.89,0,0,1-3.6,1.2c-2.33-.6-2.63-2-2.33-15.92.3-5.33.6-13.29.6-17.12S180.38,24.21,180.38,23.91Z"/><path class="cls-3" d="M209.53,26.79c-.3-2,0-2.82,1.43-3.41a6.21,6.21,0,0,1,4.61.29c1.44.6,1.68,1.38,1.68,5.39,0,2-.3,6.05-.3,9.16-.84,9.4,0,16.82,1.74,18.8a8.21,8.21,0,0,0,2.87,1.73c.6.3.84,0,2-1.13,2-2,3.12-4.85,3.72-9.4,0-2.28.29-5.45,0-11.14-.3-12.57-.3-11.43.53-12.57a7.16,7.16,0,0,1,4.85-.84c2.88.84,3.17,2,3.17,14.55,0,8.86,0,10-.59,12.57-2,9.7-8.5,14.55-16.23,12.81a13,13,0,0,1-7.42-4c-2.57-2.57-3.11-5.69-3.41-14a60.84,60.84,0,0,1,1.14-15.44A13.1,13.1,0,0,0,209.53,26.79Z"/><path class="cls-3" d="M243.58,24.93a3.67,3.67,0,0,1,1.8-1.79,5.68,5.68,0,0,1,4.55.24c.48.23,1,.53,1,.53V30c0,3.29.36,11.67.6,17.48.77,13.65.71,14.9-2,16.94a8.46,8.46,0,0,1-7.3,1.26c-3.77-1-5.57-4.79-3.53-6.83,1.49-1.26,2.75-1.55,3.77-.54a3.45,3.45,0,0,1,1,1.8c.25.78.54,1,.78,1,.48,0,.48-2.28.24-7.61-1-14.9-1.37-18.67-1.37-22.74C243.11,26.43,243.11,26.19,243.58,24.93Z"/><path class="cls-4" d="M56.83,37.45H35.09a5.78,5.78,0,0,1-5.78-5.79V19.51a5.78,5.78,0,0,1,5.78-5.78H56.83a5.78,5.78,0,0,1,5.79,5.78V31.66A5.79,5.79,0,0,1,56.83,37.45ZM40.88,25.88H51.05V25.3H40.88Z"/><rect class="cls-4" x="31.31" y="49.29" width="29.31" height="22.78" rx="5.78"/><path class="cls-4" d="M62.82,64.5H60.47a5.78,5.78,0,0,1-5.78-5.79V55.86H37.52v2.85a5.79,5.79,0,0,1-5.79,5.79H29.09A10.79,10.79,0,0,1,18.32,53.71V42.63A10.79,10.79,0,0,1,29.09,31.85H62.82A10.8,10.8,0,0,1,73.61,42.63V53.71A10.8,10.8,0,0,1,62.82,64.5ZM29.89,43.42v1.17a5.91,5.91,0,0,1,1.84-.3H51.6c0-.21,0-.41,0-.62a2.09,2.09,0,0,1,0-.25Zm28.91.87h1.67A6.2,6.2,0,0,1,62,44.5V43.42H58.73a2,2,0,0,0,0,.25A2.11,2.11,0,0,0,58.8,44.29Zm4-.87h0Z"/><path class="cls-5" d="M88.62,24.93c.42-.42.84-1.08,1.26-1.26a2.86,2.86,0,0,1,3.89.6c.18.42.42.84.42.84a.79.79,0,0,0,1.07.24c1-1,6.83-1,9.52-.42a6.72,6.72,0,0,0,2.1.6A21.25,21.25,0,0,1,109.57,27a.86.86,0,0,0,.6.24,26.83,26.83,0,0,1,4,4.13,22.24,22.24,0,0,1,3.53,9.93,22.06,22.06,0,0,1-.66,9.58,14.23,14.23,0,0,1-3.29,7A25.46,25.46,0,0,1,110.59,61a25.06,25.06,0,0,1-8.32,3.77c-1,.18-7.25.42-9.94.6a8.23,8.23,0,0,1-2-.42c-3.29-1.86-4-2.1-3.77-3.12,0-.59.66-1.19,1.68-1.19.6,0,.6-.06.6-6.47,0-3.53-.24-9.69-.42-13.64S88,31.75,88.2,29.66C88.2,26.37,88.2,26,88.62,24.93Zm17.3,5.87a8.2,8.2,0,0,0-4.31-2,6.34,6.34,0,0,0-4.31.42c-2.1.84-2.28.66-2.1,2.76a215,215,0,0,1,1.68,25.26c0,4,0,3.89.84,3.71a12.61,12.61,0,0,0,5-1.2c2.93-1.68,3-2.63,4-4,.83-1.56,1.49-3.71,1.67-3.89,0-.42.24-.66.84-3.53.42-1.68.18-8.26-.24-10.36-.42-2.69-.6-3.29-1-4.13A6.27,6.27,0,0,0,105.92,30.8Z"/><path class="cls-5" d="M120.94,23.85c.18-.42.84-.6,1.26-.77a7.69,7.69,0,0,1,2.27-.24,3.76,3.76,0,0,1,2.88,1c.18.42.47.42,1.07,0a13.37,13.37,0,0,1,7-.6c6.4.84,9.75,4.79,9.75,11,0,3.53-.6,5.39-2.87,7.66A12.69,12.69,0,0,1,136.08,45c-.83.18-1.25.66-.83.84a9.58,9.58,0,0,1,1,2c.6.84,1.26,2.09,1.68,2.69.18.6.6,1.26.6,1.44s.24.42.24.42a.51.51,0,0,1,.42.42c.18.41.66.83.84,1.25s.59.66.59.84a.65.65,0,0,0,.18.42s.66.84,1.08,1.44c1,1.43,1.2,1.61,2,1.43,1.67-.6,4,.06,4.61,1.5.42.6.59.84.17,1.44-.83,2.09-3.71,3.29-6.82,2.87-.84-.18-1.68-.42-1.68-.6a5.45,5.45,0,0,1-1-.42c-1.68-.6-3.35-2.51-5.21-5.39a11.77,11.77,0,0,1-1.26-1.85,56.61,56.61,0,0,1-4.55-9.16c-.18-1-.18-1-.18.42,0,.84-.24,2.51-.24,3.53a32,32,0,0,0-.41,4.55c-.42,4.37-1.26,7.9-1.86,8.74a3.56,3.56,0,0,1-3.95.84c-1-.42-1-.6-1.44-2.7-.42-1.85-.42-1.67,0-18.07.18-3.53.18-9.34.18-13C120.28,24.27,120.34,24.27,120.94,23.85Zm16,9.16c0-3.71-1.07-5.8-2.93-6.64a5.61,5.61,0,0,0-3.71,0c-.42,0-.84.18-1.26.18-.42.18-.42.24-.6,3.11V37c-.18,4.55-.24,4.49,1.86,4.31,3.11,0,4.37-.77,5.39-2.87A10.34,10.34,0,0,0,136.92,33Z"/><path class="cls-5" d="M150.81,26.79c-.3-2,0-2.82,1.44-3.41a6.21,6.21,0,0,1,4.61.29c1.43.6,1.67,1.38,1.67,5.39,0,2-.3,6.05-.3,9.16-.84,9.4,0,16.82,1.74,18.8a8.3,8.3,0,0,0,2.87,1.73c.6.3.84,0,2-1.13,2-2,3.11-4.85,3.71-9.4,0-2.28.3-5.45,0-11.14-.3-12.57-.3-11.43.54-12.57a7.14,7.14,0,0,1,4.85-.84c2.87.84,3.17,2,3.17,14.55,0,8.86,0,10-.6,12.57-2,9.7-8.5,14.55-16.22,12.81a13,13,0,0,1-7.43-4c-2.57-2.57-3.11-5.69-3.41-14a60.84,60.84,0,0,1,1.14-15.44A13.1,13.1,0,0,0,150.81,26.79Z"/><path class="cls-5" d="M180.38,23.91a5.36,5.36,0,0,1,2.33-1.19h2.1c2.93.6,3.23,1.79,3.23,8.26,0,5.32,0,5,2.63,1.49a4.64,4.64,0,0,1,1.2-1.79c0-.3.6-.84,1.5-1.74,1.79-2.63,2-3,3.23-3.59a3.52,3.52,0,0,1,3.83.3c.9.3,1.2.6.9,1.5,0,.89-4.43,7.66-5.63,9.15-.3.3-.3.6-.6.9a20.9,20.9,0,0,0-2,2.94c-1.8,2.33-1.8,2.39-.3,4.72a93.73,93.73,0,0,0,5.86,10c.3.3.9.9.9,1.2.6.6.6.6,1.5.3,2.09-.6,4.73.9,5,2.39,0,2.64-4.73,4.43-8.56,3.23a8.83,8.83,0,0,1-4.43-2.93c-.3-.3-.9-1.2-1.5-1.79l-.6-1.2c-.3,0-.6-.54-.9-1.44a8.47,8.47,0,0,1-1.73-2.69c-.9-1.8-.9-1.74-1.2,2.09-.6,4.73-1.14,8.5-1.73,9.4a2.89,2.89,0,0,1-3.6,1.2c-2.33-.6-2.63-2-2.33-15.92.3-5.33.6-13.29.6-17.12S180.38,24.21,180.38,23.91Z"/><path class="cls-5" d="M209.53,26.79c-.3-2,0-2.82,1.43-3.41a6.21,6.21,0,0,1,4.61.29c1.44.6,1.68,1.38,1.68,5.39,0,2-.3,6.05-.3,9.16-.84,9.4,0,16.82,1.74,18.8a8.21,8.21,0,0,0,2.87,1.73c.6.3.84,0,2-1.13,2-2,3.12-4.85,3.72-9.4,0-2.28.29-5.45,0-11.14-.3-12.57-.3-11.43.53-12.57a7.16,7.16,0,0,1,4.85-.84c2.88.84,3.17,2,3.17,14.55,0,8.86,0,10-.59,12.57-2,9.7-8.5,14.55-16.23,12.81a13,13,0,0,1-7.42-4c-2.57-2.57-3.11-5.69-3.41-14a60.84,60.84,0,0,1,1.14-15.44A13.1,13.1,0,0,0,209.53,26.79Z"/><path class="cls-5" d="M243.58,24.93a3.67,3.67,0,0,1,1.8-1.79,5.68,5.68,0,0,1,4.55.24c.48.23,1,.53,1,.53V30c0,3.29.36,11.67.6,17.48.77,13.65.71,14.9-2,16.94a8.46,8.46,0,0,1-7.3,1.26c-3.77-1-5.57-4.79-3.53-6.83,1.49-1.26,2.75-1.55,3.77-.54a3.45,3.45,0,0,1,1,1.8c.25.78.54,1,.78,1,.48,0,.48-2.28.24-7.61-1-14.9-1.37-18.67-1.37-22.74C243.11,26.43,243.11,26.19,243.58,24.93Z"/><rect class="cls-6" x="35.09" y="19.51" width="21.74" height="12.15"/><rect class="cls-6" x="37.09" y="55.07" width="17.74" height="11.21"/><path class="cls-6" d="M62.82,37.63H29.09a5,5,0,0,0-5,5V53.71a5,5,0,0,0,5,5h2.64V50.07H60.47v8.64h2.35a5,5,0,0,0,5-5V42.63A5,5,0,0,0,62.82,37.63Zm-1.89,9.61a3.57,3.57,0,1,1,3.57-3.57A3.56,3.56,0,0,1,60.93,47.24Z"/><path class="cls-6" d="M88.62,24.93c.42-.42.84-1.08,1.26-1.26a2.86,2.86,0,0,1,3.89.6c.18.42.42.84.42.84a.79.79,0,0,0,1.07.24c1-1,6.83-1,9.52-.42a6.72,6.72,0,0,0,2.1.6A21.25,21.25,0,0,1,109.57,27a.86.86,0,0,0,.6.24,26.83,26.83,0,0,1,4,4.13,22.24,22.24,0,0,1,3.53,9.93,22.06,22.06,0,0,1-.66,9.58,14.23,14.23,0,0,1-3.29,7A25.46,25.46,0,0,1,110.59,61a25.06,25.06,0,0,1-8.32,3.77c-1,.18-7.25.42-9.94.6a8.23,8.23,0,0,1-2-.42c-3.29-1.86-4-2.1-3.77-3.12,0-.59.66-1.19,1.68-1.19.6,0,.6-.06.6-6.47,0-3.53-.24-9.69-.42-13.64S88,31.75,88.2,29.66C88.2,26.37,88.2,26,88.62,24.93Zm17.3,5.87a8.2,8.2,0,0,0-4.31-2,6.34,6.34,0,0,0-4.31.42c-2.1.84-2.28.66-2.1,2.76a215,215,0,0,1,1.68,25.26c0,4,0,3.89.84,3.71a12.61,12.61,0,0,0,5-1.2c2.93-1.68,3-2.63,4-4,.83-1.56,1.49-3.71,1.67-3.89,0-.42.24-.66.84-3.53.42-1.68.18-8.26-.24-10.36-.42-2.69-.6-3.29-1-4.13A6.27,6.27,0,0,0,105.92,30.8Z"/><path class="cls-6" d="M120.94,23.85c.18-.42.84-.6,1.26-.77a7.69,7.69,0,0,1,2.27-.24,3.76,3.76,0,0,1,2.88,1c.18.42.47.42,1.07,0a13.37,13.37,0,0,1,7-.6c6.4.84,9.75,4.79,9.75,11,0,3.53-.6,5.39-2.87,7.66A12.69,12.69,0,0,1,136.08,45c-.83.18-1.25.66-.83.84a9.58,9.58,0,0,1,1,2c.6.84,1.26,2.09,1.68,2.69.18.6.6,1.26.6,1.44s.24.42.24.42a.51.51,0,0,1,.42.42c.18.41.66.83.84,1.25s.59.66.59.84a.65.65,0,0,0,.18.42s.66.84,1.08,1.44c1,1.43,1.2,1.61,2,1.43,1.67-.6,4,.06,4.61,1.5.42.6.59.84.17,1.44-.83,2.09-3.71,3.29-6.82,2.87-.84-.18-1.68-.42-1.68-.6a5.45,5.45,0,0,1-1-.42c-1.68-.6-3.35-2.51-5.21-5.39a11.77,11.77,0,0,1-1.26-1.85,56.61,56.61,0,0,1-4.55-9.16c-.18-1-.18-1-.18.42,0,.84-.24,2.51-.24,3.53a32,32,0,0,0-.41,4.55c-.42,4.37-1.26,7.9-1.86,8.74a3.56,3.56,0,0,1-3.95.84c-1-.42-1-.6-1.44-2.7-.42-1.85-.42-1.67,0-18.07.18-3.53.18-9.34.18-13C120.28,24.27,120.34,24.27,120.94,23.85Zm16,9.16c0-3.71-1.07-5.8-2.93-6.64a5.61,5.61,0,0,0-3.71,0c-.42,0-.84.18-1.26.18-.42.18-.42.24-.6,3.11V37c-.18,4.55-.24,4.49,1.86,4.31,3.11,0,4.37-.77,5.39-2.87A10.34,10.34,0,0,0,136.92,33Z"/><path class="cls-6" d="M150.81,26.79c-.3-2,0-2.82,1.44-3.41a6.21,6.21,0,0,1,4.61.29c1.43.6,1.67,1.38,1.67,5.39,0,2-.3,6.05-.3,9.16-.84,9.4,0,16.82,1.74,18.8a8.3,8.3,0,0,0,2.87,1.73c.6.3.84,0,2-1.13,2-2,3.11-4.85,3.71-9.4,0-2.28.3-5.45,0-11.14-.3-12.57-.3-11.43.54-12.57a7.14,7.14,0,0,1,4.85-.84c2.87.84,3.17,2,3.17,14.55,0,8.86,0,10-.6,12.57-2,9.7-8.5,14.55-16.22,12.81a13,13,0,0,1-7.43-4c-2.57-2.57-3.11-5.69-3.41-14a60.84,60.84,0,0,1,1.14-15.44A13.1,13.1,0,0,0,150.81,26.79Z"/><path class="cls-6" d="M180.38,23.91a5.36,5.36,0,0,1,2.33-1.19h2.1c2.93.6,3.23,1.79,3.23,8.26,0,5.32,0,5,2.63,1.49a4.64,4.64,0,0,1,1.2-1.79c0-.3.6-.84,1.5-1.74,1.79-2.63,2-3,3.23-3.59a3.52,3.52,0,0,1,3.83.3c.9.3,1.2.6.9,1.5,0,.89-4.43,7.66-5.63,9.15-.3.3-.3.6-.6.9a20.9,20.9,0,0,0-2,2.94c-1.8,2.33-1.8,2.39-.3,4.72a93.73,93.73,0,0,0,5.86,10c.3.3.9.9.9,1.2.6.6.6.6,1.5.3,2.09-.6,4.73.9,5,2.39,0,2.64-4.73,4.43-8.56,3.23a8.83,8.83,0,0,1-4.43-2.93c-.3-.3-.9-1.2-1.5-1.79l-.6-1.2c-.3,0-.6-.54-.9-1.44a8.47,8.47,0,0,1-1.73-2.69c-.9-1.8-.9-1.74-1.2,2.09-.6,4.73-1.14,8.5-1.73,9.4a2.89,2.89,0,0,1-3.6,1.2c-2.33-.6-2.63-2-2.33-15.92.3-5.33.6-13.29.6-17.12S180.38,24.21,180.38,23.91Z"/><path class="cls-6" d="M209.53,26.79c-.3-2,0-2.82,1.43-3.41a6.21,6.21,0,0,1,4.61.29c1.44.6,1.68,1.38,1.68,5.39,0,2-.3,6.05-.3,9.16-.84,9.4,0,16.82,1.74,18.8a8.21,8.21,0,0,0,2.87,1.73c.6.3.84,0,2-1.13,2-2,3.12-4.85,3.72-9.4,0-2.28.29-5.45,0-11.14-.3-12.57-.3-11.43.53-12.57a7.16,7.16,0,0,1,4.85-.84c2.88.84,3.17,2,3.17,14.55,0,8.86,0,10-.59,12.57-2,9.7-8.5,14.55-16.23,12.81a13,13,0,0,1-7.42-4c-2.57-2.57-3.11-5.69-3.41-14a60.84,60.84,0,0,1,1.14-15.44A13.1,13.1,0,0,0,209.53,26.79Z"/><path class="cls-6" d="M243.58,24.93a3.67,3.67,0,0,1,1.8-1.79,5.68,5.68,0,0,1,4.55.24c.48.23,1,.53,1,.53V30c0,3.29.36,11.67.6,17.48.77,13.65.71,14.9-2,16.94a8.46,8.46,0,0,1-7.3,1.26c-3.77-1-5.57-4.79-3.53-6.83,1.49-1.26,2.75-1.55,3.77-.54a3.45,3.45,0,0,1,1,1.8c.25.78.54,1,.78,1,.48,0,.48-2.28.24-7.61-1-14.9-1.37-18.67-1.37-22.74C243.11,26.43,243.11,26.19,243.58,24.93Z"/><rect class="cls-6" x="35.09" y="19.51" width="21.74" height="12.15"/><rect class="cls-6" x="37.09" y="55.07" width="17.74" height="11.21"/><path class="cls-6" d="M62.82,37.63H29.09a5,5,0,0,0-5,5V53.71a5,5,0,0,0,5,5h2.64V50.07H60.47v8.64h2.35a5,5,0,0,0,5-5V42.63A5,5,0,0,0,62.82,37.63Zm-1.89,9.61a3.57,3.57,0,1,1,3.57-3.57A3.56,3.56,0,0,1,60.93,47.24Z"/></svg>