<svg id="Layer_1" data-name="Layer 1" xmlns="http://www.w3.org/2000/svg" viewBox="0 0 112 93"><defs><style>.cls-1{fill:#2e3192;}.cls-2{fill:#140054;}.cls-3{fill:#0061ef;}.cls-4{fill:#0059c4;}.cls-5{fill:#3198ff;}</style></defs><title>kolorowanka_Artboard 1 copy 3</title><circle class="cls-1" cx="52.38" cy="44.62" r="38.11"/><circle class="cls-2" cx="53.7" cy="45.52" r="34.12"/><circle class="cls-3" cx="52.38" cy="44.62" r="31.8"/><path class="cls-4" d="M84.18,44.62A31.8,31.8,0,0,1,26.26,62.77,31.81,31.81,0,0,0,70.52,18.5,31.74,31.74,0,0,1,84.18,44.62Z"/><path class="cls-5" d="M56.33,19.61c.41,3.45-10.21,4-17.68,10.34-9.31,7.84-5.88,16-12.39,17.51s-1.38-16.62,5.93-23.22S55.53,12.84,56.33,19.61Z"/><path class="cls-2" d="M27.77,58.23c0-2,18.53-32.21,21.53-33.82s8.74-.84,10-.24S80.6,53.6,79.6,54.81s-8.78,8.66-11.85,7.65-12.52-18.21-12.93-19-11.64,20.19-13,22S27.77,60.85,27.77,58.23Z"/><path class="cls-1" d="M69.14,58.78c.47.12,7.63-4.45,7.75-4.8S58.63,26,58.27,25.91s-7.86-.81-8.1.26S30.28,58,30.51,58.79,38.63,63,39.7,62.41s14.37-23.29,15.21-23S69.14,58.78,69.14,58.78Z"/></svg>