<svg id="Layer_1" data-name="Layer 1" xmlns="http://www.w3.org/2000/svg" viewBox="0 0 143 145"><defs><style>.cls-1{opacity:0.3;}.cls-2{fill:#1200f1;}.cls-3{fill:#0000d4;}.cls-4{fill:#3190fc;}.cls-5{fill:#00920c;}.cls-6{fill:#00009f;}.cls-7{opacity:0.11;}.cls-8{fill:#8bffff;opacity:0.5;}</style></defs><title>kolorowanka_Artboard 25</title><path class="cls-1" d="M130,123.84a1.86,1.86,0,0,0,.09-2.63L84.54,72.68,39.09,24.25h0L39,24.11h0l-.09-.06-.18-.13-.06-.05-.14-.06-.12-.06a1.76,1.76,0,0,0-.3-.1l-.06,0a2.47,2.47,0,0,0-.38-.05h-.1l-.28,0-.13,0-.24.06-.13,0-.24.11-.11.06-.3.23h0L31.14,21.4l-10.9-6.11a3.41,3.41,0,0,0-4.74,4.45L23.35,36.1h0l0,0a2.09,2.09,0,0,0-.24.28l-.08.11a1.67,1.67,0,0,0-.12.23l-.06.13a2.09,2.09,0,0,0-.08.23l0,.14a2,2,0,0,0,0,.26v.11a1.62,1.62,0,0,0,0,.38.19.19,0,0,0,0,.07,2.46,2.46,0,0,0,.07.29l.06.14a.75.75,0,0,0,.06.13l0,.07a2,2,0,0,0,.12.19.56.56,0,0,0,.05.08h0l.13.14h0l90.81,96.76a2.13,2.13,0,0,0,3,.1l5.54-5.21h0ZM23.13,39h0l.11.15Z"/><path class="cls-2" d="M16.56,16.13l8.91,18.55a3.41,3.41,0,0,0,5.41,1l4.52-4.24,4.53-4.25a3.41,3.41,0,0,0-.67-5.46L21.31,11.67A3.42,3.42,0,0,0,16.56,16.13Z"/><rect class="cls-2" x="66.78" y="7.97" width="21.72" height="136.96" rx="2.13" transform="translate(-31.29 73.84) rotate(-43.18)"/><path class="cls-3" d="M30.9,28.29,40,20.49l91,97a2.09,2.09,0,0,1-.09,3l-7.2,6.77Z"/><path class="cls-4" d="M46.52,27.42l78,83.1a2.12,2.12,0,0,1-.1,3l-12.73,12a2.12,2.12,0,0,1-3-.1l-78-83.1a64.32,64.32,0,0,0,8.49-6.82A64.85,64.85,0,0,0,46.52,27.42Z"/><path class="cls-3" d="M52.39,33.68,54.57,36a63.31,63.31,0,0,1-7.35,8,64.47,64.47,0,0,1-8.48,6.83l-2.18-2.33A54.52,54.52,0,0,0,42,44.47c1-.85,2-1.77,3.08-2.75s2-1.95,2.94-2.9A54.29,54.29,0,0,0,52.39,33.68Z"/><path class="cls-3" d="M57.35,39l4.36,4.65a65.56,65.56,0,0,1-7.35,8,63.67,63.67,0,0,1-8.49,6.83l-4.36-4.65a54.54,54.54,0,0,0,5.41-4.07C47.92,48.9,49,48,50,47s2-2,2.94-2.9A55.8,55.8,0,0,0,57.35,39Z"/><path class="cls-5" d="M24.19,35.35h0l.12.15-.13-.14Z"/><path class="cls-3" d="M37.64,20.83,27,14.83a4.3,4.3,0,0,0-1.9,1c-2.45,2.3,5,12.6,5.72,13.37s3.82-4.36,7-7.37Z"/><path class="cls-5" d="M40,20.49l.13.15A1.85,1.85,0,0,0,40,20.5h0Z"/><path class="cls-6" d="M40,20.5h0a54.28,54.28,0,0,1-4.41,5.13c-.91.95-1.9,1.93-2.94,2.9s-2.07,1.9-3.08,2.75a53.35,53.35,0,0,1-5.39,4.07h0A1.79,1.79,0,0,1,24,35a2.13,2.13,0,0,1,.44-2.52v0c1.14-.82,2.36-1.78,3.61-2.84,1-.85,2-1.77,3.09-2.75s2-1.95,2.94-2.9c1.13-1.18,2.16-2.34,3.06-3.42l0,0a2.13,2.13,0,0,1,2.54-.28A2,2,0,0,1,40,20.5Z"/><ellipse class="cls-3" cx="81.92" cy="81.01" rx="5.55" ry="33" transform="translate(-33.25 78) rotate(-43.18)"/><path class="cls-7" d="M39.17,35.46l-.82.76,78.88,84.05,7.18-6.74a2.12,2.12,0,0,0,.1-3l-78-83.1A64.85,64.85,0,0,1,39.17,35.46Z"/><ellipse class="cls-8" cx="53.91" cy="60.02" rx="2.04" ry="32.32" transform="translate(-26.47 53.15) rotate(-43.18)"/><path class="cls-8" d="M22.24,24.38c.29-.28-2.89-6.15-3.66-9.93-.26-1.28.33-1.66-.06-1.7s-2,.12-1.42,2.05C17.85,17.21,21.66,24.92,22.24,24.38Z"/></svg>