<svg id="Layer_1" data-name="Layer 1" xmlns="http://www.w3.org/2000/svg" viewBox="0 0 1920 1080"><defs><style>.cls-1{fill:#ffe8c0;}.cls-2{fill:#fcd3b4;opacity:0.5;}</style></defs><title>kolorowanka_Artboard 1 copy</title><g id="tlo"><rect class="cls-1" x="0.06" width="1921.99" height="1080.02"/><circle class="cls-2" cx="134.44" cy="209.94" r="69.27"/><circle class="cls-2" cx="280.63" cy="345.34" r="43.93"/><circle class="cls-2" cx="732.55" cy="812.47" r="43.93"/><circle class="cls-2" cx="1491.58" cy="335.52" r="43.93"/><circle class="cls-2" cx="1489.74" cy="532.31" r="43.93"/><circle class="cls-2" cx="1250.59" cy="636.74" r="43.93"/><circle class="cls-2" cx="820.41" cy="301.4" r="43.93"/><circle class="cls-2" cx="1048.41" cy="157.4" r="43.93"/><circle class="cls-2" cx="1675.07" cy="724.61" r="43.93"/><circle class="cls-2" cx="1707.9" cy="1001.62" r="43.93"/><circle class="cls-2" cx="1545.6" cy="65.15" r="43.93"/><circle class="cls-2" cx="781" cy="54.84" r="43.93"/><circle class="cls-2" cx="1797.04" cy="862.4" r="30.66"/><circle class="cls-2" cx="516.11" cy="423.98" r="34.71"/><circle class="cls-2" cx="1480.52" cy="174.11" r="34.71"/><circle class="cls-2" cx="490.92" cy="874.77" r="34.71"/><circle class="cls-2" cx="99.88" cy="715.39" r="34.71"/><circle class="cls-2" cx="108.8" cy="488.38" r="24.44"/><circle class="cls-2" cx="671.67" cy="172.01" r="24.44"/><circle class="cls-2" cx="720.55" cy="1013.77" r="24.44"/><circle class="cls-2" cx="864.34" cy="670.41" r="24.44"/><circle class="cls-2" cx="402.08" cy="764.27" r="24.44"/><circle class="cls-2" cx="426.52" cy="1045.55" r="24.44"/><circle class="cls-2" cx="1357.94" cy="715.39" r="24.44"/><circle class="cls-2" cx="1127.04" cy="778.96" r="24.44"/><circle class="cls-2" cx="1318.96" cy="488.38" r="24.44"/><circle class="cls-2" cx="1357.94" cy="181.9" r="24.44"/><circle class="cls-2" cx="1221.94" cy="113.9" r="24.44"/><circle class="cls-2" cx="1810.31" cy="586.81" r="24.44"/><circle class="cls-2" cx="1569.42" cy="886.02" r="24.44"/><circle class="cls-2" cx="1039.17" cy="557.8" r="34.71"/><circle class="cls-2" cx="767.26" cy="488.38" r="34.71"/><circle class="cls-2" cx="1170.29" cy="1028.61" r="34.71"/><circle class="cls-2" cx="1707.9" cy="370.23" r="34.71"/><circle class="cls-2" cx="1688.39" cy="524.31" r="48.04"/><circle class="cls-2" cx="402.08" cy="220.89" r="63.42"/><circle class="cls-2" cx="1771.33" cy="174.11" r="63.42"/><circle class="cls-2" cx="280.63" cy="596.79" r="63.42"/><circle class="cls-2" cx="602.4" cy="628.72" r="63.42"/><circle class="cls-2" cx="1039.17" cy="389.27" r="63.42"/><circle class="cls-2" cx="1246.54" cy="335.52" r="63.42"/><circle class="cls-2" cx="153.78" cy="938.2" r="63.42"/><circle class="cls-2" cx="989.92" cy="886.02" r="63.42"/><circle class="cls-2" cx="1382.38" cy="965.19" r="63.42"/></g><path class="cls-2" d="M283.41,0A69.27,69.27,0,1,0,419.29,0Z"/></svg>