<svg id="Layer_1" data-name="Layer 1" xmlns="http://www.w3.org/2000/svg" viewBox="0 0 133 135"><defs><style>.cls-1{opacity:0.3;}.cls-2{fill:#6ffc00;}.cls-3{fill:#6fe000;}.cls-4{fill:#a1ff9d;}.cls-5{fill:#00920c;}.cls-6{fill:#6fcd00;}.cls-7{opacity:0.11;}.cls-8{fill:#d6ffd6;opacity:0.5;}</style></defs><title>kolorowanka_Artboard 30</title><path class="cls-1" d="M124.51,117.21a2.54,2.54,0,0,0,.11-3.59l-45.08-48L34.09,17.16h0L34,17h0L33.86,17l-.18-.13-.06,0-.14-.07-.12-.06a1.76,1.76,0,0,0-.3-.1l-.06,0a2.47,2.47,0,0,0-.38-.05h-.1l-.28,0-.13,0a1.05,1.05,0,0,0-.24.06l-.13,0-.24.11-.11.06-.3.23,0,0h0l-4.93-2.76L15.24,8.2a3.41,3.41,0,0,0-4.74,4.45L18.35,29h0l0,0a2.09,2.09,0,0,0-.24.28,1,1,0,0,1-.08.11,2.53,2.53,0,0,0-.12.23l-.06.13a2.09,2.09,0,0,0-.08.23l0,.14a2.51,2.51,0,0,0,0,.27v.1a1.62,1.62,0,0,0,0,.38.19.19,0,0,0,0,.07,2.46,2.46,0,0,0,.07.29l.06.14a.75.75,0,0,0,.06.13.25.25,0,0,0,0,.07,2,2,0,0,0,.12.19.56.56,0,0,0,.05.08h0l.13.14h0l90.81,96.75a2.13,2.13,0,0,0,3,.1l5.54-5.21h0ZM18.13,31.88h0l.11.15A1.34,1.34,0,0,1,18.13,31.88Z"/><path class="cls-2" d="M11.56,9l8.91,18.55a3.41,3.41,0,0,0,5.41,1l4.52-4.24,4.53-4.25a3.41,3.41,0,0,0-.67-5.46L16.31,4.58A3.42,3.42,0,0,0,11.56,9Z"/><rect class="cls-2" x="61.78" y="0.88" width="21.72" height="136.96" rx="2.13" transform="matrix(0.73, -0.68, 0.68, 0.73, -27.79, 68.49)"/><path class="cls-3" d="M25.9,21.2,35,13.4l90.83,96.76a2.37,2.37,0,0,1-.11,3.36l-7,6.57Z"/><path class="cls-4" d="M41.52,20.33l78,83.1a2.12,2.12,0,0,1-.1,3l-12.73,12a2.13,2.13,0,0,1-3-.09l-78-83.11a64.32,64.32,0,0,0,8.49-6.82A64.85,64.85,0,0,0,41.52,20.33Z"/><path class="cls-3" d="M47.39,26.59l2.18,2.32a63.31,63.31,0,0,1-7.35,8,64.47,64.47,0,0,1-8.48,6.83l-2.18-2.32A56.38,56.38,0,0,0,37,37.38c1-.85,2-1.77,3.08-2.75s2-2,2.94-2.9A54.29,54.29,0,0,0,47.39,26.59Z"/><path class="cls-3" d="M52.35,31.87l4.36,4.65a66.31,66.31,0,0,1-7.35,8,64.32,64.32,0,0,1-8.49,6.82l-4.36-4.64a56.4,56.4,0,0,0,5.41-4.08c1-.85,2-1.77,3.08-2.75S47,38,47.94,37A55.8,55.8,0,0,0,52.35,31.87Z"/><path class="cls-5" d="M19.19,28.26h0l.12.15-.13-.14Z"/><path class="cls-3" d="M32.64,13.74,22,7.75a4.18,4.18,0,0,0-1.9,1C17.6,11,25,21.32,25.77,22.08s3.82-4.36,7-7.37Z"/><path class="cls-5" d="M35,13.4l.13.15L35,13.41h0Z"/><path class="cls-6" d="M35,13.41h0a54.28,54.28,0,0,1-4.41,5.13c-.91.95-1.9,1.93-2.94,2.9s-2.07,1.9-3.08,2.75a53.35,53.35,0,0,1-5.39,4.07h0a1.79,1.79,0,0,1-.22-.34,2.13,2.13,0,0,1,.44-2.52v0c1.14-.82,2.36-1.78,3.61-2.84,1-.85,2-1.77,3.09-2.75s2-1.95,2.94-2.9c1.13-1.18,2.16-2.34,3.06-3.42l0,0a2.13,2.13,0,0,1,2.54-.28A2,2,0,0,1,35,13.41Z"/><ellipse class="cls-3" cx="76.92" cy="73.92" rx="5.55" ry="33" transform="translate(-29.75 72.66) rotate(-43.18)"/><path class="cls-7" d="M34.17,28.37l-.82.76,78.88,84.05,7.18-6.74a2.12,2.12,0,0,0,.1-3l-78-83.1A64.85,64.85,0,0,1,34.17,28.37Z"/><ellipse class="cls-8" cx="48.91" cy="52.93" rx="2.04" ry="32.32" transform="translate(-22.98 47.81) rotate(-43.18)"/><path class="cls-8" d="M17.24,17.29c.29-.27-2.89-6.15-3.66-9.93-.26-1.28.33-1.66-.06-1.7s-2,.12-1.42,2.05C12.85,10.12,16.66,17.83,17.24,17.29Z"/></svg>