<svg id="Layer_1" data-name="Layer 1" xmlns="http://www.w3.org/2000/svg" xmlns:xlink="http://www.w3.org/1999/xlink" viewBox="0 0 153 130"><defs><style>.cls-1{fill:none;}.cls-2{opacity:0.4;}.cls-3{fill:#ccc;}.cls-4{fill:gray;}.cls-5{fill:#a5a5a5;}.cls-6{fill:#b3b3b3;}.cls-7{fill:#e6e6e6;}.cls-8{clip-path:url(#clip-path);}.cls-9{fill:#72baef;}.cls-10{fill:#4c97ef;}.cls-11{fill:#1668ef;}.cls-12{fill:#1629ef;}.cls-13{clip-path:url(#clip-path-2);}.cls-14{fill:#161da4;}.cls-15{fill:#1659ef;}</style><clipPath id="clip-path"><polygon class="cls-1" points="129.11 39.87 93.13 55.08 79.32 54.48 75.83 50.81 77.53 47.44 108.78 39.38 95.03 24.15 113.58 21.7 125.97 29.37 129.73 35.23 129.11 39.87"/></clipPath><clipPath id="clip-path-2"><path class="cls-1" d="M65.24,54.06c-8.32.1-20.51.6-27.12,6.83-3.27,3.09-8.19,13.17-5.34,18,1.91,3.26,2.74-4.88,4-4.32s-6.31,26.81,1.44,35.7c2.17,2.49,2.41-21.39,4.44-21.39s1.15,5.7,4.07,5.76S48.2,67.75,56,63.05C58.22,61.74,65.24,54.06,65.24,54.06Z"/></clipPath></defs><title>kolorowanka_Artboard 32</title><path class="cls-2" d="M80.55,42.65,53,63.22l-4,9.51,50.89,37.73a4.64,4.64,0,0,0,4.6.55c3.52-1.5,10.22-5.09,17.49-12.77,5.11-5.39,13.38-23.77,13.38-23.77Z"/><polygon class="cls-3" points="135.58 69.08 101.72 106.25 45.69 64.41 88.73 17.17 135.58 69.08"/><ellipse class="cls-3" cx="118.65" cy="87.66" rx="25.14" ry="6.28" transform="translate(-26.06 116.32) rotate(-47.66)"/><path class="cls-4" d="M59.41,74.44C71.9,64.2,91.64,42.44,94.2,25.57c-7.82,5.18-9,7-9,7l-36,34.32Z"/><path class="cls-3" d="M60.81,35c-12.88,14.14-20.19,28.46-16.32,32l2.87,2.62c3.87,3.52,17.44-5.09,30.33-19.22S97.88,21.88,94,18.36l-2.87-2.61C87.27,12.22,73.7,20.83,60.81,35Z"/><path class="cls-5" d="M65.73,57.59,62,58.35l-1-.68,6.16-5.38V50.9L48.58,56.4l-4,2.57c-1.41,3.79-1.53,6.65-.08,8l2.87,2.62c3.17,2.88,12.84-2.37,23.31-12.12Z"/><ellipse class="cls-6" cx="67.21" cy="40.79" rx="31.95" ry="7.98" transform="translate(-8.21 63) rotate(-47.66)"/><circle class="cls-4" cx="79.98" cy="51.49" r="3.52"/><path class="cls-7" d="M94.75,36.19c-1,2.24-2.71,5.85-3.53,7.6a1.38,1.38,0,0,0,.41,1.69l37,28.7a1.4,1.4,0,0,0,2.11-.49l.69-1.42a1.4,1.4,0,0,0-.25-1.59L97,35.79A1.39,1.39,0,0,0,94.75,36.19Z"/><path class="cls-6" d="M73.7,85.33l28,20.92c2.56,2.33,12.22-4.09,21.57-14.36a90.32,90.32,0,0,0,6.8-8.35,42.58,42.58,0,0,1-27.92,11.53C93.45,95.51,80.46,90.38,73.7,85.33Z"/><path class="cls-7" d="M93.83,18.92l-2.63-2.4s1.1,1.83-.11,5.41S86,34.2,74.6,47.14c3.35-2,15.83-15.64,17.81-21.06S93.83,18.92,93.83,18.92Z"/><path class="cls-4" d="M61.31,35.41a120.92,120.92,0,0,0-8.12,9.9c4.81-3,11.7-5.94,18.58-5.42a59.93,59.93,0,0,1,6.09.75c8.91-11,13.66-20.92,10.87-23.47C85.47,14.2,73.19,22.37,61.31,35.41Z"/><circle class="cls-3" cx="79.81" cy="50.17" r="3.52"/><circle class="cls-4" cx="79.81" cy="50.17" r="2.12"/><g class="cls-8"><path class="cls-9" d="M125.59,38.55c-2.09,2.3-6.2,4.5-12.28,6.58-8.76,3-20.55,5.33-33.19,6.56A1.36,1.36,0,0,1,79.86,49c12.44-1.21,24-3.49,32.56-6.42,9.16-3.14,12.23-6.16,12.07-7.8s-3.75-4-13.34-5.32c-9-1.22-20.76-1.23-33.19,0a1.37,1.37,0,0,1-.27-2.72c12.64-1.23,24.66-1.21,33.83,0,10,1.38,15.31,4,15.68,7.76A5.21,5.21,0,0,1,125.59,38.55Z"/><path class="cls-10" d="M123.56,33.32c-1.59-1.39-5.4-2.91-12.41-3.87-9-1.23-20.76-1.25-33.19,0a1.37,1.37,0,0,1-1.49-1.23,1.35,1.35,0,0,1,1.22-1.48c12.64-1.23,24.66-1.22,33.83,0l.86.13h0C117.87,29.08,123.13,31.88,123.56,33.32Z"/><path class="cls-10" d="M123.56,33.32c-1.59-1.39-5.4-2.91-12.41-3.87-9-1.23-20.76-1.25-33.19,0a1.37,1.37,0,0,1-1.49-1.23,1.35,1.35,0,0,1,1.22-1.48c12.64-1.23,24.66-1.22,33.83,0l.86.13h0C117.87,29.08,123.13,31.88,123.56,33.32Z"/><path class="cls-10" d="M126.79,36.79a6.89,6.89,0,0,1-1.2,1.76c-2.09,2.29-6.19,4.5-12.29,6.59-8.75,3-20.54,5.32-33.18,6.55a1.37,1.37,0,0,1-1.49-1.23,1,1,0,0,1,0-.17,2.56,2.56,0,0,0,1.43.65,162.52,162.52,0,0,0,24.26-4.18c8.42-2.39,14.1-3.61,20.31-8A10.58,10.58,0,0,0,126.79,36.79Z"/><path class="cls-11" d="M123.65,34.87c.06,1.29-2.5,2.38-1.45,3.39s1.88,1.72,2.3,2.1,3.62-2.72,3.42-5.65c-.27-3.91-3.79-5.6-4.3-5a35.76,35.76,0,0,0-1.93,3.12C121.44,33.21,123.6,33.84,123.65,34.87Z"/><path class="cls-12" d="M123.22,35.9a1.72,1.72,0,0,0,.43-1c-.05-1-2.21-1.67-2-2.08.12-.21.49-.87.89-1.55C123.05,31.86,125.13,33.94,123.22,35.9Z"/><path class="cls-12" d="M127.83,34c0,.24.07.47.09.72.2,2.93-3,6-3.41,5.65s-.69-.6-1.22-1.08A9.15,9.15,0,0,0,127.83,34Z"/><path class="cls-12" d="M122.59,31.24c.46.62,2.54,2.7.63,4.66a1.72,1.72,0,0,0,.43-1c-.05-1-2.21-1.67-2-2.08C121.82,32.58,122.19,31.92,122.59,31.24Z"/><path class="cls-12" d="M127.83,34c0,.24.07.47.09.72.2,2.93-3,6-3.41,5.65s-.69-.6-1.22-1.08A9.15,9.15,0,0,0,127.83,34Z"/></g><path class="cls-12" d="M65.24,54.06c-8.32.1-20.51.6-27.12,6.83-3.27,3.09-8.19,13.17-5.34,18,1.91,3.26,2.74-4.88,4-4.32s-6.31,26.81,1.44,35.7c2.17,2.49,2.41-21.39,4.44-21.39s1.15,5.7,4.07,5.76S48.2,67.75,56,63.05C58.22,61.74,65.24,54.06,65.24,54.06Z"/><g class="cls-13"><path class="cls-14" d="M64.37,55.68a8.23,8.23,0,0,0-5.92,1.06c-3.22,1.61-5.78,7.36-7.2,10.84C49.74,71.24,45.7,77.07,47.06,91c.23,2.27-2.4,3.11-2.4,3.11s-.44-4.93-2-5.19-4.06,7.2-4.57,10.68S36.43,110,36.43,110l4.74,3.9L27.28,110.1,33.8,83.54s3.3-8.51,3-8.93S35,74.27,34.39,75s-3.13,6.44-3.13,6.44L26.6,117.13l16.86,2.28L54.63,110l4.66-39.66,5.95-12.17Z"/><path class="cls-14" d="M66.58,50.28,44,54.06,40.47,57s9.91-1.51,12,0,.78,5,.49,6.26,1.15,1.63,1.15,1.63l14.43-3.14,1.85-10.22Z"/><path class="cls-15" d="M46.7,58.66c-1.63-1.67-8.33,3.56-10.42,7s0,1.4,1.46.83,2,.83,2,1.83c-.09,1.3-2,9.85-1.53,13.92.1.88,3.39-7.79,4.39-8.39s2.16-.38,2.66-5.08S48.75,60.76,46.7,58.66Z"/></g></svg>