<svg id="Layer_1" data-name="Layer 1" xmlns="http://www.w3.org/2000/svg" viewBox="0 0 147 151"><defs><style>.cls-1{opacity:0.3;}.cls-2{fill:#f640e4;}.cls-3{fill:#d11ae4;}.cls-4{fill:#f695e4;}.cls-5{fill:#00920c;}.cls-6{fill:#a700e4;}.cls-7{opacity:0.11;}.cls-8{fill:#e5ffff;}.cls-8,.cls-9{opacity:0.5;}.cls-9{fill:#efffff;}</style></defs><title>kolorowanka_Artboard 24</title><path class="cls-1" d="M129.85,128.62a2.06,2.06,0,0,0,.1-2.92L84.54,77.32,39.09,28.89h0L39,28.75h0a.47.47,0,0,0-.09-.06l-.18-.14-.06,0a.61.61,0,0,0-.14-.07l-.12-.06-.3-.1-.06,0a2.47,2.47,0,0,0-.38-.05h-.38l-.13,0-.24.06-.13.05-.24.11-.11.07a2.86,2.86,0,0,0-.3.22l0,0h0L31.14,26l-10.9-6.11a3.41,3.41,0,0,0-4.74,4.45l7.85,16.36h0l0,0a2.09,2.09,0,0,0-.24.28,1,1,0,0,1-.08.11,2.53,2.53,0,0,0-.12.23l-.06.13c0,.08-.06.16-.08.23l0,.14a2.51,2.51,0,0,0,0,.27v.1a1.62,1.62,0,0,0,0,.38.19.19,0,0,0,0,.07,2.46,2.46,0,0,0,.07.29l.06.14a.75.75,0,0,0,.06.13.16.16,0,0,0,0,.07,1.22,1.22,0,0,0,.12.19l.05.09h0l.13.14h0l90.81,96.76a2.14,2.14,0,0,0,3,.09l5.54-5.21h0Zm-106.72-85h0l.11.15A1.34,1.34,0,0,1,23.13,43.61Z"/><path class="cls-2" d="M16.56,20.77l8.91,18.55a3.41,3.41,0,0,0,5.41,1l4.52-4.24,4.53-4.25a3.41,3.41,0,0,0-.67-5.46L21.31,16.32A3.41,3.41,0,0,0,16.56,20.77Z"/><rect class="cls-2" x="66.78" y="12.61" width="21.72" height="136.96" rx="2.13" transform="translate(-34.47 75.09) rotate(-43.18)"/><path class="cls-3" d="M30.9,32.93,40,25.14,131,122a2.17,2.17,0,0,1-.1,3.07l-7.15,6.71Z"/><path class="cls-4" d="M46.52,32.06l78,83.1a2.13,2.13,0,0,1-.1,3l-12.73,11.94a2.12,2.12,0,0,1-3-.09l-78-83.1a65.32,65.32,0,0,0,8.49-6.83A64.85,64.85,0,0,0,46.52,32.06Z"/><path class="cls-3" d="M52.39,38.32l2.18,2.33a64.69,64.69,0,0,1-7.35,8,64.3,64.3,0,0,1-8.48,6.82l-2.18-2.32A54.76,54.76,0,0,0,42,49.11c1-.85,2-1.77,3.08-2.75s2-2,2.94-2.9A53.06,53.06,0,0,0,52.39,38.32Z"/><path class="cls-3" d="M57.35,43.6l4.36,4.65a65.57,65.57,0,0,1-7.35,8,64.32,64.32,0,0,1-8.49,6.82l-4.36-4.64a54.78,54.78,0,0,0,5.41-4.08c1-.85,2-1.77,3.08-2.75s2-2,2.94-2.9A55.8,55.8,0,0,0,57.35,43.6Z"/><path class="cls-5" d="M24.19,40h0l.12.15L24.18,40Z"/><path class="cls-3" d="M37.64,25.47,27,19.48a4.18,4.18,0,0,0-1.9,1c-2.45,2.3,5,12.61,5.72,13.37s3.82-4.36,7-7.37Z"/><path class="cls-5" d="M40,25.14l.13.14L40,25.15h0Z"/><path class="cls-6" d="M40,25.14h0a54.27,54.27,0,0,1-4.41,5.12c-.91.95-1.9,1.93-2.94,2.9s-2.07,1.9-3.08,2.76A54.65,54.65,0,0,1,24.19,40h0a1.79,1.79,0,0,1-.22-.34,2.13,2.13,0,0,1,.44-2.52h0c1.14-.83,2.36-1.79,3.61-2.85,1-.85,2-1.77,3.09-2.75s2-1.95,2.94-2.9c1.13-1.18,2.16-2.33,3.06-3.42l0,0a2.13,2.13,0,0,1,2.54-.28A2,2,0,0,1,40,25.14Z"/><ellipse class="cls-3" cx="81.92" cy="85.65" rx="5.55" ry="33" transform="translate(-36.43 79.26) rotate(-43.18)"/><path class="cls-7" d="M39.17,40.1l-.82.76,78.88,84.05,7.18-6.73a2.13,2.13,0,0,0,.1-3l-78-83.1A64.85,64.85,0,0,1,39.17,40.1Z"/><ellipse class="cls-8" cx="53.91" cy="64.66" rx="2.04" ry="32.32" transform="translate(-29.65 54.41) rotate(-43.18)"/><path class="cls-9" d="M22.24,29c.29-.27-2.89-6.15-3.66-9.92-.26-1.29.33-1.67-.06-1.71s-2,.12-1.42,2.05C17.85,21.85,21.66,29.56,22.24,29Z"/></svg>