<svg id="Layer_1" data-name="Layer 1" xmlns="http://www.w3.org/2000/svg" viewBox="0 0 255 99"><defs><style>.cls-1{opacity:0.3;}.cls-2,.cls-3{fill:none;stroke-linecap:round;stroke-linejoin:round;}.cls-2{stroke:#000;stroke-width:13.49px;}.cls-3{stroke:#0071bc;stroke-width:11.57px;}.cls-4{fill:#0071bc;}.cls-5{fill:#006dff;}.cls-6{fill:#fff;}</style></defs><title>kolorowanka_Artboard 7</title><g class="cls-1"><path class="cls-2" d="M113,51.42c.36-14.07.66-15.87,3.83-17.6,1.73-1.08,5.62-.66,6.7.72a2.28,2.28,0,0,1-.72,2.45c-.71.36-1.43.66-1.43,1.38,0,.36-.3,6.34-.3,13.35-.72,20.71-.72,21.78-2.82,22.5a3.17,3.17,0,0,1-3.89-.36,28.44,28.44,0,0,1-3.53-4.9c-1.37-2.1-3.11-5-3.83-6.35-1.74-1.74-1.74-1.74-2.45-1-1.38,2.1-2.52,3.47-4.61,6.65-2.1,3.53-3.83,6-4.91,6.7a3,3,0,0,1-3.47-1.44c-1.08-1.07-1.08-2.81-1.8-15.8-.36-6-.66-13.35-1-16.16-.36-6,0-6.29,2.46-6.64S95,35.25,95.71,37c.72,1.08,1.07,2.45,1.07,9.46.36,4.55.66,9.88.66,12,0,3.17,0,3.53.36,2.81,3.89-5.26,5.27-6.34,8.08-6,1.38,0,1.8.36,3.54,2.09a16.33,16.33,0,0,1,3.17,3.89C113,62,113,59.14,113,51.42Z"/><path class="cls-2" d="M138.68,46.09c0-9.94.48-12.21,3.12-12.87a6.37,6.37,0,0,1,4,.24,2.42,2.42,0,0,1,1.07,2.87c-.23.66-.41,6.65-.41,13.71-.42,18.62-.48,18.38-.9,20.17-.42.9-.84,1.8-1.08,2.22A8.81,8.81,0,0,1,137,74.88a6.23,6.23,0,0,1-3.77-1.79,4.31,4.31,0,0,1-1.8-3.3c.24-1.07.24-1.37.9-2a3.83,3.83,0,0,1,3.35-1.08c.9.24,1.5.84,1.74,2.4.24.65.48,1.13.48,1.13.65.24.65-1.79.65-8.2s0-6.4-1.79-6.64a11.56,11.56,0,0,1-5.09-1.32,5.21,5.21,0,0,1-3.11-2.63c-2.46-3.3-3.12-12.16-.9-16.17.42-1.07,3.53-1.55,5.33-.89,1.31.42,1.31.83.89,4.85-.41,5.5.24,9.27,2.22,11.07a4.18,4.18,0,0,0,2.45,1.14S138.68,49.2,138.68,46.09Z"/><path class="cls-2" d="M160.29,33.76a18.21,18.21,0,0,1,3.12-.78,17.71,17.71,0,0,1,5.68.36,13.12,13.12,0,0,1,5.15,2.75,8.49,8.49,0,0,1,2.33,4.55,6.23,6.23,0,0,1,0,2.58,6.33,6.33,0,0,1-1.73,3.11,3.51,3.51,0,0,1-3,1.2,2.91,2.91,0,0,1-2.76-1.2c-.42-.42-.36-.54-.18-1.14a9,9,0,0,0,0-4.73,5.4,5.4,0,0,0-2.33-2.57c-.78-.42-1-.42-2.16,0a17,17,0,0,0-6.52,4.91,5.55,5.55,0,0,0-.18,5.5c1.37,2.76,3.11,3.78,8.62,5.15,1.37.42,3,1,3.77,1.14,1.38.42,4.31,1.79,4.73,2,0,.18.36.6,1,.78a12.46,12.46,0,0,1,2.75,3.95,11.43,11.43,0,0,1,0,5.33,15.13,15.13,0,0,1-2,3.95,16.33,16.33,0,0,1-5.68,3.53,26.56,26.56,0,0,1-14.19-.18,47.52,47.52,0,0,1-4.31-2.21,2,2,0,0,1,.42-3.35c1-.6,3.77-.78,4.73-.18a19.63,19.63,0,0,0,6.28,1.55A5.61,5.61,0,0,0,168.55,68a5.06,5.06,0,0,0,1.56-4c0-2-.42-2.52-1.8-3.71-1.19-.78-1.79-1-6.88-2.4-4.73-1.2-7.12-2.39-9.46-4.73a9.55,9.55,0,0,1-3.29-7.48,7.51,7.51,0,0,1,.78-3.53,12.89,12.89,0,0,1,3.89-4.73c.6-.18,1-.6,1-.78A33.91,33.91,0,0,1,160.29,33.76Z"/><path class="cls-2" d="M181.12,53.33c.48-17.18.48-19.57,1-20S184,32.8,185,32.8c1.92,0,2.4,0,3.35,1s1,1.43,1,7.66c0,7.18-.48,20-1,23.41-.47,2.39-.53,2.39,6.17,1.91,6.23,0,6.7.42,8.14,1.38a2.24,2.24,0,0,1,0,3.83c-2.87,2.39-17.66,3.35-20.53,1.44C180.64,72.43,180.64,72.43,181.12,53.33Z"/><path class="cls-2" d="M207.4,34.24c.3-.3.84-.84,1.37-.84.84-.54,3.12-.3,4.25,0a5.1,5.1,0,0,1,2,3.41c0,1.68-.3,12.39-.84,20.83-.84,14.67-1.2,16.28-3.71,17.12-1.14.54-2.21.3-3.35-.84-.84-.83-.84-.83-.54-17.42.3-9.27.24-18,.24-19.45C206.5,35.08,206.86,34.78,207.4,34.24Z"/><path class="cls-2" d="M222.78,34.9a3.74,3.74,0,0,1,1.8-1.8,5.68,5.68,0,0,1,4.55.24c.47.24,1,.54,1,.54v6c0,3.3.36,11.68.6,17.48.78,13.65.72,14.91-2,16.94a8.44,8.44,0,0,1-7.31,1.26c-3.77-1-5.56-4.79-3.53-6.82,1.5-1.26,2.76-1.56,3.77-.54a3.45,3.45,0,0,1,1,1.79c.24.78.54,1,.78,1,.48,0,.48-2.27.24-7.6-1-14.91-1.38-18.68-1.38-22.75C222.3,36.39,222.3,36.15,222.78,34.9Z"/><path d="M61.65,55.86A17.45,17.45,0,1,1,79.1,38.41,17.47,17.47,0,0,1,61.65,55.86Zm0-17.81a.36.36,0,1,0,.36.36A.36.36,0,0,0,61.65,38.05Z"/><path d="M61.65,86.93A17.45,17.45,0,1,1,79.1,69.48,17.47,17.47,0,0,1,61.65,86.93Zm0-17.81a.36.36,0,1,0,.36.36A.36.36,0,0,0,61.65,69.12Z"/><path d="M37.88,71.94A17.46,17.46,0,1,1,55.34,54.49,17.47,17.47,0,0,1,37.88,71.94Zm0-17.81a.36.36,0,1,0,0,.71.36.36,0,1,0,0-.71Z"/><path d="M45.56,58.19a6.73,6.73,0,0,1-5.61-3l-2.7-4a6.74,6.74,0,0,1,1.84-9.36l10.08-6.76a6.75,6.75,0,0,1,9.36,1.84l2.7,4a6.74,6.74,0,0,1-1.85,9.36L49.31,57.05A6.73,6.73,0,0,1,45.56,58.19Z"/><path d="M53.62,74.49a6.69,6.69,0,0,1-3.76-1.15L39.79,66.58A6.74,6.74,0,0,1,38,57.22l2.69-4A6.76,6.76,0,0,1,50,51.36l10.07,6.76a6.77,6.77,0,0,1,2.86,4.3,6.7,6.7,0,0,1-1,5.06l-2.69,4A6.76,6.76,0,0,1,53.62,74.49Z"/><path d="M165.7,35.36a7.48,7.48,0,0,1-3-.66c-5.37-2.39-5.37-9.31-5.37-13a13,13,0,0,1,4.82-9.85,11.62,11.62,0,0,1,9.31-3c3.43.6,5.76,2.19,6.92,4.75,1.75,3.86-.25,7.15-1.58,9.34-.5.83-1.07,1.77-1.64,2.9A12.85,12.85,0,0,0,174,28.58a9,9,0,0,1-2.71,4.5A8.34,8.34,0,0,1,165.7,35.36Z"/></g><path class="cls-3" d="M112,50.45c.36-14.06.66-15.86,3.83-17.6,1.74-1.07,5.63-.65,6.71.72A2.29,2.29,0,0,1,121.8,36c-.72.36-1.44.65-1.44,1.37,0,.36-.3,6.35-.3,13.35-.71,20.71-.71,21.79-2.81,22.51a3.17,3.17,0,0,1-3.89-.36A28.25,28.25,0,0,1,109.83,68c-1.38-2.09-3.12-5-3.83-6.34-1.74-1.74-1.74-1.74-2.46-1-1.37,2.09-2.51,3.47-4.61,6.64C96.84,70.8,95.1,73.26,94,74a3,3,0,0,1-3.47-1.44c-1.07-1.08-1.07-2.81-1.79-15.8-.36-6-.66-13.35-1-16.16-.36-6,0-6.29,2.45-6.65s3.83.36,4.55,2.1c.72,1.07,1.08,2.45,1.08,9.45.36,4.55.66,9.88.66,12,0,3.17,0,3.53.36,2.81,3.89-5.27,5.27-6.35,8.08-6,1.38,0,1.79.36,3.53,2.1a15.66,15.66,0,0,1,3.17,3.89C112,61,112,58.17,112,50.45Z"/><path class="cls-3" d="M137.72,45.13c0-9.94.48-12.22,3.11-12.88a6.51,6.51,0,0,1,4,.24,2.42,2.42,0,0,1,1.08,2.88c-.24.66-.42,6.64-.42,13.71-.42,18.61-.48,18.37-.9,20.17-.42.9-.83,1.79-1.07,2.21A8.79,8.79,0,0,1,136,73.92a6.24,6.24,0,0,1-3.77-1.8,4.28,4.28,0,0,1-1.79-3.29c.24-1.08.24-1.38.89-2a3.87,3.87,0,0,1,3.36-1.07c.89.24,1.49.83,1.73,2.39a12,12,0,0,0,.48,1.14c.66.24.66-1.8.66-8.2s0-6.41-1.8-6.65a11.65,11.65,0,0,1-5.08-1.31,5.21,5.21,0,0,1-3.12-2.64c-2.45-3.29-3.11-12.15-.89-16.16.41-1.08,3.53-1.56,5.32-.9,1.32.42,1.32.84.9,4.85-.42,5.51.24,9.28,2.22,11.08a4.17,4.17,0,0,0,2.45,1.13S137.72,48.24,137.72,45.13Z"/><path class="cls-3" d="M159.33,32.79a19,19,0,0,1,3.11-.77,17.75,17.75,0,0,1,5.69.36,12.93,12.93,0,0,1,5.15,2.75,8.56,8.56,0,0,1,2.33,4.55,6.18,6.18,0,0,1,0,2.57,6.34,6.34,0,0,1-1.74,3.11,3.49,3.49,0,0,1-3,1.2,2.89,2.89,0,0,1-2.75-1.2c-.42-.41-.36-.53-.18-1.13a9,9,0,0,0,0-4.73,5.44,5.44,0,0,0-2.34-2.58c-.77-.42-1-.42-2.15,0a17.17,17.17,0,0,0-6.53,4.91,5.62,5.62,0,0,0-.18,5.51c1.38,2.75,3.12,3.77,8.62,5.15,1.38.42,3,1,3.78,1.14,1.37.41,4.31,1.79,4.72,2,0,.18.36.6,1,.78a12.21,12.21,0,0,1,2.76,3.95,11.7,11.7,0,0,1,0,5.33,15.29,15.29,0,0,1-2,4,16.52,16.52,0,0,1-5.69,3.53A26.52,26.52,0,0,1,155.74,73c-1-.42-3.71-1.8-4.31-2.21a2,2,0,0,1,.42-3.36,6.5,6.5,0,0,1,4.73-.18,19.6,19.6,0,0,0,6.28,1.56A5.63,5.63,0,0,0,167.59,67a5,5,0,0,0,1.56-4c0-2-.42-2.51-1.8-3.71-1.2-.78-1.8-1-6.88-2.39-4.73-1.2-7.13-2.4-9.46-4.73a9.53,9.53,0,0,1-3.29-7.48,7.69,7.69,0,0,1,.77-3.54,13.08,13.08,0,0,1,3.89-4.73c.6-.17,1-.59,1-.77A34,34,0,0,1,159.33,32.79Z"/><path class="cls-3" d="M180.16,52.37c.48-17.18.48-19.58,1-20s1.91-.48,2.87-.48c1.91,0,2.39,0,3.35.95s1,1.44,1,7.67c0,7.18-.48,20-1,23.4-.48,2.4-.54,2.4,6.17,1.92,6.22,0,6.7.42,8.14,1.37a2.25,2.25,0,0,1,0,3.83c-2.88,2.4-17.66,3.36-20.53,1.44C179.68,71.46,179.68,71.46,180.16,52.37Z"/><path class="cls-3" d="M206.43,33.27c.3-.3.84-.84,1.38-.84.84-.53,3.11-.29,4.25,0a5.12,5.12,0,0,1,2,3.42c0,1.67-.3,12.39-.84,20.83C212.36,71.34,212,73,209.49,73.8c-1.14.54-2.22.3-3.36-.84-.83-.84-.83-.84-.53-17.42.3-9.28.23-18,.23-19.45C205.54,34.11,205.9,33.81,206.43,33.27Z"/><path class="cls-3" d="M221.82,33.93a3.66,3.66,0,0,1,1.79-1.79,5.68,5.68,0,0,1,4.55.24c.48.23,1,.53,1,.53V39c0,3.29.36,11.67.6,17.48.78,13.65.72,14.9-2,16.94a8.46,8.46,0,0,1-7.3,1.26c-3.77-1-5.57-4.79-3.53-6.83,1.5-1.26,2.75-1.55,3.77-.54a3.47,3.47,0,0,1,1,1.8c.24.78.54,1,.78,1,.47,0,.47-2.28.23-7.61-1-14.9-1.37-18.67-1.37-22.74C221.34,35.43,221.34,35.19,221.82,33.93Z"/><path class="cls-4" d="M60.69,53.93A16.49,16.49,0,1,1,77.18,37.45,16.5,16.5,0,0,1,60.69,53.93Zm0-17.81A1.33,1.33,0,1,0,62,37.45,1.34,1.34,0,0,0,60.69,36.12Z"/><path class="cls-4" d="M60.69,85A16.49,16.49,0,1,1,77.18,68.52,16.5,16.5,0,0,1,60.69,85Zm0-17.81a1.33,1.33,0,1,0,0,2.65,1.33,1.33,0,0,0,0-2.65Z"/><path class="cls-4" d="M36.92,70A16.49,16.49,0,1,1,53.41,53.52,16.51,16.51,0,0,1,36.92,70Zm0-17.81a1.32,1.32,0,1,0,1.32,1.32A1.32,1.32,0,0,0,36.92,52.2Z"/><path class="cls-4" d="M44.59,56.26a5.77,5.77,0,0,1-4.81-2.56l-2.69-4a5.76,5.76,0,0,1,1.58-8L48.74,34.9a5.77,5.77,0,0,1,8,1.58l2.69,4a5.77,5.77,0,0,1-1.58,8L47.81,55.28A5.71,5.71,0,0,1,44.59,56.26Z"/><path class="cls-4" d="M52.65,72.56a5.78,5.78,0,0,1-3.21-1L39.36,64.82a5.8,5.8,0,0,1-1.58-8l2.7-4a5.77,5.77,0,0,1,8-1.58L58.58,58a5.78,5.78,0,0,1,1.58,8l-2.7,4A5.78,5.78,0,0,1,52.65,72.56Z"/><path class="cls-4" d="M164.73,33.42a6.5,6.5,0,0,1-2.65-.56c-4.43-2-4.8-7.31-4.8-12.16a12,12,0,0,1,4.48-9.11,10.78,10.78,0,0,1,8.52-2.75c1.15.2,4.67.81,6.21,4.19s-.23,6.31-1.52,8.44c-.52.85-1.1,1.81-1.68,3a14,14,0,0,0-1.19,2.9,8,8,0,0,1-2.43,4.06A7.4,7.4,0,0,1,164.73,33.42Zm4.39-8.82Z"/><path class="cls-5" d="M112,50.45c.36-14.06.66-15.86,3.83-17.6,1.74-1.07,5.63-.65,6.71.72A2.29,2.29,0,0,1,121.8,36c-.72.36-1.44.65-1.44,1.37,0,.36-.3,6.35-.3,13.35-.71,20.71-.71,21.79-2.81,22.51a3.17,3.17,0,0,1-3.89-.36A28.25,28.25,0,0,1,109.83,68c-1.38-2.09-3.12-5-3.83-6.34-1.74-1.74-1.74-1.74-2.46-1-1.37,2.09-2.51,3.47-4.61,6.64C96.84,70.8,95.1,73.26,94,74a3,3,0,0,1-3.47-1.44c-1.07-1.08-1.07-2.81-1.79-15.8-.36-6-.66-13.35-1-16.16-.36-6,0-6.29,2.45-6.65s3.83.36,4.55,2.1c.72,1.07,1.08,2.45,1.08,9.45.36,4.55.66,9.88.66,12,0,3.17,0,3.53.36,2.81,3.89-5.27,5.27-6.35,8.08-6,1.38,0,1.79.36,3.53,2.1a15.66,15.66,0,0,1,3.17,3.89C112,61,112,58.17,112,50.45Z"/><path class="cls-5" d="M137.72,45.13c0-9.94.48-12.22,3.11-12.88a6.51,6.51,0,0,1,4,.24,2.42,2.42,0,0,1,1.08,2.88c-.24.66-.42,6.64-.42,13.71-.42,18.61-.48,18.37-.9,20.17-.42.9-.83,1.79-1.07,2.21A8.79,8.79,0,0,1,136,73.92a6.24,6.24,0,0,1-3.77-1.8,4.28,4.28,0,0,1-1.79-3.29c.24-1.08.24-1.38.89-2a3.87,3.87,0,0,1,3.36-1.07c.89.24,1.49.83,1.73,2.39a12,12,0,0,0,.48,1.14c.66.24.66-1.8.66-8.2s0-6.41-1.8-6.65a11.65,11.65,0,0,1-5.08-1.31,5.21,5.21,0,0,1-3.12-2.64c-2.45-3.29-3.11-12.15-.89-16.16.41-1.08,3.53-1.56,5.32-.9,1.32.42,1.32.84.9,4.85-.42,5.51.24,9.28,2.22,11.08a4.17,4.17,0,0,0,2.45,1.13S137.72,48.24,137.72,45.13Z"/><path class="cls-5" d="M159.33,32.79a19,19,0,0,1,3.11-.77,17.75,17.75,0,0,1,5.69.36,12.93,12.93,0,0,1,5.15,2.75,8.56,8.56,0,0,1,2.33,4.55,6.18,6.18,0,0,1,0,2.57,6.34,6.34,0,0,1-1.74,3.11,3.49,3.49,0,0,1-3,1.2,2.89,2.89,0,0,1-2.75-1.2c-.42-.41-.36-.53-.18-1.13a9,9,0,0,0,0-4.73,5.44,5.44,0,0,0-2.34-2.58c-.77-.42-1-.42-2.15,0a17.17,17.17,0,0,0-6.53,4.91,5.62,5.62,0,0,0-.18,5.51c1.38,2.75,3.12,3.77,8.62,5.15,1.38.42,3,1,3.78,1.14,1.37.41,4.31,1.79,4.72,2,0,.18.36.6,1,.78a12.21,12.21,0,0,1,2.76,3.95,11.7,11.7,0,0,1,0,5.33,15.29,15.29,0,0,1-2,4,16.52,16.52,0,0,1-5.69,3.53A26.52,26.52,0,0,1,155.74,73c-1-.42-3.71-1.8-4.31-2.21a2,2,0,0,1,.42-3.36,6.5,6.5,0,0,1,4.73-.18,19.6,19.6,0,0,0,6.28,1.56A5.63,5.63,0,0,0,167.59,67a5,5,0,0,0,1.56-4c0-2-.42-2.51-1.8-3.71-1.2-.78-1.8-1-6.88-2.39-4.73-1.2-7.13-2.4-9.46-4.73a9.53,9.53,0,0,1-3.29-7.48,7.69,7.69,0,0,1,.77-3.54,13.08,13.08,0,0,1,3.89-4.73c.6-.17,1-.59,1-.77A34,34,0,0,1,159.33,32.79Z"/><path class="cls-5" d="M180.16,52.37c.48-17.18.48-19.58,1-20s1.91-.48,2.87-.48c1.91,0,2.39,0,3.35.95s1,1.44,1,7.67c0,7.18-.48,20-1,23.4-.48,2.4-.54,2.4,6.17,1.92,6.22,0,6.7.42,8.14,1.37a2.25,2.25,0,0,1,0,3.83c-2.88,2.4-17.66,3.36-20.53,1.44C179.68,71.46,179.68,71.46,180.16,52.37Z"/><path class="cls-5" d="M206.43,33.27c.3-.3.84-.84,1.38-.84.84-.53,3.11-.29,4.25,0a5.12,5.12,0,0,1,2,3.42c0,1.67-.3,12.39-.84,20.83C212.36,71.34,212,73,209.49,73.8c-1.14.54-2.22.3-3.36-.84-.83-.84-.83-.84-.53-17.42.3-9.28.23-18,.23-19.45C205.54,34.11,205.9,33.81,206.43,33.27Z"/><path class="cls-5" d="M221.82,33.93a3.66,3.66,0,0,1,1.79-1.79,5.68,5.68,0,0,1,4.55.24c.48.23,1,.53,1,.53V39c0,3.29.36,11.67.6,17.48.78,13.65.72,14.9-2,16.94a8.46,8.46,0,0,1-7.3,1.26c-3.77-1-5.57-4.79-3.53-6.83,1.5-1.26,2.75-1.55,3.77-.54a3.47,3.47,0,0,1,1,1.8c.24.78.54,1,.78,1,.47,0,.47-2.28.23-7.61-1-14.9-1.37-18.67-1.37-22.74C221.34,35.43,221.34,35.19,221.82,33.93Z"/><rect class="cls-4" x="37.46" y="37.92" width="21.64" height="14.34" transform="translate(-16.94 34.55) rotate(-33.87)"/><rect class="cls-4" x="41.8" y="50.57" width="14.34" height="21.64" transform="translate(-29.29 67.84) rotate(-56.13)"/><path class="cls-6" d="M112,50.45c.36-14.06.66-15.86,3.83-17.6,1.74-1.07,5.63-.65,6.71.72A2.29,2.29,0,0,1,121.8,36c-.72.36-1.44.65-1.44,1.37,0,.36-.3,6.35-.3,13.35-.71,20.71-.71,21.79-2.81,22.51a3.17,3.17,0,0,1-3.89-.36A28.25,28.25,0,0,1,109.83,68c-1.38-2.09-3.12-5-3.83-6.34-1.74-1.74-1.74-1.74-2.46-1-1.37,2.09-2.51,3.47-4.61,6.64C96.84,70.8,95.1,73.26,94,74a3,3,0,0,1-3.47-1.44c-1.07-1.08-1.07-2.81-1.79-15.8-.36-6-.66-13.35-1-16.16-.36-6,0-6.29,2.45-6.65s3.83.36,4.55,2.1c.72,1.07,1.08,2.45,1.08,9.45.36,4.55.66,9.88.66,12,0,3.17,0,3.53.36,2.81,3.89-5.27,5.27-6.35,8.08-6,1.38,0,1.79.36,3.53,2.1a15.66,15.66,0,0,1,3.17,3.89C112,61,112,58.17,112,50.45Z"/><path class="cls-6" d="M137.72,45.13c0-9.94.48-12.22,3.11-12.88a6.51,6.51,0,0,1,4,.24,2.42,2.42,0,0,1,1.08,2.88c-.24.66-.42,6.64-.42,13.71-.42,18.61-.48,18.37-.9,20.17-.42.9-.83,1.79-1.07,2.21A8.79,8.79,0,0,1,136,73.92a6.24,6.24,0,0,1-3.77-1.8,4.28,4.28,0,0,1-1.79-3.29c.24-1.08.24-1.38.89-2a3.87,3.87,0,0,1,3.36-1.07c.89.24,1.49.83,1.73,2.39a12,12,0,0,0,.48,1.14c.66.24.66-1.8.66-8.2s0-6.41-1.8-6.65a11.65,11.65,0,0,1-5.08-1.31,5.21,5.21,0,0,1-3.12-2.64c-2.45-3.29-3.11-12.15-.89-16.16.41-1.08,3.53-1.56,5.32-.9,1.32.42,1.32.84.9,4.85-.42,5.51.24,9.28,2.22,11.08a4.17,4.17,0,0,0,2.45,1.13S137.72,48.24,137.72,45.13Z"/><path class="cls-6" d="M159.33,32.79a19,19,0,0,1,3.11-.77,17.75,17.75,0,0,1,5.69.36,12.93,12.93,0,0,1,5.15,2.75,8.56,8.56,0,0,1,2.33,4.55,6.18,6.18,0,0,1,0,2.57,6.34,6.34,0,0,1-1.74,3.11,3.49,3.49,0,0,1-3,1.2,2.89,2.89,0,0,1-2.75-1.2c-.42-.41-.36-.53-.18-1.13a9,9,0,0,0,0-4.73,5.44,5.44,0,0,0-2.34-2.58c-.77-.42-1-.42-2.15,0a17.17,17.17,0,0,0-6.53,4.91,5.62,5.62,0,0,0-.18,5.51c1.38,2.75,3.12,3.77,8.62,5.15,1.38.42,3,1,3.78,1.14,1.37.41,4.31,1.79,4.72,2,0,.18.36.6,1,.78a12.21,12.21,0,0,1,2.76,3.95,11.7,11.7,0,0,1,0,5.33,15.29,15.29,0,0,1-2,4,16.52,16.52,0,0,1-5.69,3.53A26.52,26.52,0,0,1,155.74,73c-1-.42-3.71-1.8-4.31-2.21a2,2,0,0,1,.42-3.36,6.5,6.5,0,0,1,4.73-.18,19.6,19.6,0,0,0,6.28,1.56A5.63,5.63,0,0,0,167.59,67a5,5,0,0,0,1.56-4c0-2-.42-2.51-1.8-3.71-1.2-.78-1.8-1-6.88-2.39-4.73-1.2-7.13-2.4-9.46-4.73a9.53,9.53,0,0,1-3.29-7.48,7.69,7.69,0,0,1,.77-3.54,13.08,13.08,0,0,1,3.89-4.73c.6-.17,1-.59,1-.77A34,34,0,0,1,159.33,32.79Z"/><path class="cls-6" d="M180.16,52.37c.48-17.18.48-19.58,1-20s1.91-.48,2.87-.48c1.91,0,2.39,0,3.35.95s1,1.44,1,7.67c0,7.18-.48,20-1,23.4-.48,2.4-.54,2.4,6.17,1.92,6.22,0,6.7.42,8.14,1.37a2.25,2.25,0,0,1,0,3.83c-2.88,2.4-17.66,3.36-20.53,1.44C179.68,71.46,179.68,71.46,180.16,52.37Z"/><path class="cls-6" d="M206.43,33.27c.3-.3.84-.84,1.38-.84.84-.53,3.11-.29,4.25,0a5.12,5.12,0,0,1,2,3.42c0,1.67-.3,12.39-.84,20.83C212.36,71.34,212,73,209.49,73.8c-1.14.54-2.22.3-3.36-.84-.83-.84-.83-.84-.53-17.42.3-9.28.23-18,.23-19.45C205.54,34.11,205.9,33.81,206.43,33.27Z"/><path class="cls-6" d="M221.82,33.93a3.66,3.66,0,0,1,1.79-1.79,5.68,5.68,0,0,1,4.55.24c.48.23,1,.53,1,.53V39c0,3.29.36,11.67.6,17.48.78,13.65.72,14.9-2,16.94a8.46,8.46,0,0,1-7.3,1.26c-3.77-1-5.57-4.79-3.53-6.83,1.5-1.26,2.75-1.55,3.77-.54a3.47,3.47,0,0,1,1,1.8c.24.78.54,1,.78,1,.47,0,.47-2.28.23-7.61-1-14.9-1.37-18.67-1.37-22.74C221.34,35.43,221.34,35.19,221.82,33.93Z"/><path class="cls-6" d="M60.69,26.74a10.71,10.71,0,1,0,10.7,10.71A10.7,10.7,0,0,0,60.69,26.74Zm0,17.81a7.11,7.11,0,1,1,7.1-7.1A7.1,7.1,0,0,1,60.69,44.55Z"/><path class="cls-6" d="M60.69,57.81a10.71,10.71,0,1,0,10.7,10.71A10.7,10.7,0,0,0,60.69,57.81Zm0,17.81a7.11,7.11,0,1,1,7.1-7.1A7.1,7.1,0,0,1,60.69,75.62Z"/><path class="cls-6" d="M36.92,42.82a10.71,10.71,0,1,0,10.7,10.7A10.71,10.71,0,0,0,36.92,42.82Zm0,17.81A7.11,7.11,0,1,1,44,53.52,7.11,7.11,0,0,1,36.92,60.63Z"/><rect class="cls-6" x="42.21" y="42.67" width="12.13" height="4.84" transform="translate(-16.94 34.55) rotate(-33.87)"/><rect class="cls-6" x="46.55" y="55.32" width="4.84" height="12.13" transform="translate(-29.29 67.84) rotate(-56.13)"/><path class="cls-6" d="M169.29,14.54c-2.09-.37-6.22,2.45-6.22,6.16,0,6.39,1.06,7.9,2.73,6.4,1-.88.3-1.25,2.32-5.26C170.74,16.64,173.12,15.2,169.29,14.54Z"/></svg>