<svg id="Layer_1" data-name="Layer 1" xmlns="http://www.w3.org/2000/svg" viewBox="0 0 112 93"><defs><style>.cls-1{fill:#2e3192;}.cls-2{fill:#140054;}.cls-3{fill:#0061ef;}.cls-4{fill:#0059c4;}.cls-5{fill:#3198ff;}</style></defs><title>kolorowanka_Artboard 1 copy 4</title><circle class="cls-1" cx="56.38" cy="47.73" r="38.11"/><circle class="cls-2" cx="57.7" cy="48.62" r="34.12"/><circle class="cls-3" cx="56.38" cy="47.73" r="31.8"/><path class="cls-4" d="M88.18,47.73A31.8,31.8,0,0,1,30.26,65.88,31.81,31.81,0,0,0,74.52,21.61,31.74,31.74,0,0,1,88.18,47.73Z"/><path class="cls-5" d="M60.33,22.72c.41,3.45-10.21,4-17.68,10.33-9.31,7.84-5.88,16-12.39,17.52s-1.38-16.63,5.93-23.22S59.53,15.94,60.33,22.72Z"/><path class="cls-2" d="M81.66,37.56c0,2-18.53,32.21-21.54,33.82s-8.73.84-9.94.24S28.82,42.19,29.83,41s8.77-8.66,11.84-7.65,12.53,18.21,12.94,19,11.64-20.19,13-22S81.66,34.94,81.66,37.56Z"/><path class="cls-1" d="M40.29,37c-.48-.12-7.63,4.45-7.75,4.8s18.26,28,18.62,28.07,7.86.81,8.09-.26S79.15,37.83,78.91,37s-8.12-4.21-9.18-3.61-14.38,23.29-15.21,23S40.29,37,40.29,37Z"/></svg>