<svg id="Layer_1" data-name="Layer 1" xmlns="http://www.w3.org/2000/svg" viewBox="0 0 132 140"><defs><style>.cls-1{opacity:0.3;}.cls-2{fill:#ffec00;}.cls-3{fill:#ecdd00;}.cls-4{fill:#fffb81;}.cls-5{fill:#00920c;}.cls-6{fill:#d8cc00;}.cls-7{opacity:0.11;}.cls-8{fill:#ffffe5;opacity:0.5;}</style></defs><title>kolorowanka_Artboard 29</title><path class="cls-1" d="M124.21,118.64a2.94,2.94,0,0,0,.13-4.17L79.54,66.73,34.09,18.3h0L34,18.16h0a.47.47,0,0,0-.09-.06L33.68,18l-.06,0a.61.61,0,0,0-.14-.07l-.12-.06-.3-.1-.06,0a2.47,2.47,0,0,0-.38-.05h-.38l-.13,0-.24.06-.13.05-.24.11-.11.07a2,2,0,0,0-.3.23h0l-4.93-2.76L15.24,9.34a3.41,3.41,0,0,0-4.74,4.45l7.85,16.36h0l0,0a2.09,2.09,0,0,0-.24.28,1,1,0,0,1-.08.11,2.53,2.53,0,0,0-.12.23l-.06.13a2.25,2.25,0,0,0-.08.24l0,.13a2.51,2.51,0,0,0,0,.27v.1a1.62,1.62,0,0,0,0,.38.19.19,0,0,0,0,.07,2.46,2.46,0,0,0,.07.29l.06.14a.84.84,0,0,0,.06.14l0,.06a1.22,1.22,0,0,0,.12.19l.05.09h0l.13.14h0l90.81,96.76a2.13,2.13,0,0,0,3,.09l5.54-5.2h0ZM18.13,33h0a1.71,1.71,0,0,1,.11.14A1.34,1.34,0,0,1,18.13,33Z"/><path class="cls-2" d="M11.56,10.18l8.91,18.55a3.42,3.42,0,0,0,5.41,1L30.4,25.5l4.53-4.24a3.42,3.42,0,0,0-.67-5.47L16.31,5.73A3.41,3.41,0,0,0,11.56,10.18Z"/><rect class="cls-2" x="61.78" y="2.02" width="21.72" height="136.96" rx="2.13" transform="translate(-28.57 68.8) rotate(-43.18)"/><path class="cls-3" d="M25.9,22.34,35,14.55l90.92,96.9a2.17,2.17,0,0,1-.1,3.09l-7.14,6.7Z"/><path class="cls-4" d="M41.52,21.47l78,83.1a2.13,2.13,0,0,1-.1,3l-12.73,11.94a2.12,2.12,0,0,1-3-.09l-78-83.1a64.48,64.48,0,0,0,8.49-6.83A64.85,64.85,0,0,0,41.52,21.47Z"/><path class="cls-3" d="M47.39,27.73l2.18,2.33a64,64,0,0,1-7.35,8,64.3,64.3,0,0,1-8.48,6.82L31.56,42.6A54.76,54.76,0,0,0,37,38.52c1-.85,2-1.77,3.08-2.75s2-2,2.94-2.9A53.06,53.06,0,0,0,47.39,27.73Z"/><path class="cls-3" d="M52.35,33l4.36,4.65a64.85,64.85,0,0,1-7.35,8,64.32,64.32,0,0,1-8.49,6.82l-4.36-4.64a54.78,54.78,0,0,0,5.41-4.08c1-.85,2-1.77,3.08-2.75s2-1.95,2.94-2.9A54.51,54.51,0,0,0,52.35,33Z"/><path class="cls-5" d="M19.19,29.4h0l.12.14-.13-.14Z"/><path class="cls-3" d="M32.64,14.88,22,8.89a4.18,4.18,0,0,0-1.9,1c-2.45,2.3,5,12.61,5.72,13.37s3.82-4.36,7-7.36Z"/><path class="cls-5" d="M35,14.55l.13.14L35,14.56h0Z"/><path class="cls-6" d="M35,14.55h0a54.27,54.27,0,0,1-4.41,5.12c-.91,1-1.9,1.93-2.94,2.91s-2.07,1.89-3.08,2.75a56.53,56.53,0,0,1-5.39,4.07h0a1.52,1.52,0,0,1-.22-.34,2.13,2.13,0,0,1,.44-2.52h0c1.14-.83,2.36-1.78,3.61-2.84,1-.86,2-1.78,3.09-2.76s2-1.95,2.94-2.9c1.13-1.18,2.16-2.33,3.06-3.42l0,0a2.13,2.13,0,0,1,2.54-.28A2,2,0,0,1,35,14.55Z"/><ellipse class="cls-3" cx="76.92" cy="75.06" rx="5.55" ry="33" transform="translate(-30.54 72.97) rotate(-43.18)"/><path class="cls-7" d="M34.17,29.51l-.82.76,78.88,84.06,7.18-6.74a2.13,2.13,0,0,0,.1-3l-78-83.1A64.85,64.85,0,0,1,34.17,29.51Z"/><ellipse class="cls-8" cx="48.91" cy="54.07" rx="2.04" ry="32.32" transform="translate(-23.76 48.12) rotate(-43.18)"/><path class="cls-8" d="M17.24,18.43c.29-.27-2.89-6.15-3.66-9.92-.26-1.29.33-1.67-.06-1.71s-2,.12-1.42,2.06C12.85,11.27,16.66,19,17.24,18.43Z"/></svg>