<svg id="Layer_1" data-name="Layer 1" xmlns="http://www.w3.org/2000/svg" viewBox="0 0 112 93"><defs><style>.cls-1{fill:#2e3192;}.cls-2{fill:#140054;}.cls-3{fill:#0061ef;}.cls-4{fill:#0059c4;}.cls-5{fill:#3198ff;}</style></defs><title>kolorowanka_Artboard 1 copy 7</title><circle class="cls-1" cx="54.73" cy="48.41" r="40.5"/><circle class="cls-2" cx="56.12" cy="49.36" r="36.26"/><circle class="cls-3" cx="54.73" cy="48.41" r="33.8"/><path class="cls-4" d="M88.52,48.41A33.8,33.8,0,0,1,27,67.7,33.8,33.8,0,0,0,74,20.65,33.73,33.73,0,0,1,88.52,48.41Z"/><path class="cls-5" d="M58.92,21.83c.44,3.67-10.85,4.3-18.79,11-9.89,8.33-6.24,17-13.16,18.61s-1.47-17.67,6.3-24.67S58.06,14.64,58.92,21.83Z"/><path class="cls-2" d="M28.94,54.65c0-9.07,15.82-25.09,28.8-25.09s19.09,13.52,20.05,22.5c4.09-2.7,5.28-3.65,5.28-3.65a36.2,36.2,0,0,1,1.49,5.05c0,.89-5.51,11-9.22,11.15s-14.13-6-13.83-7,2.38-5.47,3.56-5.56,7.14,3.63,7.14,3.63S66.92,37.1,57.74,37.4,37.11,48.7,37.11,55.84C33.67,58.26,28.94,54.65,28.94,54.65Z"/><path class="cls-1" d="M32.16,53.07s2.58,1.13,3.52.69A25.14,25.14,0,0,1,45.76,39.83C50,36.9,57.54,34.08,62.1,36.7,65,38.39,70.92,46,72.51,51.53s1,6.19,1,6.19S67.92,54.65,67,55.15a3.31,3.31,0,0,0-1.36,3c.3.69,7.11,3.81,9.87,3.62S82,55.54,82,55.54l-.64-3.32-4.86,3.37s-1.34-10.76-5-14.72S65,32.84,57,32.64,41.92,37.05,37.16,43.1,32.16,53.07,32.16,53.07Z"/></svg>