<svg id="Layer_1" data-name="Layer 1" xmlns="http://www.w3.org/2000/svg" viewBox="0 0 300 93"><defs><style>.cls-1{opacity:0.3;}.cls-2,.cls-3{fill:none;stroke-linecap:round;stroke-linejoin:round;}.cls-2{stroke:#000;stroke-width:13.49px;}.cls-3{stroke:#0071bc;stroke-width:11.57px;}.cls-4{fill:#0071bc;}.cls-5{fill:#006dff;}.cls-6{fill:#fff;}</style></defs><title>kolorowanka_Artboard 1 copy 5</title><g class="cls-1"><path class="cls-2" d="M80.27,45c.18-11.61-.06-10.77,2-11.61a4.56,4.56,0,0,1,4.79.84c.6.42.6.36,1.43.18a9.09,9.09,0,0,1,4.79-.78c2.1,0,5.15.42,5.57,1l.42.17a7.26,7.26,0,0,1,3.35,2.52,13.1,13.1,0,0,1,2.28,4.13c0,.6.17,1.92.17,3.35a18.67,18.67,0,0,1-.41,3.71,4.58,4.58,0,0,0-.6,1.26,1.13,1.13,0,0,0-.42.84c-.18.18-.84,1-1.44,1.61-2.69,2.52-6.22,3.54-11.61,3.54-2.52,0-2.93.24-2.93.42,0,1.25-.42,8.5-.6,10.17-.84,7.48-1.44,8.92-4.13,8.92-1.26,0-1.5-.06-2.1-.66A3,3,0,0,1,80,72.79c-.42-1.26-.36-9.34-.18-14.31C80,56.62,80.27,50.64,80.27,45Zm16.34-1.43c0-3.54-.59-5.21-2-6.47-.84-.42-1.08-.36-2.52-.36a12.42,12.42,0,0,0-2.69.18c-1,.18-1,.18-.84,3.29,0,1.68-.24,5-.42,7.31v4.31c0,.18,1.26,0,2.52,0,2.87-.42,3.71-.78,4.73-2.46A10.51,10.51,0,0,0,96.61,43.58Z"/><path class="cls-2" d="M122.65,34.9c-.36-.66.06-1,.72-1.38,1-.66,4.13-.36,6.17.66,4.42,2.75,8.26,7.9,10.29,14.06,1,3.42,1,9.94,0,13-2,7.91-8.26,13-15.44,13.35-7.9.66-14.37-3.77-16.1-11.31-1.38-4.43,0-13.35,2.75-18.86,2-4.43,6.1-7.9,10.23-8.56C122.65,35.55,122.65,35.55,122.65,34.9Zm6.89,8.56c-.66-1-1.74-2.4-2.1-3.06-.66-.66-1-1.07-1.32-1.07a5.84,5.84,0,0,0-1.73.35c-2.4,0-4.13,1.38-5.51,3.78-1.74,2.39-2.39,4.78-3,9.57s-.66,7.55,0,9.94a16.9,16.9,0,0,0,3,4.85c3.41,3.11,5.87,3.05,9.64-.72C133.67,61.59,134.32,51.36,129.54,43.46Z"/><path class="cls-2" d="M142.46,39.44c0-4.19-.06-4.61,1.2-5.44a2.79,2.79,0,0,1,4.19,0c.84.83.84.83,2.93,0a18.45,18.45,0,0,1,9.58,0c6.23,1.67,8.74,9.58,5,14.6-1.26,1.68-1.26,1.68-.84,2.1,1.68.42,4.19,2.45,5.45,4.55,2.09,3.35,2.09,9.58,0,12.93a17.38,17.38,0,0,1-7.07,4.61c-2.09.84-3.35,1.25-7.54,1.25-3.77,0-5.39,0-6.22.42a4.51,4.51,0,0,1-4.61,0c-1.26-.42-1.2-.42-1.62-15.86C142.46,50.28,142.46,41.54,142.46,39.44Zm15.81,5.81c1.25-2.93.41-7.06-2.1-8.32a22.43,22.43,0,0,0-5.39,0c-1.67.42-1.67.42-1.25,1.68,0,.83.41,2.87.41,4.55.42,6.22.42,5.86,2.94,5.44C155.81,48.6,157,47.35,158.27,45.25Zm4.6,13.35c-.83-2.93-2.09-4.55-4.19-5a15.13,15.13,0,0,0-5-.84c-2.94,0-2.94-.06-2.94,2.88,0,1.67.42,5.38.42,8.74.42,5.8.36,5.86,3.71,5.44a6.76,6.76,0,0,0,4.61-1.25C162.46,66.5,163.71,62.79,162.87,58.6Z"/><path class="cls-2" d="M175.2,34.24c.3-.3.84-.84,1.38-.84.84-.54,3.11-.3,4.25,0a5.1,5.1,0,0,1,2,3.41c0,1.68-.3,12.39-.84,20.83-.84,14.67-1.2,16.28-3.71,17.12-1.14.54-2.22.3-3.36-.84-.83-.83-.83-.83-.53-17.42.29-9.27.23-18,.23-19.45C174.31,35.08,174.66,34.78,175.2,34.24Z"/><path class="cls-2" d="M185.74,34.18c.48-.24.84-.72,1.31-.72a5.42,5.42,0,0,1,5,.72c.48.48.48.42,3.65.18,4.31-.48,6.77-.48,7.91,0,1.79.65,2.51,2.51,1.37,3.65s-2.27,1.32-7,1.79c-2.52.24-4.55.48-4.55.48a99.83,99.83,0,0,0-.48,12,11.46,11.46,0,0,0,2-.23c3.59-.66,5.68-.72,6.82-.24,2.51,1.13,2.93,3.17.66,4.55-.66.47-4.07,1.13-7,1.13-3.17.24-2.75-.48-3.41,5.87,0,1.55-.18,3.83-.18,4.49-.24,1.38-.3,1.38,1.08,1.38a40.74,40.74,0,0,0,9.28-1.38,10.78,10.78,0,0,1,4.79-.18,3.06,3.06,0,0,1,2.21,2.45,1.93,1.93,0,0,1-1.55,2,4.77,4.77,0,0,0-1.14.66,41.48,41.48,0,0,0-4.73,1.13,68.32,68.32,0,0,1-10.18.72,3.76,3.76,0,0,0-2.51.18,2.34,2.34,0,0,1-2.69-.18c-1.56-.9-1.8-1.14-1.8-9,0-3.83.24-8.38.24-10.41.24-2,.42-7.43.42-12C185.26,34.6,185.26,34.66,185.74,34.18Z"/><path class="cls-2" d="M212.79,33.82c.18-.42.84-.6,1.26-.78a7.74,7.74,0,0,1,2.27-.24,3.77,3.77,0,0,1,2.88,1c.18.42.48.42,1.07,0a13.17,13.17,0,0,1,7-.6c6.4.84,9.76,4.79,9.76,11,0,3.53-.6,5.39-2.88,7.67A12.83,12.83,0,0,1,227.94,55c-.84.18-1.26.66-.84.84a9.76,9.76,0,0,1,1,2c.59.84,1.25,2.1,1.67,2.7.18.59.6,1.25.6,1.43s.24.42.24.42a.51.51,0,0,1,.42.42c.18.42.66.84.84,1.26s.6.66.6.84a.63.63,0,0,0,.18.41s.65.84,1.07,1.44c1,1.44,1.2,1.62,2,1.44,1.67-.6,4,.06,4.61,1.49.42.6.6.84.18,1.44-.84,2.1-3.71,3.29-6.83,2.87-.83-.18-1.67-.41-1.67-.59a5.21,5.21,0,0,1-1-.42c-1.68-.6-3.35-2.52-5.21-5.39a12.16,12.16,0,0,1-1.26-1.86A56.21,56.21,0,0,1,220,56.62c-.18-1-.18-1-.18.42,0,.84-.24,2.52-.24,3.54a31.71,31.71,0,0,0-.42,4.55c-.42,4.36-1.26,7.9-1.86,8.73a3.56,3.56,0,0,1-4,.84c-1-.42-1-.6-1.44-2.69-.41-1.86-.41-1.68,0-18.08.18-3.53.18-9.34.18-13C212.13,34.24,212.19,34.24,212.79,33.82Zm16,9.16c0-3.72-1.07-5.81-2.93-6.65a5.61,5.61,0,0,0-3.71,0c-.42,0-.84.18-1.26.18-.42.18-.42.24-.6,3.11v7.31c-.18,4.55-.23,4.49,1.86,4.31,3.11,0,4.37-.78,5.39-2.88A10.2,10.2,0,0,0,228.77,43Z"/><path class="cls-2" d="M249.84,34.24a40.78,40.78,0,0,0,9.34-1.08c.36-.36,1.8-.36,3.23-.36,1.8,0,2.52,0,3.24.72,1.43,1.08,1.07,1.79-.72,6.1-1.08,1.8-3.23,6.17-4.67,9-1.44,3.24-3.95,8.62-5.75,12.57-1.79,3.6-3.23,6.83-3.23,6.83a48.78,48.78,0,0,1,5.39.36c8.26,0,11.49,1.49,10.77,4-.72,1.43-2.51,2.15-5,1.79-1.43,0-5-.36-8.26-.36-4.67-.36-6.16,0-6.88.36-1.8,1.08-3.59,1.08-4.67-.72V71a92.42,92.42,0,0,1,6.11-14.78c.71-2.16,2.21-4.67,2.57-5.75.72-1.08,1.8-4,3.23-6.53,1.8-4.67,1.8-4.67-1.43-4.31-4,.36-8.33-.36-9.4-1.07-.72-.36-1.08-.72-.72-1.8C243,35,244.46,34.6,249.84,34.24Z"/><path d="M100.21,57.11a7,7,0,1,1,7-7A7,7,0,0,1,100.21,57.11Zm0-13.49a6.54,6.54,0,1,0,6.5,6.54A6.52,6.52,0,0,0,100.21,43.62Z"/><path d="M49.34,80.22a9.33,9.33,0,0,1-9-9.09c0-2.1-.24-5.1-.43-8.27-1.4-23-1.34-31.95,5-35.36a8.32,8.32,0,0,1,9.09.87h0c4.5,3.34,5.75,9.74,3.78,39.05-.11,1.67-.24,3.56-.24,4,0,5.63-4.14,8.74-8,8.79Z"/><path d="M48.63,82.05h-.25c-5.2-.22-13.47-8.42-14.81-10.33a7.7,7.7,0,0,1-1.31-6.94c2.66-8.42,7.4-8.42,10-7.67a18.9,18.9,0,0,1,6.3,3.62A40.29,40.29,0,0,1,52,57.25a7,7,0,0,1,7.57-.92c4.42,2.18,4.26,7,4.14,10.5,0,.12,0,.23,0,.33a8.81,8.81,0,0,1-2.28,6C59.72,75.3,53.89,82.05,48.63,82.05ZM63.45,65.82l0,.11Z"/></g><path class="cls-3" d="M79.31,44.05c.18-11.62-.06-10.78,2-11.62a4.6,4.6,0,0,1,4.79.84c.6.42.6.36,1.44.18a9.07,9.07,0,0,1,4.79-.78c2.09,0,5.15.42,5.57,1l.41.18a7.28,7.28,0,0,1,3.36,2.52A13.17,13.17,0,0,1,104,40.52c0,.59.18,1.91.18,3.35a18.75,18.75,0,0,1-.42,3.71,4.58,4.58,0,0,0-.6,1.26,1.13,1.13,0,0,0-.42.83c-.18.18-.83,1-1.43,1.62-2.7,2.51-6.23,3.53-11.62,3.53-2.51,0-2.93.24-2.93.42,0,1.26-.42,8.5-.6,10.18-.84,7.48-1.43,8.92-4.13,8.92-1.25,0-1.49-.06-2.09-.66a3,3,0,0,1-.84-1.86c-.42-1.25-.36-9.34-.18-14.3C79.07,55.66,79.31,49.67,79.31,44.05Zm16.34-1.44c0-3.53-.6-5.21-2-6.46-.84-.42-1.08-.36-2.52-.36a12.37,12.37,0,0,0-2.69.18c-1,.18-1,.18-.84,3.29,0,1.67-.24,5-.42,7.3v4.31c0,.18,1.26,0,2.51,0,2.88-.42,3.72-.78,4.73-2.45A10.55,10.55,0,0,0,95.65,42.61Z"/><path class="cls-3" d="M121.69,33.93c-.36-.66.06-1,.72-1.38,1-.65,4.13-.35,6.16.66,4.43,2.76,8.26,7.9,10.3,14.07,1,3.41,1,9.94,0,13-2,7.9-8.26,13-15.45,13.35-7.9.66-14.36-3.77-16.1-11.31-1.38-4.43,0-13.35,2.75-18.86,2-4.43,6.11-7.9,10.24-8.56C121.69,34.59,121.69,34.59,121.69,33.93Zm6.88,8.56c-.66-1-1.73-2.39-2.09-3.05-.66-.66-1-1.08-1.32-1.08a5.78,5.78,0,0,0-1.74.36c-2.39,0-4.13,1.38-5.5,3.77-1.74,2.4-2.4,4.79-3.06,9.58s-.65,7.54,0,9.94a16.72,16.72,0,0,0,3.06,4.84c3.41,3.12,5.86,3.06,9.63-.71C132.7,60.63,133.36,50.39,128.57,42.49Z"/><path class="cls-3" d="M141.5,38.48c0-4.19-.06-4.61,1.2-5.45a2.81,2.81,0,0,1,4.19,0c.83.84.83.84,2.93,0a18.66,18.66,0,0,1,9.58,0c6.22,1.68,8.74,9.58,5,14.61-1.25,1.68-1.25,1.68-.83,2.09,1.67.42,4.19,2.46,5.44,4.55,2.1,3.36,2.1,9.58,0,12.93a17.24,17.24,0,0,1-7.06,4.61c-2.09.84-3.35,1.26-7.54,1.26-3.77,0-5.39,0-6.23.42a4.52,4.52,0,0,1-4.61,0c-1.25-.42-1.19-.42-1.61-15.86C141.5,49.32,141.5,40.58,141.5,38.48Zm15.8,5.81c1.26-2.94.42-7.07-2.09-8.32a22.44,22.44,0,0,0-5.39,0c-1.68.42-1.68.42-1.26,1.67,0,.84.42,2.88.42,4.55.42,6.23.42,5.87,2.93,5.45C154.85,47.64,156,46.38,157.3,44.29Zm4.61,13.35c-.84-2.94-2.09-4.55-4.19-5a15.2,15.2,0,0,0-5-.84c-2.93,0-2.93-.06-2.93,2.87,0,1.68.42,5.39.42,8.74.42,5.81.36,5.87,3.71,5.45a6.74,6.74,0,0,0,4.61-1.26C161.49,65.54,162.75,61.83,161.91,57.64Z"/><path class="cls-3" d="M174.24,33.27c.3-.3.84-.84,1.38-.84.83-.53,3.11-.29,4.25,0a5.15,5.15,0,0,1,2,3.42c0,1.67-.3,12.39-.84,20.83-.83,14.66-1.19,16.28-3.71,17.12-1.14.54-2.21.3-3.35-.84-.84-.84-.84-.84-.54-17.42.3-9.28.24-18,.24-19.45C173.34,34.11,173.7,33.81,174.24,33.27Z"/><path class="cls-3" d="M184.77,33.21c.48-.24.84-.72,1.32-.72a5.48,5.48,0,0,1,5,.72c.48.48.48.42,3.65.18,4.31-.48,6.76-.48,7.9,0,1.8.66,2.52,2.52,1.38,3.65s-2.28,1.32-7,1.8c-2.51.24-4.54.48-4.54.48a99.83,99.83,0,0,0-.48,12,10.94,10.94,0,0,0,2-.24c3.59-.66,5.69-.72,6.83-.24,2.51,1.14,2.93,3.17.65,4.55-.65.48-4.07,1.14-7,1.14-3.17.24-2.75-.48-3.41,5.87,0,1.55-.18,3.83-.18,4.48-.24,1.38-.3,1.38,1.08,1.38a40.74,40.74,0,0,0,9.28-1.38,11,11,0,0,1,4.78-.18,3.07,3.07,0,0,1,2.22,2.46,1.91,1.91,0,0,1-1.56,2,4.77,4.77,0,0,0-1.14.66A41.39,41.39,0,0,0,200.82,73a68.42,68.42,0,0,1-10.18.72,3.73,3.73,0,0,0-2.51.18,2.36,2.36,0,0,1-2.7-.18c-1.55-.9-1.79-1.14-1.79-9,0-3.83.24-8.38.24-10.42.24-2,.41-7.42.41-12C184.29,33.63,184.29,33.69,184.77,33.21Z"/><path class="cls-3" d="M211.83,32.85c.18-.42.84-.6,1.25-.77a7.77,7.77,0,0,1,2.28-.24,3.74,3.74,0,0,1,2.87,1c.18.42.48.42,1.08,0a13.33,13.33,0,0,1,7-.6c6.41.84,9.76,4.79,9.76,11,0,3.53-.6,5.39-2.87,7.66A12.69,12.69,0,0,1,227,54c-.84.18-1.25.66-.84.84a10,10,0,0,1,1,2c.6.84,1.26,2.09,1.68,2.69.18.6.6,1.26.6,1.44s.24.42.24.42a.51.51,0,0,1,.42.42c.17.41.65.83.83,1.25s.6.66.6.84a.65.65,0,0,0,.18.42s.66.84,1.08,1.44c1,1.43,1.2,1.61,2,1.43,1.68-.6,4,.06,4.61,1.5.42.6.6.84.18,1.44-.83,2.09-3.71,3.29-6.82,2.87-.84-.18-1.68-.42-1.68-.6a5,5,0,0,1-1-.42c-1.68-.6-3.36-2.51-5.21-5.39a11.77,11.77,0,0,1-1.26-1.85,56.61,56.61,0,0,1-4.55-9.16c-.18-1-.18-1-.18.42,0,.84-.24,2.51-.24,3.53a31.85,31.85,0,0,0-.42,4.55c-.42,4.37-1.25,7.9-1.85,8.74a3.57,3.57,0,0,1-3.95.84c-1-.42-1-.6-1.44-2.7-.42-1.85-.42-1.67,0-18.07.18-3.53.18-9.34.18-13C211.17,33.27,211.23,33.27,211.83,32.85Zm16,9.16c0-3.71-1.08-5.8-2.93-6.64a5.61,5.61,0,0,0-3.71,0c-.42,0-.84.18-1.26.18-.42.18-.42.24-.6,3.11V46c-.18,4.55-.24,4.49,1.86,4.31,3.11,0,4.37-.77,5.38-2.87A10.24,10.24,0,0,0,227.81,42Z"/><path class="cls-3" d="M248.88,33.27a41.63,41.63,0,0,0,9.34-1.07c.36-.36,1.79-.36,3.23-.36,1.8,0,2.51,0,3.23.71,1.44,1.08,1.08,1.8-.72,6.11-1.07,1.8-3.23,6.17-4.67,9-1.43,3.23-4,8.62-5.74,12.57-1.8,3.59-3.23,6.82-3.23,6.82a48.54,48.54,0,0,1,5.38.36c8.26,0,11.5,1.5,10.78,4-.72,1.44-2.52,2.16-5,1.8-1.44,0-5-.36-8.26-.36-4.67-.36-6.17,0-6.89.36-1.79,1.08-3.59,1.08-4.66-.72V70a92.2,92.2,0,0,1,6.1-14.79c.72-2.15,2.22-4.67,2.58-5.74.71-1.08,1.79-4,3.23-6.53,1.79-4.67,1.79-4.67-1.44-4.31-4,.36-8.32-.36-9.4-1.08-.71-.36-1.07-.72-.71-1.79C242,34,243.49,33.63,248.88,33.27Z"/><path class="cls-4" d="M99.25,55.18a6,6,0,1,1,6-6A6,6,0,0,1,99.25,55.18Zm0-11.56a5.58,5.58,0,1,0,5.54,5.57A5.56,5.56,0,0,0,99.25,43.62Z"/><path class="cls-4" d="M48.38,78.29a8.36,8.36,0,0,1-8.05-8.15c0-2.12-.24-5.12-.43-8.3-1.35-22-1.32-31.33,4.45-34.46a7.38,7.38,0,0,1,8.06.8h0c4,3,5.36,8.93,3.4,38.21-.12,1.79-.25,3.63-.25,4.07,0,5.08-3.56,7.78-7.08,7.83Z"/><path class="cls-4" d="M47.67,80.12h-.21c-4.58-.2-12.67-7.94-14.07-9.93a6.75,6.75,0,0,1-1.17-6.09c2.29-7.26,6.05-7.84,8.8-7a19.15,19.15,0,0,1,6.64,4l.52-.57A39.68,39.68,0,0,1,51.63,57a6,6,0,0,1,6.53-.8c3.86,1.9,3.72,6.17,3.6,9.61,0,.14,0,.26,0,.37a7.74,7.74,0,0,1-2.07,5.42C58.53,73.06,52.63,80.12,47.67,80.12Zm13.89-15a.29.29,0,0,0,0,.09A.29.29,0,0,1,61.56,65.1Z"/><path class="cls-5" d="M79.31,44.05c.18-11.62-.06-10.78,2-11.62a4.6,4.6,0,0,1,4.79.84c.6.42.6.36,1.44.18a9.07,9.07,0,0,1,4.79-.78c2.09,0,5.15.42,5.57,1l.41.18a7.28,7.28,0,0,1,3.36,2.52A13.17,13.17,0,0,1,104,40.52c0,.59.18,1.91.18,3.35a18.75,18.75,0,0,1-.42,3.71,4.58,4.58,0,0,0-.6,1.26,1.13,1.13,0,0,0-.42.83c-.18.18-.83,1-1.43,1.62-2.7,2.51-6.23,3.53-11.62,3.53-2.51,0-2.93.24-2.93.42,0,1.26-.42,8.5-.6,10.18-.84,7.48-1.43,8.92-4.13,8.92-1.25,0-1.49-.06-2.09-.66a3,3,0,0,1-.84-1.86c-.42-1.25-.36-9.34-.18-14.3C79.07,55.66,79.31,49.67,79.31,44.05Zm16.34-1.44c0-3.53-.6-5.21-2-6.46-.84-.42-1.08-.36-2.52-.36a12.37,12.37,0,0,0-2.69.18c-1,.18-1,.18-.84,3.29,0,1.67-.24,5-.42,7.3v4.31c0,.18,1.26,0,2.51,0,2.88-.42,3.72-.78,4.73-2.45A10.55,10.55,0,0,0,95.65,42.61Z"/><path class="cls-5" d="M121.69,33.93c-.36-.66.06-1,.72-1.38,1-.65,4.13-.35,6.16.66,4.43,2.76,8.26,7.9,10.3,14.07,1,3.41,1,9.94,0,13-2,7.9-8.26,13-15.45,13.35-7.9.66-14.36-3.77-16.1-11.31-1.38-4.43,0-13.35,2.75-18.86,2-4.43,6.11-7.9,10.24-8.56C121.69,34.59,121.69,34.59,121.69,33.93Zm6.88,8.56c-.66-1-1.73-2.39-2.09-3.05-.66-.66-1-1.08-1.32-1.08a5.78,5.78,0,0,0-1.74.36c-2.39,0-4.13,1.38-5.5,3.77-1.74,2.4-2.4,4.79-3.06,9.58s-.65,7.54,0,9.94a16.72,16.72,0,0,0,3.06,4.84c3.41,3.12,5.86,3.06,9.63-.71C132.7,60.63,133.36,50.39,128.57,42.49Z"/><path class="cls-5" d="M141.5,38.48c0-4.19-.06-4.61,1.2-5.45a2.81,2.81,0,0,1,4.19,0c.83.84.83.84,2.93,0a18.66,18.66,0,0,1,9.58,0c6.22,1.68,8.74,9.58,5,14.61-1.25,1.68-1.25,1.68-.83,2.09,1.67.42,4.19,2.46,5.44,4.55,2.1,3.36,2.1,9.58,0,12.93a17.24,17.24,0,0,1-7.06,4.61c-2.09.84-3.35,1.26-7.54,1.26-3.77,0-5.39,0-6.23.42a4.52,4.52,0,0,1-4.61,0c-1.25-.42-1.19-.42-1.61-15.86C141.5,49.32,141.5,40.58,141.5,38.48Zm15.8,5.81c1.26-2.94.42-7.07-2.09-8.32a22.44,22.44,0,0,0-5.39,0c-1.68.42-1.68.42-1.26,1.67,0,.84.42,2.88.42,4.55.42,6.23.42,5.87,2.93,5.45C154.85,47.64,156,46.38,157.3,44.29Zm4.61,13.35c-.84-2.94-2.09-4.55-4.19-5a15.2,15.2,0,0,0-5-.84c-2.93,0-2.93-.06-2.93,2.87,0,1.68.42,5.39.42,8.74.42,5.81.36,5.87,3.71,5.45a6.74,6.74,0,0,0,4.61-1.26C161.49,65.54,162.75,61.83,161.91,57.64Z"/><path class="cls-5" d="M174.24,33.27c.3-.3.84-.84,1.38-.84.83-.53,3.11-.29,4.25,0a5.15,5.15,0,0,1,2,3.42c0,1.67-.3,12.39-.84,20.83-.83,14.66-1.19,16.28-3.71,17.12-1.14.54-2.21.3-3.35-.84-.84-.84-.84-.84-.54-17.42.3-9.28.24-18,.24-19.45C173.34,34.11,173.7,33.81,174.24,33.27Z"/><path class="cls-5" d="M184.77,33.21c.48-.24.84-.72,1.32-.72a5.48,5.48,0,0,1,5,.72c.48.48.48.42,3.65.18,4.31-.48,6.76-.48,7.9,0,1.8.66,2.52,2.52,1.38,3.65s-2.28,1.32-7,1.8c-2.51.24-4.54.48-4.54.48a99.83,99.83,0,0,0-.48,12,10.94,10.94,0,0,0,2-.24c3.59-.66,5.69-.72,6.83-.24,2.51,1.14,2.93,3.17.65,4.55-.65.48-4.07,1.14-7,1.14-3.17.24-2.75-.48-3.41,5.87,0,1.55-.18,3.83-.18,4.48-.24,1.38-.3,1.38,1.08,1.38a40.74,40.74,0,0,0,9.28-1.38,11,11,0,0,1,4.78-.18,3.07,3.07,0,0,1,2.22,2.46,1.91,1.91,0,0,1-1.56,2,4.77,4.77,0,0,0-1.14.66A41.39,41.39,0,0,0,200.82,73a68.42,68.42,0,0,1-10.18.72,3.73,3.73,0,0,0-2.51.18,2.36,2.36,0,0,1-2.7-.18c-1.55-.9-1.79-1.14-1.79-9,0-3.83.24-8.38.24-10.42.24-2,.41-7.42.41-12C184.29,33.63,184.29,33.69,184.77,33.21Z"/><path class="cls-5" d="M211.83,32.85c.18-.42.84-.6,1.25-.77a7.77,7.77,0,0,1,2.28-.24,3.74,3.74,0,0,1,2.87,1c.18.42.48.42,1.08,0a13.33,13.33,0,0,1,7-.6c6.41.84,9.76,4.79,9.76,11,0,3.53-.6,5.39-2.87,7.66A12.69,12.69,0,0,1,227,54c-.84.18-1.25.66-.84.84a10,10,0,0,1,1,2c.6.84,1.26,2.09,1.68,2.69.18.6.6,1.26.6,1.44s.24.42.24.42a.51.51,0,0,1,.42.42c.17.41.65.83.83,1.25s.6.66.6.84a.65.65,0,0,0,.18.42s.66.84,1.08,1.44c1,1.43,1.2,1.61,2,1.43,1.68-.6,4,.06,4.61,1.5.42.6.6.84.18,1.44-.83,2.09-3.71,3.29-6.82,2.87-.84-.18-1.68-.42-1.68-.6a5,5,0,0,1-1-.42c-1.68-.6-3.36-2.51-5.21-5.39a11.77,11.77,0,0,1-1.26-1.85,56.61,56.61,0,0,1-4.55-9.16c-.18-1-.18-1-.18.42,0,.84-.24,2.51-.24,3.53a31.85,31.85,0,0,0-.42,4.55c-.42,4.37-1.25,7.9-1.85,8.74a3.57,3.57,0,0,1-3.95.84c-1-.42-1-.6-1.44-2.7-.42-1.85-.42-1.67,0-18.07.18-3.53.18-9.34.18-13C211.17,33.27,211.23,33.27,211.83,32.85Zm16,9.16c0-3.71-1.08-5.8-2.93-6.64a5.61,5.61,0,0,0-3.71,0c-.42,0-.84.18-1.26.18-.42.18-.42.24-.6,3.11V46c-.18,4.55-.24,4.49,1.86,4.31,3.11,0,4.37-.77,5.38-2.87A10.24,10.24,0,0,0,227.81,42Z"/><path class="cls-5" d="M248.88,33.27a41.63,41.63,0,0,0,9.34-1.07c.36-.36,1.79-.36,3.23-.36,1.8,0,2.51,0,3.23.71,1.44,1.08,1.08,1.8-.72,6.11-1.07,1.8-3.23,6.17-4.67,9-1.43,3.23-4,8.62-5.74,12.57-1.8,3.59-3.23,6.82-3.23,6.82a48.54,48.54,0,0,1,5.38.36c8.26,0,11.5,1.5,10.78,4-.72,1.44-2.52,2.16-5,1.8-1.44,0-5-.36-8.26-.36-4.67-.36-6.17,0-6.89.36-1.79,1.08-3.59,1.08-4.66-.72V70a92.2,92.2,0,0,1,6.1-14.79c.72-2.15,2.22-4.67,2.58-5.74.71-1.08,1.79-4,3.23-6.53,1.79-4.67,1.79-4.67-1.44-4.31-4,.36-8.32-.36-9.4-1.08-.71-.36-1.07-.72-.71-1.79C242,34,243.49,33.63,248.88,33.27Z"/><path class="cls-6" d="M49,32.83c3.87,2.86.81,34.39.81,37.63,0,3.44-3.59,2.05-3.66-.47C45.81,58.71,42.39,28,49,32.83Z"/><path class="cls-6" d="M47.23,67.87a4.73,4.73,0,0,0,1.73,0c1-.53,4.92-5.23,6.34-6.4,1.1-.9.58,4.78.67,5.11.25.92-6.69,7.79-8.27,7.73s-10.43-7-10-8.5c.16-.5,1.19-3.37,1.68-3.22,3.19.92,7.7,6.07,7.7,6.07"/><path class="cls-6" d="M79.31,44.05c.18-11.62-.06-10.78,2-11.62a4.6,4.6,0,0,1,4.79.84c.6.42.6.36,1.44.18a9.07,9.07,0,0,1,4.79-.78c2.09,0,5.15.42,5.57,1l.41.18a7.28,7.28,0,0,1,3.36,2.52A13.17,13.17,0,0,1,104,40.52c0,.59.18,1.91.18,3.35a18.75,18.75,0,0,1-.42,3.71,4.58,4.58,0,0,0-.6,1.26,1.13,1.13,0,0,0-.42.83c-.18.18-.83,1-1.43,1.62-2.7,2.51-6.23,3.53-11.62,3.53-2.51,0-2.93.24-2.93.42,0,1.26-.42,8.5-.6,10.18-.84,7.48-1.43,8.92-4.13,8.92-1.25,0-1.49-.06-2.09-.66a3,3,0,0,1-.84-1.86c-.42-1.25-.36-9.34-.18-14.3C79.07,55.66,79.31,49.67,79.31,44.05Zm16.34-1.44c0-3.53-.6-5.21-2-6.46-.84-.42-1.08-.36-2.52-.36a12.37,12.37,0,0,0-2.69.18c-1,.18-1,.18-.84,3.29,0,1.67-.24,5-.42,7.3v4.31c0,.18,1.26,0,2.51,0,2.88-.42,3.72-.78,4.73-2.45A10.55,10.55,0,0,0,95.65,42.61Z"/><path class="cls-6" d="M121.69,33.93c-.36-.66.06-1,.72-1.38,1-.65,4.13-.35,6.16.66,4.43,2.76,8.26,7.9,10.3,14.07,1,3.41,1,9.94,0,13-2,7.9-8.26,13-15.45,13.35-7.9.66-14.36-3.77-16.1-11.31-1.38-4.43,0-13.35,2.75-18.86,2-4.43,6.11-7.9,10.24-8.56C121.69,34.59,121.69,34.59,121.69,33.93Zm6.88,8.56c-.66-1-1.73-2.39-2.09-3.05-.66-.66-1-1.08-1.32-1.08a5.78,5.78,0,0,0-1.74.36c-2.39,0-4.13,1.38-5.5,3.77-1.74,2.4-2.4,4.79-3.06,9.58s-.65,7.54,0,9.94a16.72,16.72,0,0,0,3.06,4.84c3.41,3.12,5.86,3.06,9.63-.71C132.7,60.63,133.36,50.39,128.57,42.49Z"/><path class="cls-6" d="M141.5,38.48c0-4.19-.06-4.61,1.2-5.45a2.81,2.81,0,0,1,4.19,0c.83.84.83.84,2.93,0a18.66,18.66,0,0,1,9.58,0c6.22,1.68,8.74,9.58,5,14.61-1.25,1.68-1.25,1.68-.83,2.09,1.67.42,4.19,2.46,5.44,4.55,2.1,3.36,2.1,9.58,0,12.93a17.24,17.24,0,0,1-7.06,4.61c-2.09.84-3.35,1.26-7.54,1.26-3.77,0-5.39,0-6.23.42a4.52,4.52,0,0,1-4.61,0c-1.25-.42-1.19-.42-1.61-15.86C141.5,49.32,141.5,40.58,141.5,38.48Zm15.8,5.81c1.26-2.94.42-7.07-2.09-8.32a22.44,22.44,0,0,0-5.39,0c-1.68.42-1.68.42-1.26,1.67,0,.84.42,2.88.42,4.55.42,6.23.42,5.87,2.93,5.45C154.85,47.64,156,46.38,157.3,44.29Zm4.61,13.35c-.84-2.94-2.09-4.55-4.19-5a15.2,15.2,0,0,0-5-.84c-2.93,0-2.93-.06-2.93,2.87,0,1.68.42,5.39.42,8.74.42,5.81.36,5.87,3.71,5.45a6.74,6.74,0,0,0,4.61-1.26C161.49,65.54,162.75,61.83,161.91,57.64Z"/><path class="cls-6" d="M174.24,33.27c.3-.3.84-.84,1.38-.84.83-.53,3.11-.29,4.25,0a5.15,5.15,0,0,1,2,3.42c0,1.67-.3,12.39-.84,20.83-.83,14.66-1.19,16.28-3.71,17.12-1.14.54-2.21.3-3.35-.84-.84-.84-.84-.84-.54-17.42.3-9.28.24-18,.24-19.45C173.34,34.11,173.7,33.81,174.24,33.27Z"/><path class="cls-6" d="M184.77,33.21c.48-.24.84-.72,1.32-.72a5.48,5.48,0,0,1,5,.72c.48.48.48.42,3.65.18,4.31-.48,6.76-.48,7.9,0,1.8.66,2.52,2.52,1.38,3.65s-2.28,1.32-7,1.8c-2.51.24-4.54.48-4.54.48a99.83,99.83,0,0,0-.48,12,10.94,10.94,0,0,0,2-.24c3.59-.66,5.69-.72,6.83-.24,2.51,1.14,2.93,3.17.65,4.55-.65.48-4.07,1.14-7,1.14-3.17.24-2.75-.48-3.41,5.87,0,1.55-.18,3.83-.18,4.48-.24,1.38-.3,1.38,1.08,1.38a40.74,40.74,0,0,0,9.28-1.38,11,11,0,0,1,4.78-.18,3.07,3.07,0,0,1,2.22,2.46,1.91,1.91,0,0,1-1.56,2,4.77,4.77,0,0,0-1.14.66A41.39,41.39,0,0,0,200.82,73a68.42,68.42,0,0,1-10.18.72,3.73,3.73,0,0,0-2.51.18,2.36,2.36,0,0,1-2.7-.18c-1.55-.9-1.79-1.14-1.79-9,0-3.83.24-8.38.24-10.42.24-2,.41-7.42.41-12C184.29,33.63,184.29,33.69,184.77,33.21Z"/><path class="cls-6" d="M211.83,32.85c.18-.42.84-.6,1.25-.77a7.77,7.77,0,0,1,2.28-.24,3.74,3.74,0,0,1,2.87,1c.18.42.48.42,1.08,0a13.33,13.33,0,0,1,7-.6c6.41.84,9.76,4.79,9.76,11,0,3.53-.6,5.39-2.87,7.66A12.69,12.69,0,0,1,227,54c-.84.18-1.25.66-.84.84a10,10,0,0,1,1,2c.6.84,1.26,2.09,1.68,2.69.18.6.6,1.26.6,1.44s.24.42.24.42a.51.51,0,0,1,.42.42c.17.41.65.83.83,1.25s.6.66.6.84a.65.65,0,0,0,.18.42s.66.84,1.08,1.44c1,1.43,1.2,1.61,2,1.43,1.68-.6,4,.06,4.61,1.5.42.6.6.84.18,1.44-.83,2.09-3.71,3.29-6.82,2.87-.84-.18-1.68-.42-1.68-.6a5,5,0,0,1-1-.42c-1.68-.6-3.36-2.51-5.21-5.39a11.77,11.77,0,0,1-1.26-1.85,56.61,56.61,0,0,1-4.55-9.16c-.18-1-.18-1-.18.42,0,.84-.24,2.51-.24,3.53a31.85,31.85,0,0,0-.42,4.55c-.42,4.37-1.25,7.9-1.85,8.74a3.57,3.57,0,0,1-3.95.84c-1-.42-1-.6-1.44-2.7-.42-1.85-.42-1.67,0-18.07.18-3.53.18-9.34.18-13C211.17,33.27,211.23,33.27,211.83,32.85Zm16,9.16c0-3.71-1.08-5.8-2.93-6.64a5.61,5.61,0,0,0-3.71,0c-.42,0-.84.18-1.26.18-.42.18-.42.24-.6,3.11V46c-.18,4.55-.24,4.49,1.86,4.31,3.11,0,4.37-.77,5.38-2.87A10.24,10.24,0,0,0,227.81,42Z"/><path class="cls-6" d="M248.88,33.27a41.63,41.63,0,0,0,9.34-1.07c.36-.36,1.79-.36,3.23-.36,1.8,0,2.51,0,3.23.71,1.44,1.08,1.08,1.8-.72,6.11-1.07,1.8-3.23,6.17-4.67,9-1.43,3.23-4,8.62-5.74,12.57-1.8,3.59-3.23,6.82-3.23,6.82a48.54,48.54,0,0,1,5.38.36c8.26,0,11.5,1.5,10.78,4-.72,1.44-2.52,2.16-5,1.8-1.44,0-5-.36-8.26-.36-4.67-.36-6.17,0-6.89.36-1.79,1.08-3.59,1.08-4.66-.72V70a92.2,92.2,0,0,1,6.1-14.79c.72-2.15,2.22-4.67,2.58-5.74.71-1.08,1.79-4,3.23-6.53,1.79-4.67,1.79-4.67-1.44-4.31-4,.36-8.32-.36-9.4-1.08-.71-.36-1.07-.72-.71-1.79C242,34,243.49,33.63,248.88,33.27Z"/><ellipse class="cls-6" cx="99.25" cy="49.19" rx="0.24" ry="0.2"/><path class="cls-6" d="M49,32.83c3.87,2.86.81,34.39.81,37.63,0,3.44-3.59,2.05-3.66-.47C45.81,58.71,42.39,28,49,32.83Z"/><path class="cls-6" d="M47.23,67.87a4.73,4.73,0,0,0,1.73,0c1-.53,4.92-5.23,6.34-6.4,1.1-.9.58,4.78.67,5.11.25.92-6.69,7.79-8.27,7.73s-10.43-7-10-8.5c.16-.5,1.19-3.37,1.68-3.22,3.19.92,7.7,6.07,7.7,6.07"/></svg>