<svg id="Layer_1" data-name="Layer 1" xmlns="http://www.w3.org/2000/svg" viewBox="0 0 137 130"><defs><style>.cls-1{fill:#2e3192;}.cls-2{fill:#29abe2;}.cls-3{fill:#0061ef;}.cls-4{fill:#fff;}.cls-5{opacity:0.2;}.cls-6{fill:#59ffff;}.cls-7{opacity:0.5;}.cls-8{fill:#cff;}.cls-9{opacity:0.8;}</style></defs><title>kolorowanka_Artboard 13 copy</title><path class="cls-1" d="M114.47,116.65a6,6,0,0,1-2-1.23l-40.26-37a6,6,0,1,1,8.09-8.79l40.25,37.05a6,6,0,0,1-6,10Z"/><path class="cls-2" d="M111.53,116.39l-28.25-26,9.88-10.73,28.25,26a7.31,7.31,0,0,1,.43,10.31h0A7.3,7.3,0,0,1,111.53,116.39Z"/><path class="cls-1" d="M63.28,14.21A38.29,38.29,0,1,0,86.59,63.09,38.29,38.29,0,0,0,63.28,14.21ZM41.11,76.82A28.13,28.13,0,1,1,77,59.69,28.13,28.13,0,0,1,41.11,76.82Z"/><path class="cls-3" d="M61.22,20A32.15,32.15,0,1,0,80.8,61,32.16,32.16,0,0,0,61.22,20ZM41.11,76.82A28.13,28.13,0,1,1,77,59.69,28.13,28.13,0,0,1,41.11,76.82Z"/><path class="cls-4" d="M118.2,109.42a1.71,1.71,0,0,1-1.12-.43L93.39,87.45A1.66,1.66,0,0,1,95.63,85l23.69,21.54a1.66,1.66,0,0,1-1.12,2.89Z"/><g class="cls-5"><circle class="cls-6" cx="50.49" cy="50.3" r="28.13"/></g><g class="cls-7"><path class="cls-8" d="M72.74,57.44a23.32,23.32,0,0,1-45-11.5,23.31,23.31,0,0,0,44.67,2.44,22.12,22.12,0,0,0,1-4.07A23.19,23.19,0,0,1,72.74,57.44Z"/></g><g class="cls-9"><path class="cls-4" d="M60,34.45a1.87,1.87,0,0,1-.93-.24,19.27,19.27,0,0,0-4.17-1.62,2,2,0,0,1,1-3.86,22.55,22.55,0,0,1,5,2A2,2,0,0,1,60,34.45Z"/></g><g class="cls-9"><path class="cls-4" d="M32.11,42.9A2,2,0,0,1,30.36,40,22.59,22.59,0,0,1,48.22,28.12a2,2,0,0,1,.37,4,18.63,18.63,0,0,0-14.72,9.77A2,2,0,0,1,32.11,42.9Z"/></g><path class="cls-1" d="M67.55,53.72H34a2.5,2.5,0,0,1,0-5H67.55a2.5,2.5,0,0,1,0,5Z"/></svg>