<svg id="Layer_1" data-name="Layer 1" xmlns="http://www.w3.org/2000/svg" viewBox="0 0 104 58"><defs><style>.cls-1{opacity:0.3;}.cls-2{fill:#0071bc;}.cls-3{fill:#006dff;}.cls-4{fill:#fff;}</style></defs><title>kolorowanka_Artboard 16</title><g class="cls-1"><path d="M91.3,35A7.75,7.75,0,0,0,89.75,33a11.35,11.35,0,0,0,1.09-5.19,11.27,11.27,0,0,0-10-11.52,12.79,12.79,0,0,0-3.7-.06,9.51,9.51,0,0,0-1.91-.19,10.11,10.11,0,0,0-3,.4,4.88,4.88,0,0,0-.64.23,7.88,7.88,0,0,0-1,.49c-2-.88-5.75-1.68-8.83.14a7.74,7.74,0,0,0-1.41,1,13,13,0,0,0-2.86,1.81,8.49,8.49,0,0,0-1.29-1.64,8.28,8.28,0,0,0-6.36-2.46,9.06,9.06,0,0,0-4.58,1.07c-2.06-.86-5.68-1.59-8.7.19a8.4,8.4,0,0,0-1.27.92c-.13-.07-.26-.16-.39-.22a8.31,8.31,0,0,0-5.7-.92,9.58,9.58,0,0,0-2.68-.95,7.3,7.3,0,0,0-1.4-.14h-.88a6.86,6.86,0,0,0-1.69.21,9.17,9.17,0,0,0-4.23,2.34,7,7,0,0,0-2,4.65v.11c0,.57-.13,1.91-.13,3.39s-.11,4.49-.23,6.76a1.93,1.93,0,0,0,0,.24c-.13,6-.25,11.63,5.76,13.45a8.24,8.24,0,0,0,2.66.44,8.34,8.34,0,0,0,2.61-.42,8.62,8.62,0,0,0,1.93-.94,10.72,10.72,0,0,0,5.16,0,13.52,13.52,0,0,0,5.84,1.31c.37,0,.75,0,1.13,0a13.54,13.54,0,0,0,4.74-1.17,15.53,15.53,0,0,0,6.14,1.09,21.1,21.1,0,0,0,7.26-1.23A13.45,13.45,0,0,0,65,47.57c.37,0,.75,0,1.12,0a13.64,13.64,0,0,0,4.24-1,8.33,8.33,0,0,0,.79.4,8.2,8.2,0,0,0,3.36.7,8.54,8.54,0,0,0,4.41-1.22,10.15,10.15,0,0,0,2.08.68l.52.09a9.57,9.57,0,0,0,10-5A7.27,7.27,0,0,0,91.3,35Zm-5.69,1.23a3.81,3.81,0,0,0-.08-.59h0a5,5,0,0,1,.07.59Zm2.88,1.88a7.28,7.28,0,0,1,.21.95A7.66,7.66,0,0,0,88.49,38.09Z"/><path d="M43.31,33.42a7.21,7.21,0,1,1,7.25-7.21A7.23,7.23,0,0,1,43.31,33.42Zm0-14a6.79,6.79,0,1,0,6.75,6.79A6.78,6.78,0,0,0,43.31,19.42Z"/></g><path class="cls-2" d="M89.45,34.5a7,7,0,0,0-2-2.23,10.09,10.09,0,0,0,1.36-5.43,10.19,10.19,0,0,0-9.19-10.53,11.39,11.39,0,0,0-3.59,0,8.36,8.36,0,0,0-1.87-.21,9.17,9.17,0,0,0-2.67.35l-.56.2a7.43,7.43,0,0,0-1.38.71l-.08,0c-1.72-.86-5.35-1.82-8.28-.09a7.47,7.47,0,0,0-1.38,1,12.12,12.12,0,0,0-3.73,2.63,6.78,6.78,0,0,0-1.67-2.61,7.29,7.29,0,0,0-5.65-2.16,7.76,7.76,0,0,0-4.51,1.2c-1.73-.86-5.34-1.8-8.26-.08a7.08,7.08,0,0,0-1.37,1l-.41.2a7.17,7.17,0,0,0-.86-.5A7.32,7.32,0,0,0,28,17.16a8.48,8.48,0,0,0-2.69-1,6.11,6.11,0,0,0-1.2-.12h-.88a5.88,5.88,0,0,0-1.45.18A8.13,8.13,0,0,0,18,18.28a6,6,0,0,0-1.76,4v.12c0,.57-.13,1.88-.13,3.33s-.11,4.49-.24,6.81v.21c-.13,5.82-.24,10.86,5.06,12.47a7,7,0,0,0,2.36.4,7.18,7.18,0,0,0,2.29-.37,7.37,7.37,0,0,0,2.06-1.08l.22.06a9.69,9.69,0,0,0,5.26,0,12.44,12.44,0,0,0,5.72,1.36c.35,0,.7,0,1,0a12.8,12.8,0,0,0,4.83-1.27,13.64,13.64,0,0,0,6.06,1.16,20.05,20.05,0,0,0,7.34-1.3A12.58,12.58,0,0,0,64,45.57c.35,0,.7,0,1,0a12.64,12.64,0,0,0,4.37-1.07,7.25,7.25,0,0,0,1.11.6,7.38,7.38,0,0,0,3,.63,7.5,7.5,0,0,0,4.32-1.36l.15.06.37.17a9.13,9.13,0,0,0,1.85.6l.44.08a8.58,8.58,0,0,0,9-4.47A6.3,6.3,0,0,0,89.45,34.5Z"/><path class="cls-2" d="M42.31,31.42a6.21,6.21,0,1,1,6.25-6.21A6.23,6.23,0,0,1,42.31,31.42Zm0-12a5.79,5.79,0,1,0,5.75,5.79A5.78,5.78,0,0,0,42.31,19.42Z"/><path class="cls-3" d="M22.22,22.52a2.3,2.3,0,0,1,1-.5h.88c1.22.25,1.35.75,1.35,3.45,0,2.22,0,2.1,1.1.62a1.89,1.89,0,0,1,.5-.75c0-.12.25-.34.62-.72.75-1.1.85-1.25,1.35-1.5a1.46,1.46,0,0,1,1.6.13c.38.12.5.25.38.62a22.26,22.26,0,0,1-2.35,3.82c-.13.13-.13.25-.25.38a7.68,7.68,0,0,0-.85,1.22c-.75,1-.75,1-.13,2a40.34,40.34,0,0,0,2.45,4.17c.13.13.38.38.38.5.25.25.25.25.62.13a1.81,1.81,0,0,1,2.1,1c0,1.1-2,1.85-3.57,1.35a3.72,3.72,0,0,1-1.85-1.23c-.13-.12-.38-.5-.63-.75l-.25-.5c-.12,0-.25-.22-.37-.6a3.62,3.62,0,0,1-.73-1.12c-.37-.75-.37-.73-.5.87A16.91,16.91,0,0,1,24.32,39a1.2,1.2,0,0,1-1.5.5c-1-.25-1.1-.85-1-6.65.13-2.23.25-5.55.25-7.15S22.22,22.65,22.22,22.52Z"/><path class="cls-3" d="M38.74,23c-.15-.28,0-.43.3-.58a3.51,3.51,0,0,1,2.58.28,11,11,0,0,1,4.3,5.87,11.94,11.94,0,0,1,0,5.45,7.09,7.09,0,0,1-6.45,5.57,6,6,0,0,1-6.72-4.72c-.58-1.85,0-5.58,1.14-7.88a6.2,6.2,0,0,1,4.28-3.57C38.74,23.22,38.74,23.22,38.74,23Zm2.88,3.57c-.28-.43-.73-1-.88-1.27s-.4-.46-.55-.46a2.24,2.24,0,0,0-.72.16,2.61,2.61,0,0,0-2.3,1.57,8,8,0,0,0-1.28,4,10.39,10.39,0,0,0,0,4.15,6.93,6.93,0,0,0,1.28,2c1.42,1.3,2.45,1.28,4-.3C43.34,34.09,43.62,29.82,41.62,26.52Z"/><path class="cls-3" d="M47.19,30.64c.2-7.17.2-8.17.4-8.37s.8-.2,1.2-.2c.8,0,1,0,1.4.4s.4.6.4,3.2c0,3-.2,8.37-.4,9.77-.2,1-.22,1,2.58.8,2.6,0,2.8.18,3.4.58a.94.94,0,0,1,0,1.6c-1.2,1-7.38,1.4-8.58.6C47,38.62,47,38.62,47.19,30.64Z"/><path class="cls-3" d="M63.94,23c-.15-.28,0-.43.3-.58a3.51,3.51,0,0,1,2.58.28,11,11,0,0,1,4.3,5.87,11.94,11.94,0,0,1,0,5.45,7.09,7.09,0,0,1-6.45,5.57,6.06,6.06,0,0,1-6.73-4.72c-.57-1.85,0-5.58,1.15-7.88a6.2,6.2,0,0,1,4.28-3.57C63.94,23.22,63.94,23.22,63.94,23Zm2.88,3.57c-.28-.43-.73-1-.88-1.27s-.4-.46-.55-.46a2.24,2.24,0,0,0-.72.16,2.61,2.61,0,0,0-2.3,1.57,8,8,0,0,0-1.28,4,10.39,10.39,0,0,0,0,4.15,6.93,6.93,0,0,0,1.28,2c1.42,1.3,2.45,1.28,4-.3C68.54,34.09,68.82,29.82,66.82,26.52Z"/><path class="cls-3" d="M72.72,22.5c.07-.18.35-.25.52-.33a3.44,3.44,0,0,1,1-.1,1.57,1.57,0,0,1,1.2.43c.08.17.2.17.45,0a5.47,5.47,0,0,1,2.93-.25,4.25,4.25,0,0,1,4.07,4.59,3.82,3.82,0,0,1-1.2,3.2,5.3,5.3,0,0,1-2.6,1.3c-.35.08-.52.28-.35.35a4.37,4.37,0,0,1,.43.85c.25.35.52.88.7,1.13s.25.52.25.6.1.17.1.17a.21.21,0,0,1,.17.18c.08.17.28.35.35.52s.25.28.25.35a.28.28,0,0,0,.08.18s.27.35.45.6c.42.6.5.67.85.6a1.61,1.61,0,0,1,1.92.62c.18.25.25.35.08.6a2.6,2.6,0,0,1-2.85,1.2c-.35-.07-.7-.17-.7-.25a2.43,2.43,0,0,1-.43-.17,5.3,5.3,0,0,1-2.17-2.25,5,5,0,0,1-.53-.78A23.83,23.83,0,0,1,75.74,32c-.07-.43-.07-.43-.07.17,0,.35-.1,1.05-.1,1.48a12.53,12.53,0,0,0-.18,1.9,11.24,11.24,0,0,1-.77,3.65,1.5,1.5,0,0,1-1.65.35c-.43-.18-.43-.25-.6-1.13s-.18-.7,0-7.55c.07-1.47.07-3.9.07-5.44C72.44,22.67,72.47,22.67,72.72,22.5Zm6.67,3.82c0-1.55-.45-2.42-1.22-2.78a2.42,2.42,0,0,0-1.55,0c-.18,0-.35.08-.53.08s-.17.1-.25,1.3v3c-.07,1.9-.1,1.87.78,1.8,1.3,0,1.82-.33,2.25-1.2A4.28,4.28,0,0,0,79.39,26.32Z"/><path class="cls-4" d="M22.22,22.52a2.3,2.3,0,0,1,1-.5h.88c1.22.25,1.35.75,1.35,3.45,0,2.22,0,2.1,1.1.62a1.89,1.89,0,0,1,.5-.75c0-.12.25-.34.62-.72.75-1.1.85-1.25,1.35-1.5a1.46,1.46,0,0,1,1.6.13c.38.12.5.25.38.62a22.26,22.26,0,0,1-2.35,3.82c-.13.13-.13.25-.25.38a7.68,7.68,0,0,0-.85,1.22c-.75,1-.75,1-.13,2a40.34,40.34,0,0,0,2.45,4.17c.13.13.38.38.38.5.25.25.25.25.62.13a1.81,1.81,0,0,1,2.1,1c0,1.1-2,1.85-3.57,1.35a3.72,3.72,0,0,1-1.85-1.23c-.13-.12-.38-.5-.63-.75l-.25-.5c-.12,0-.25-.22-.37-.6a3.62,3.62,0,0,1-.73-1.12c-.37-.75-.37-.73-.5.87A16.91,16.91,0,0,1,24.32,39a1.2,1.2,0,0,1-1.5.5c-1-.25-1.1-.85-1-6.65.13-2.23.25-5.55.25-7.15S22.22,22.65,22.22,22.52Z"/><path class="cls-4" d="M38.74,23c-.15-.28,0-.43.3-.58a3.51,3.51,0,0,1,2.58.28,11,11,0,0,1,4.3,5.87,11.94,11.94,0,0,1,0,5.45,7.09,7.09,0,0,1-6.45,5.57,6,6,0,0,1-6.72-4.72c-.58-1.85,0-5.58,1.14-7.88a6.2,6.2,0,0,1,4.28-3.57C38.74,23.22,38.74,23.22,38.74,23Zm2.88,3.57c-.28-.43-.73-1-.88-1.27s-.4-.46-.55-.46a2.24,2.24,0,0,0-.72.16,2.61,2.61,0,0,0-2.3,1.57,8,8,0,0,0-1.28,4,10.39,10.39,0,0,0,0,4.15,6.93,6.93,0,0,0,1.28,2c1.42,1.3,2.45,1.28,4-.3C43.34,34.09,43.62,29.82,41.62,26.52Z"/><path class="cls-4" d="M47.19,30.64c.2-7.17.2-8.17.4-8.37s.8-.2,1.2-.2c.8,0,1,0,1.4.4s.4.6.4,3.2c0,3-.2,8.37-.4,9.77-.2,1-.22,1,2.58.8,2.6,0,2.8.18,3.4.58a.94.94,0,0,1,0,1.6c-1.2,1-7.38,1.4-8.58.6C47,38.62,47,38.62,47.19,30.64Z"/><path class="cls-4" d="M63.94,23c-.15-.28,0-.43.3-.58a3.51,3.51,0,0,1,2.58.28,11,11,0,0,1,4.3,5.87,11.94,11.94,0,0,1,0,5.45,7.09,7.09,0,0,1-6.45,5.57,6.06,6.06,0,0,1-6.73-4.72c-.57-1.85,0-5.58,1.15-7.88a6.2,6.2,0,0,1,4.28-3.57C63.94,23.22,63.94,23.22,63.94,23Zm2.88,3.57c-.28-.43-.73-1-.88-1.27s-.4-.46-.55-.46a2.24,2.24,0,0,0-.72.16,2.61,2.61,0,0,0-2.3,1.57,8,8,0,0,0-1.28,4,10.39,10.39,0,0,0,0,4.15,6.93,6.93,0,0,0,1.28,2c1.42,1.3,2.45,1.28,4-.3C68.54,34.09,68.82,29.82,66.82,26.52Z"/><path class="cls-4" d="M72.72,22.5c.07-.18.35-.25.52-.33a3.44,3.44,0,0,1,1-.1,1.57,1.57,0,0,1,1.2.43c.08.17.2.17.45,0a5.47,5.47,0,0,1,2.93-.25,4.25,4.25,0,0,1,4.07,4.59,3.82,3.82,0,0,1-1.2,3.2,5.3,5.3,0,0,1-2.6,1.3c-.35.08-.52.28-.35.35a4.37,4.37,0,0,1,.43.85c.25.35.52.88.7,1.13s.25.52.25.6.1.17.1.17a.21.21,0,0,1,.17.18c.08.17.28.35.35.52s.25.28.25.35a.28.28,0,0,0,.08.18s.27.35.45.6c.42.6.5.67.85.6a1.61,1.61,0,0,1,1.92.62c.18.25.25.35.08.6a2.6,2.6,0,0,1-2.85,1.2c-.35-.07-.7-.17-.7-.25a2.43,2.43,0,0,1-.43-.17,5.3,5.3,0,0,1-2.17-2.25,5,5,0,0,1-.53-.78A23.83,23.83,0,0,1,75.74,32c-.07-.43-.07-.43-.07.17,0,.35-.1,1.05-.1,1.48a12.53,12.53,0,0,0-.18,1.9,11.24,11.24,0,0,1-.77,3.65,1.5,1.5,0,0,1-1.65.35c-.43-.18-.43-.25-.6-1.13s-.18-.7,0-7.55c.07-1.47.07-3.9.07-5.44C72.44,22.67,72.47,22.67,72.72,22.5Zm6.67,3.82c0-1.55-.45-2.42-1.22-2.78a2.42,2.42,0,0,0-1.55,0c-.18,0-.35.08-.53.08s-.17.1-.25,1.3v3c-.07,1.9-.1,1.87.78,1.8,1.3,0,1.82-.33,2.25-1.2A4.28,4.28,0,0,0,79.39,26.32Z"/><ellipse class="cls-4" cx="42.31" cy="25.21" rx="0.25" ry="0.21"/></svg>