<svg id="Layer_1" data-name="Layer 1" xmlns="http://www.w3.org/2000/svg" viewBox="0 0 112 93"><defs><style>.cls-1{fill:#2e3192;}.cls-2{fill:#140054;}.cls-3{fill:#0061ef;}.cls-4{fill:#0059c4;}.cls-5{fill:#3198ff;}</style></defs><title>kolorowanka_Artboard 1 copy 6</title><circle class="cls-1" cx="52.69" cy="44.41" r="40.5"/><circle class="cls-2" cx="54.09" cy="45.36" r="36.26"/><circle class="cls-3" cx="52.69" cy="44.41" r="33.8"/><path class="cls-4" d="M86.48,44.41A33.8,33.8,0,0,1,24.93,63.7,33.8,33.8,0,0,0,72,16.65,33.73,33.73,0,0,1,86.48,44.41Z"/><path class="cls-5" d="M56.88,17.83c.44,3.67-10.84,4.3-18.78,11-9.9,8.33-6.25,17-13.17,18.61s-1.47-17.67,6.3-24.67S56,10.64,56.88,17.83Z"/><path class="cls-2" d="M80.5,50.65c0-9.07-15.83-25.09-28.81-25.09s-19.08,13.52-20,22.5c-4.09-2.7-5.28-3.65-5.28-3.65a36.38,36.38,0,0,0-1.48,5.05c0,.89,5.5,11,9.22,11.15s14.13-6,13.83-7-2.38-5.47-3.57-5.56-7.14,3.63-7.14,3.63S42.51,33.1,51.69,33.4,72.32,44.7,72.32,51.84C75.76,54.26,80.5,50.65,80.5,50.65Z"/><path class="cls-1" d="M77.27,49.07s-2.57,1.13-3.51.69A25.12,25.12,0,0,0,63.67,35.83c-4.26-2.93-11.78-5.75-16.34-3.13C44.4,34.39,38.51,42,36.92,47.53s-1,6.19-1,6.19,5.59-3.07,6.48-2.57a3.32,3.32,0,0,1,1.35,3c-.29.69-7.1,3.81-9.86,3.62s-6.45-6.25-6.45-6.25l.64-3.32L33,51.59s1.34-10.76,5-14.72,6.44-8,14.48-8.23S67.51,33.05,72.27,39.1,77.27,49.07,77.27,49.07Z"/></svg>